<svg width="27" height="21" viewBox="0 0 27 21" fill="none" xmlns="http://www.w3.org/2000/svg">
<path d="M22.5837 2.59246C20.8822 1.81704 19.0629 1.2535 17.1609 0.932617C16.9273 1.34398 16.6544 1.89727 16.4663 2.33741C14.4444 2.04124 12.4411 2.04124 10.4564 2.33741C10.2682 1.89727 9.98914 1.34398 9.75346 0.932617C7.84938 1.2535 6.028 1.81911 4.32653 2.59657C0.894653 7.648 -0.0356732 12.574 0.429491 17.43C2.70569 19.0857 4.91161 20.0915 7.0803 20.7496C7.61576 20.0318 8.09331 19.2688 8.50472 18.4646C7.72118 18.1746 6.97072 17.8167 6.26163 17.4012C6.44975 17.2655 6.63376 17.1235 6.81154 16.9775C11.1365 18.9479 15.8357 18.9479 20.109 16.9775C20.2889 17.1235 20.4729 17.2655 20.6589 17.4012C19.9478 17.8187 19.1952 18.1766 18.4117 18.4666C18.8231 19.2688 19.2986 20.0339 19.8361 20.7517C22.0069 20.0935 24.2149 19.0878 26.4911 17.43C27.0369 11.8006 25.5587 6.9199 22.5837 2.59246ZM9.09394 14.4436C7.79562 14.4436 6.7309 13.263 6.7309 11.8253C6.7309 10.3876 7.77289 9.20498 9.09394 9.20498C10.415 9.20498 11.4797 10.3855 11.457 11.8253C11.459 13.263 10.415 14.4436 9.09394 14.4436ZM17.8266 14.4436C16.5283 14.4436 15.4636 13.263 15.4636 11.8253C15.4636 10.3876 16.5055 9.20498 17.8266 9.20498C19.1477 9.20498 20.2124 10.3855 20.1897 11.8253C20.1897 13.263 19.1477 14.4436 17.8266 14.4436Z" fill="#0051B7"/>
</svg>
