<svg width="23" height="21" viewBox="0 0 23 21" fill="none" xmlns="http://www.w3.org/2000/svg">
<path d="M21.9857 1.20507C21.6042 0.889947 21.005 0.844859 20.3854 1.08715H20.3844C19.7328 1.34182 1.93924 8.77597 1.21489 9.0797C1.08314 9.1243 -0.0674912 9.54248 0.0510308 10.474C0.156836 11.3138 1.08161 11.6616 1.19454 11.7018L5.71821 13.2105C6.01833 14.1836 7.12471 17.7739 7.36938 18.5409C7.52199 19.019 7.77073 19.6473 8.20667 19.7766C8.58919 19.9203 8.96968 19.789 9.21588 19.6007L11.9816 17.102L16.4462 20.4935L16.5525 20.5555C16.8557 20.6863 17.1462 20.7517 17.4234 20.7517C17.6376 20.7517 17.8431 20.7125 18.0394 20.6343C18.7083 20.3667 18.9759 19.7459 19.0039 19.6755L22.3388 2.7911C22.5422 1.88933 22.2594 1.43051 21.9857 1.20507ZM9.70778 13.814L8.18174 17.7778L6.65571 12.823L18.3553 4.39991L9.70778 13.814Z" fill="#0051B7"/>
</svg>
