<svg width="26" height="21" viewBox="0 0 26 21" fill="none" xmlns="http://www.w3.org/2000/svg">
<path d="M25.553 3.27856C24.6314 3.67721 23.6414 3.94548 22.6024 4.06648C23.6636 3.4474 24.4773 2.46719 24.8606 1.29844C23.8687 1.87156 22.769 2.28803 21.598 2.51315C20.661 1.54044 19.3263 0.932617 17.849 0.932617C15.012 0.932617 12.7124 3.17351 12.7124 5.93592C12.7124 6.32801 12.7586 6.71071 12.8453 7.0756C8.57635 6.86736 4.79178 4.87504 2.25718 1.84717C1.81613 2.58632 1.56286 3.44553 1.56286 4.36383C1.56286 6.09914 2.46904 7.63089 3.84708 8.52763C3.00543 8.50136 2.21288 8.27624 1.52049 7.90198C1.52049 7.92355 1.52049 7.94325 1.52049 7.96482C1.52049 10.3896 3.29047 12.4119 5.64114 12.8706C5.21068 12.985 4.75615 13.046 4.28717 13.046C3.95687 13.046 3.63426 13.0141 3.32129 12.9569C3.97516 14.9445 5.87226 16.3918 8.11989 16.4322C6.36243 17.7745 4.14754 18.5746 1.74005 18.5746C1.32596 18.5746 0.916692 18.5511 0.51416 18.5042C2.78779 19.9234 5.48706 20.7517 8.38857 20.7517C17.8375 20.7517 23.003 13.1276 23.003 6.51561C23.003 6.29893 22.9982 6.08319 22.9885 5.86839C23.9929 5.16207 24.8644 4.28129 25.553 3.27856Z" fill="#0051B7"/>
</svg>
