<svg width="245" height="177" viewBox="0 0 245 177" fill="none" xmlns="http://www.w3.org/2000/svg">
<circle cx="144.106" cy="73.6195" r="73.6195" fill="#FDFEFF"/>
<circle cx="50.1239" cy="126.876" r="50.1239" fill="#FDFEFF"/>
<circle cx="204.412" cy="137.058" r="39.9425" fill="#FDFEFF"/>
<rect x="50.124" y="117.478" width="155.071" height="59.5221" fill="#FDFEFF"/>
<mask id="mask0_717_1537" style="mask-type:alpha" maskUnits="userSpaceOnUse" x="0" y="0" width="245" height="177">
<circle cx="144.106" cy="73.6195" r="73.6195" fill="#FDFEFF"/>
<circle cx="50.1239" cy="126.876" r="50.1239" fill="#FDFEFF"/>
<circle cx="204.412" cy="137.058" r="39.9425" fill="#FDFEFF"/>
<rect x="50.124" y="117.478" width="155.071" height="59.5221" fill="#FDFEFF"/>
</mask>
<g mask="url(#mask0_717_1537)">
<path d="M115.128 70.4866C96.3317 57.9556 77.5353 65.2653 70.4866 70.4866H56.3893H13.314L-27.4116 90.8495C-34.9824 99.9867 -50.124 119.514 -50.124 124.527C-50.124 130.792 -6.26562 174.65 17.23 183.265C40.7255 191.88 85.3671 195.796 120.61 209.111C155.854 222.425 209.111 204.411 217.726 204.411C224.618 204.411 245.137 190.314 254.535 183.265L270.982 137.057L245.137 97.8982H213.81C213.183 79.7283 194.23 76.7522 184.832 77.5354C180.446 58.7389 162.641 46.2079 154.287 42.292C166.818 52.3168 163.686 65.2654 160.553 70.4866C139.877 41.6653 121.655 58.4777 115.128 70.4866Z" fill="#E7F5FE"/>
</g>
<path d="M78.3183 137.057C11.9041 153.974 15.6634 108.08 25.8448 83.0176C-23.0258 116.225 13.3137 152.199 37.5923 166.035H216.159C243.727 157.89 245.398 136.535 242.787 126.876C237.775 142.54 214.592 142.801 203.628 140.973C189.844 150.372 172.3 142.279 165.252 137.057C184.675 134.551 194.229 116.172 196.579 107.296C177.783 129.226 151.676 122.699 140.973 116.695C123.429 127.972 103.902 118.261 96.3313 111.995C85.6799 121.394 62.6543 109.646 52.4728 102.597C53.7259 114.502 70.2252 119.566 78.3183 120.61C71.4265 127.503 75.4467 134.447 78.3183 137.057Z" fill="#B1D9FD"/>
</svg>
