<svg width="163" height="127" viewBox="0 0 163 127" fill="none" xmlns="http://www.w3.org/2000/svg">
<g filter="url(#filter0_f_870_239)">
<circle cx="93.0146" cy="55.4604" r="40.1254" fill="#FDFEFF"/>
<circle cx="41.7906" cy="84.4874" r="27.3194" fill="#FDFEFF"/>
<circle cx="125.883" cy="90.0368" r="21.7702" fill="#FDFEFF"/>
<rect x="41.7905" y="79.3652" width="84.5194" height="32.4418" fill="#FDFEFF"/>
<mask id="mask0_870_239" style="mask-type:alpha" maskUnits="userSpaceOnUse" x="14" y="15" width="134" height="97">
<circle cx="93.0146" cy="55.4604" r="40.1254" fill="#FDFEFF"/>
<circle cx="41.7906" cy="84.4874" r="27.3194" fill="#FDFEFF"/>
<circle cx="125.883" cy="90.0368" r="21.7702" fill="#FDFEFF"/>
<rect x="41.7905" y="79.3652" width="84.5194" height="32.4418" fill="#FDFEFF"/>
</mask>
<g mask="url(#mask0_870_239)">
<path d="M77.2201 53.7533C66.9753 46.9235 56.7305 50.9076 52.8887 53.7533H45.2051H21.7275L-0.469522 64.8519C-4.59589 69.832 -12.8486 80.4752 -12.8486 83.2071C-12.8486 86.6221 11.0559 110.527 23.8618 115.222C36.6678 119.918 60.9992 122.052 80.2081 129.309C99.4171 136.565 128.444 126.747 133.139 126.747C136.896 126.747 148.08 119.064 153.202 115.222L162.166 90.037L148.08 68.6937H131.005C130.664 58.7904 120.334 57.1683 115.211 57.5952C112.821 47.3504 103.117 40.5206 98.5634 38.3862C105.393 43.8501 103.686 50.9076 101.978 53.7533C90.709 38.0447 80.7773 47.2081 77.2201 53.7533Z" fill="#E7F5FE"/>
</g>
<path d="M57.1575 90.0372C20.9593 99.2575 23.0082 74.2432 28.5575 60.5835C1.92118 78.6826 21.7276 98.29 34.9603 105.831H132.286C147.311 101.392 148.222 89.7527 146.799 84.488C144.067 93.0253 131.432 93.1676 125.456 92.1716C117.943 97.294 108.381 92.883 104.539 90.0372C115.126 88.6713 120.333 78.6542 121.614 73.8163C111.369 85.7686 97.1404 82.2114 91.3066 78.9387C81.7448 85.0856 71.1016 79.7925 66.9753 76.3775C61.1699 81.4999 48.62 75.0969 43.0708 71.2551C43.7537 77.7435 52.7465 80.5039 57.1575 81.0731C53.4012 84.8295 55.5924 88.6144 57.1575 90.0372Z" fill="#B1D9FD"/>
</g>
<defs>
<filter id="filter0_f_870_239" x="0.100203" y="0.963972" width="161.924" height="125.214" filterUnits="userSpaceOnUse" color-interpolation-filters="sRGB">
<feFlood flood-opacity="0" result="BackgroundImageFix"/>
<feBlend mode="normal" in="SourceGraphic" in2="BackgroundImageFix" result="shape"/>
<feGaussianBlur stdDeviation="7.18549" result="effect1_foregroundBlur_870_239"/>
</filter>
</defs>
</svg>
