<svg width="179" height="130" viewBox="0 0 179 130" fill="none" xmlns="http://www.w3.org/2000/svg">
<circle cx="38.9127" cy="74.8825" r="38.9127" fill="white"/>
<circle cx="62.4567" cy="96.4646" r="27.1408" fill="white"/>
<circle cx="89.9245" cy="68.9968" r="27.1408" fill="white"/>
<circle cx="121.643" cy="93.5215" r="35.9698" fill="white"/>
<circle cx="161.21" cy="74.8826" r="17.3309" fill="white"/>
<circle cx="138.647" cy="39.8937" r="39.8937" fill="white"/>
<circle cx="86.0001" cy="40.2208" r="33.6808" fill="white"/>
<mask id="mask0_870_219" style="mask-type:alpha" maskUnits="userSpaceOnUse" x="0" y="0" width="179" height="130">
<circle cx="38.9127" cy="74.8825" r="38.9127" fill="white"/>
<circle cx="62.4567" cy="96.4646" r="27.1408" fill="white"/>
<circle cx="89.9245" cy="68.9968" r="27.1408" fill="white"/>
<circle cx="121.643" cy="93.5215" r="35.9698" fill="white"/>
<circle cx="161.21" cy="74.8826" r="17.3309" fill="white"/>
<circle cx="138.647" cy="39.8937" r="39.8937" fill="white"/>
<circle cx="86.0001" cy="40.2208" r="33.6808" fill="white"/>
</mask>
<g mask="url(#mask0_870_219)">
<path d="M62.4568 69.9773C34.7274 58.7286 9.2652 67.9063 0.000259876 73.9013L-2.61572 90.2512L30.7381 139.628C58.4239 145.623 115.496 157.613 122.297 157.613C129.099 157.613 159.139 148.021 173.309 143.225L206.663 115.103L180.83 52.6465C146.299 7.65156 119.136 35.4245 109.872 54.9354C94.6988 34.7923 71.9398 43.4905 62.4568 50.3576C43.8834 43.8176 23.7621 50.6845 16.0232 54.9354C40.0902 48.1339 57.0069 62.1294 62.4568 69.9773Z" fill="#E7F5FE"/>
</g>
<path d="M61.4759 88.6169C40.8096 103.528 15.8052 99.4078 5.88623 95.4839C21.8437 110.133 37.169 110.308 42.837 108.564C59.8409 129.492 78.9157 113.142 86.3277 102.351C130.799 144.991 147.585 109.218 150.419 86.0009C139.432 106.667 104.858 100.934 88.9437 95.4839C102.808 88.4207 103.877 78.371 102.678 74.229C91.4289 90.4481 70.5228 90.5789 61.4759 88.6169Z" fill="#B1D9FD"/>
</svg>
