<svg width="240" height="170" viewBox="0 0 240 170" fill="none" xmlns="http://www.w3.org/2000/svg">
<circle cx="57.6786" cy="89.5536" r="57.6786" fill="white"/>
<circle cx="145.714" cy="47.0536" r="47.0536" fill="white"/>
<circle cx="187.455" cy="100.937" r="52.3661" fill="white"/>
<circle cx="126.741" cy="129.777" r="40.2232" fill="white"/>
<ellipse cx="121.428" cy="94.866" rx="37.9464" ry="28.0804" fill="white"/>
<mask id="mask0_454_296" style="mask-type:alpha" maskUnits="userSpaceOnUse" x="0" y="0" width="240" height="170">
<circle cx="57.6786" cy="89.5536" r="57.6786" fill="white"/>
<circle cx="145.714" cy="47.0536" r="47.0536" fill="white"/>
<circle cx="187.455" cy="100.937" r="52.3661" fill="white"/>
<circle cx="126.741" cy="129.777" r="40.2232" fill="white"/>
<ellipse cx="121.428" cy="94.866" rx="37.9464" ry="28.0804" fill="white"/>
</mask>
<g mask="url(#mask0_454_296)">
<path d="M22.0087 91.8302C14.723 81.5087 4.30039 83.9879 -0.000207901 86.5177L-14.4199 91.8302L-22.7681 120.67L49.3301 163.17C71.0861 173.542 115.661 195.955 119.911 202.634C125.223 210.982 192.768 202.634 198.08 202.634C202.33 202.634 230.208 172.783 243.616 157.857L264.107 96.3839V45.5356L192.768 48.5714C180.018 50.9999 177.842 61.22 178.348 66.0265C149.812 61.1694 134.077 86.7706 129.777 100.178C124.312 86.8212 114.345 80.9521 110.044 79.6872C118.544 86.3658 116.622 96.1307 114.598 100.178C95.7766 81.3569 67.2915 86.7706 55.4016 91.8302C42.0444 83.9373 27.5742 88.5415 22.0087 91.8302Z" fill="#E7F5FE"/>
</g>
<path d="M81.9642 107.768C61.9285 130.839 20.997 117.381 3.03564 107.768C27.3214 152.696 71.8452 143.69 91.0714 133.571C114.75 183.357 148.497 159.375 162.411 141.161C223.125 146.625 239.315 117.128 239.821 101.696C216.143 116.875 186.949 119.658 175.312 119.152C180.777 102.152 180.119 87.7827 179.107 82.7231C157.25 160.437 105.238 131.801 81.9642 107.768Z" fill="#B1D9FD"/>
</svg>
