<svg width="247" height="166" viewBox="0 0 247 166" fill="none" xmlns="http://www.w3.org/2000/svg">
<path d="M243.14 69.119C253.144 85.6484 237.34 99.2048 228.187 103.917C229.546 105.903 233.116 117.068 219.706 127.065C205.804 137.429 188.782 131.494 181.427 126.09C182.524 128.812 181.792 136.525 170.089 145.595C158.386 154.665 141.806 150.314 134.979 147.005C131.848 153.148 121.453 165.435 104.921 165.435C88.3894 165.435 78.8044 153.148 76.0783 147.005C73.4558 147.809 66.5357 149.416 59.8355 149.416C41.5622 149.416 35.0905 130.001 33.9484 124.798C30.6998 125.915 24.2196 125.771 21.3855 125.559C15.8444 125.517 3.8992 121.092 0.447588 103.733C-3.00402 86.3733 14.3539 78.0594 23.4643 76.0724C22.3789 72.0406 19.6217 55.4802 29.9774 44.5931C44.4921 29.3341 62.4228 33.29 69.5738 37.1753C68.7526 33.1959 69.7254 23.1145 80.1858 14.625C92.7685 3.21816 110.875 8.6847 118.356 12.8438C121.981 8.58458 132.003 0.0660947 143.095 0.0660947C163.322 -1.23883 172.547 17.1028 174.631 26.4367C176.897 26.346 183.331 26.7085 190.943 28.8835C205.732 33.0158 211.06 49.2729 211.876 56.8849C218.129 54.0757 233.135 52.5896 243.14 69.119Z" fill="#FEFFFF"/>
<mask id="mask0_569_544" style="mask-type:alpha" maskUnits="userSpaceOnUse" x="0" y="0" width="247" height="166">
<path d="M243.14 69.119C253.144 85.6484 237.34 99.2048 228.187 103.917C229.546 105.903 233.116 117.068 219.706 127.065C205.804 137.429 188.782 131.494 181.427 126.09C182.524 128.812 181.792 136.525 170.089 145.595C158.386 154.665 141.806 150.314 134.979 147.005C131.848 153.148 121.453 165.435 104.921 165.435C88.3894 165.435 78.8044 153.148 76.0783 147.005C73.4558 147.809 66.5357 149.416 59.8355 149.416C41.5622 149.416 35.0905 130.001 33.9484 124.798C30.6998 125.915 24.2196 125.771 21.3855 125.559C15.8444 125.517 3.8992 121.092 0.447588 103.733C-3.00402 86.3733 14.3539 78.0594 23.4643 76.0724C22.3789 72.0406 19.6217 55.4802 29.9774 44.5931C44.4921 29.3341 62.4228 33.29 69.5738 37.1753C68.7526 33.1959 69.7254 23.1145 80.1858 14.625C92.7685 3.21816 110.875 8.6847 118.356 12.8438C121.981 8.58458 132.003 0.0660947 143.095 0.0660947C163.322 -1.23883 172.547 17.1028 174.631 26.4367C176.897 26.346 183.331 26.7085 190.943 28.8835C205.732 33.0158 211.06 49.2729 211.876 56.8849C218.129 54.0757 233.135 52.5896 243.14 69.119Z" fill="#FEFFFF"/>
</mask>
<g mask="url(#mask0_569_544)">
<path d="M34.0015 85.105C13.3206 83.0659 6.32986 100.397 5.41957 109.318C0.361595 112.967 -9.6779 121.28 -9.37208 125.333C-8.9898 130.4 15.858 167.383 21.5921 173.117C27.3263 178.851 85.432 213.256 93.3497 212.874C99.6839 212.568 192.65 179.106 238.342 162.414C248.569 134.758 265.031 80.9667 249.061 87.0448C233.091 93.123 218.868 89.5774 213.754 87.0448C213.555 88.2366 212.443 92.2888 209.582 98.9629C199.929 116.721 184.505 120.564 178 120.266C184.108 114.903 194.953 98.6947 189.471 76.7656C183.988 54.8364 162.429 50.9778 152.334 51.7897C138.316 53.0641 113.997 61.9143 111.919 92.5688C107.841 72.7617 113.618 60.7707 117.016 57.2512C114.468 55.0059 106.166 50.5152 93.3497 50.5152C61.0176 49.6414 51.1141 78.1868 50.2038 92.5688C48.444 90.0809 42.7398 85.105 34.0015 85.105Z" fill="#E7F5FE"/>
<path d="M35.9348 112.242C28.8205 122.123 16.2825 122.068 10.9028 120.806C20.4047 130.717 30.2111 127.06 33.9265 123.993C33.8484 124.345 34.1408 126.265 35.9348 131.137C47.0046 146.254 66.3817 143.399 74.6865 140.082C77.0719 146.284 86.2792 158.802 104.026 159.26C121.773 159.718 131.744 147.62 134.51 141.513L136.228 142.372C140.999 146.188 153.774 151.531 166.712 142.372C148.508 146.036 134.961 130.838 130.464 122.782C126.347 127.063 118.442 127.557 112.348 122.782C105.102 132.663 94.9468 134.145 90.7747 133.651C70.3539 134.639 67.7189 113.724 63.1078 101.702C60.9998 115.667 63.9861 125.966 65.7427 129.369C42.1928 137.933 37.417 122.452 35.9348 112.242Z" fill="#AFD8FD"/>
</g>
</svg>
