<svg width="948" height="482" viewBox="0 0 948 482" fill="none" xmlns="http://www.w3.org/2000/svg">
<path d="M21.1013 369.555C-13.0918 350.367 1.82604 308.573 13.5591 290.075L64.4222 257.999L276.492 225.414L579.448 214.08L936.988 250.011C945.364 274.467 965.204 326.782 915.259 378.498C877.773 422.594 810.754 411.329 781.931 400.185C771.832 437.293 757.1 471.608 707.513 480.544C667.843 487.692 639.429 464.144 630.18 451.477C628.606 451.845 622.506 453.354 610.7 456.446C571.03 459.979 538.677 442.004 527.46 432.574C524.443 440.099 485.724 480.544 442.48 480.544C401.449 482.049 376.776 456.089 369.569 442.92C364.708 448.094 347.645 461.074 318.279 471.608C260.754 493.054 222.237 441.039 210.169 412.351C208.66 416.741 195.788 426.93 156.365 432.574C116.943 438.218 93.6782 404.827 86.9737 387.426C79.2634 389.464 55.2945 388.743 21.1013 369.555Z" fill="#E4F2FD"/>
<path d="M21.1013 366.634C-13.0918 350.043 1.82604 313.906 13.5591 297.912L64.4222 270.177L276.492 242.002L579.448 232.203L936.988 263.271C945.364 284.416 965.204 329.651 915.259 374.366C877.773 412.494 810.754 402.754 781.931 393.118C771.832 425.203 757.1 454.874 707.513 462.6C667.843 468.781 639.429 448.42 630.18 437.467C628.606 437.786 622.506 439.09 610.7 441.764C571.03 444.819 538.677 429.276 527.46 421.123C524.443 427.629 485.724 462.6 442.48 462.6C401.449 463.902 376.776 441.455 369.569 430.069C364.708 434.542 347.645 445.766 318.279 454.874C260.754 473.417 222.237 428.443 210.169 403.638C208.66 407.433 195.788 416.244 156.365 421.123C116.943 426.003 93.6782 397.132 86.9737 382.086C79.2634 383.848 55.2945 383.225 21.1013 366.634Z" fill="#B1D9FD"/>
<path d="M482.081 0.00650915C429.235 -0.627103 401.344 45.1551 394.004 68.1254C388.134 65.0637 371.536 57.955 352.105 54.0139C309.498 51.3864 284.995 82.6603 278.07 98.6257C271.632 96.8923 252.552 94.0276 227.737 96.4361C186.066 104.099 159.993 139.825 152.166 156.73C149.729 154.223 141.403 153.976 137.545 154.166C122.924 154.546 86.0665 157.585 61.6982 184.935C36.1114 208.637 41.7993 245.474 47.8415 260.929L38.4299 267.557C12.571 286.322 26.1738 316.465 42.8889 327.033C54.3025 334.249 79.7451 330.039 91.0397 327.033C91.9314 330.42 99.7782 337.611 124.032 339.279C158.986 338.945 173.372 310.507 176.196 296.329C208.297 310.09 234.601 308.422 268.931 287.156C266.435 318.513 221.226 330.8 198.934 333.024C196.407 337.889 200.806 352.447 238.614 371.762C276.421 391.076 329.935 379.809 351.966 371.762C416.215 389.834 466.937 368.147 478.531 352.786C433.606 359.563 392.061 345.557 375.637 327.033C444.233 335.165 450.03 322.515 496.405 303.087C524.616 346.46 579.655 342.545 603.647 335.165C601.554 337.575 598.623 345.679 603.647 358.819C624.516 405.934 675.281 393.03 698.055 380.689C701.135 383.467 711.916 389.579 730.398 391.801C753.501 394.579 787.165 381.924 795.431 358.819C855.73 375.928 900.163 354.858 914.843 342.185C932.063 325.023 961.422 278.977 941.096 232.086C920.771 185.195 852.455 180.865 820.838 184.561C820.838 175.584 827.613 148.125 786.962 121.195C759.862 92.0462 709.048 109.05 687.029 121.195C690.699 117.498 690.755 102.66 661.622 72.8779C632.489 43.0957 586.249 50.4356 566.77 57.8284C560.56 38.8184 534.927 0.640121 482.081 0.00650915Z" fill="white"/>
<mask id="mask0_363_32" style="mask-type:alpha" maskUnits="userSpaceOnUse" x="24" y="0" width="924" height="393">
<path d="M482.081 0.00650915C429.235 -0.627102 401.344 45.1551 394.004 68.1254C388.134 65.0637 371.536 57.955 352.105 54.0139C309.498 51.3864 284.995 82.6603 278.07 98.6257C271.632 96.8923 252.552 94.0276 227.737 96.4361C186.066 104.099 159.993 139.825 152.166 156.73C149.729 154.223 141.403 153.976 137.545 154.166C122.924 154.546 86.0665 157.585 61.6982 184.935C36.1114 208.637 41.7992 245.474 47.8415 260.929L38.4299 267.557C12.571 286.322 26.1738 316.465 42.8889 327.033C54.3025 334.249 79.7451 330.039 91.0397 327.033C91.9314 330.42 99.7782 337.611 124.032 339.279C158.986 338.945 173.372 310.507 176.196 296.329C208.297 310.09 234.601 308.422 268.931 287.155C266.435 318.513 221.226 330.8 198.934 333.024C196.407 337.889 200.806 352.447 238.614 371.762C276.421 391.076 329.935 379.809 351.966 371.762C416.215 389.834 466.937 368.147 478.531 352.786C433.606 359.563 392.061 345.557 375.637 327.033C444.233 335.165 450.03 322.515 496.405 303.087C524.616 346.46 579.655 342.545 603.647 335.165C601.554 337.575 598.623 345.679 603.647 358.819C624.516 405.934 675.281 393.03 698.054 380.689C701.135 383.467 711.916 389.579 730.398 391.801C753.501 394.579 787.165 381.924 795.431 358.819C855.73 375.928 900.163 354.858 914.843 342.185C932.063 325.023 961.422 278.977 941.096 232.086C920.771 185.195 888.377 145.87 856.759 149.566C856.759 140.589 832.568 115.189 786.962 121.195C759.862 92.0462 709.048 109.05 687.029 121.195C690.699 117.498 690.755 102.66 661.622 72.8779C632.489 43.0957 586.249 50.4356 566.77 57.8284C560.56 38.8184 534.927 0.640121 482.081 0.00650915Z" fill="white"/>
</mask>
<g mask="url(#mask0_363_32)">
<path d="M118.825 233.233C94.7756 204.518 46.5485 199.333 25.4412 200.33L-71.3164 220.99L-28.8061 364.367L161.239 422.835L505.152 455.578L793.78 397.109L958.926 324.608L948.807 226.136L921.431 198.509C878.05 139.835 816.981 127.913 797.484 147.677C788.458 156.827 748.291 127.711 721.374 131.618C785.232 145.854 796.252 197.131 793.78 220.99C787.298 210.886 775.685 201.928 752.458 198.509C734.093 192.042 715.886 198.094 709.079 201.928C710.347 198.765 708.064 188.761 688.786 174.053C669.509 159.344 638.966 163.054 626.104 166.748C621.745 161.143 606.926 148.608 582.518 143.308C552.007 136.684 530.214 146.365 505.152 166.748C479.872 129.244 434.196 121.995 414.519 123.059C364.138 121.808 323.567 150.58 304.841 191.862C312.866 140.155 324.904 123.893 394.01 95.5381C314.204 95.9551 281.657 129.314 243.551 175.205C171.913 175.205 165.517 191.955 118.825 233.233Z" fill="#E7F5FE"/>
</g>
</svg>
