<svg width="31" height="22" viewBox="0 0 31 22" fill="none" xmlns="http://www.w3.org/2000/svg">
<path d="M25.6875 2.09571C23.7384 1.24578 21.6543 0.628088 19.4755 0.276367C19.2079 0.72726 18.8953 1.33372 18.6797 1.81616C16.3636 1.49152 14.0687 1.49152 11.7952 1.81616C11.5797 1.33372 11.2599 0.72726 10.99 0.276367C8.80878 0.628088 6.72232 1.24805 4.77322 2.10021C0.841877 7.63707 -0.223846 13.0364 0.309017 18.3591C2.91649 20.1739 5.44345 21.2763 7.92776 21.9977C8.54115 21.2109 9.08821 20.3745 9.55949 19.493C8.66192 19.1752 7.80224 18.7829 6.98995 18.3275C7.20544 18.1787 7.41624 18.0232 7.61989 17.8631C12.5743 20.0228 17.9574 20.0228 22.8527 17.8631C23.0587 18.0232 23.2694 18.1787 23.4826 18.3275C22.6679 18.7851 21.8059 19.1774 20.9083 19.4953C21.3796 20.3745 21.9243 21.2132 22.54 21.9999C25.0267 21.2785 27.556 20.1761 30.1635 18.3591C30.7888 12.1887 29.0954 6.839 25.6875 2.09571ZM10.2345 15.0857C8.7472 15.0857 7.52751 13.7916 7.52751 12.2158C7.52751 10.6399 8.72115 9.34366 10.2345 9.34366C11.7478 9.34366 12.9675 10.6377 12.9414 12.2158C12.9438 13.7916 11.7478 15.0857 10.2345 15.0857ZM20.2381 15.0857C18.7508 15.0857 17.5311 13.7916 17.5311 12.2158C17.5311 10.6399 18.7247 9.34366 20.2381 9.34366C21.7514 9.34366 22.9711 10.6377 22.945 12.2158C22.945 13.7916 21.7514 15.0857 20.2381 15.0857Z" fill="#0051B7"/>
</svg>
