<svg width="970" height="944" viewBox="0 0 970 944" fill="none" xmlns="http://www.w3.org/2000/svg">
<path fill-rule="evenodd" clip-rule="evenodd" d="M504.087 22.2535L606.305 101.824V128.527L651.612 158.518V396.052H661.534V257.565L664.599 253.162L685.419 246.95L694.84 223.302L836.401 176.736L842.06 174.855L914.567 288.305L913.194 305.689C916.473 310.868 920.971 319.641 920.971 319.641V396.037L953.776 597.036L940.026 602.436H969.824L798.209 801.388L772.936 896.606L731.928 937.963H618.34L645.549 820.066L628.753 760.246H570.126L526.121 937.656H412.83L400.767 897.694L437.652 760.142H417.419L376.166 937.656H262.914L254.352 927.288C245.336 932.603 219.427 943.234 187.928 943.234C156.429 943.234 132.227 931.652 124.064 925.86C109.154 915.181 75.7972 891.758 61.6468 883.504C47.4964 875.249 36.5512 864.795 32.8474 860.6C32.1221 859.648 31.2649 858.581 30.3056 857.387C18.4611 842.646 -8.96019 808.518 4.05716 732.032C13.5433 701.438 30.376 654.996 85.3359 622.142V621.232L27.2822 596.795L55.2296 493.523L10.4962 475.582L29.8315 404.071V319.243L39.8865 302.744V289.843L113.37 175.006L260.061 224.766L269.033 242.328L294.02 249.638L295.024 396.018H304.22V158.441L348.384 127.756V99.8123L477.102 0.925781L504.087 22.2535ZM290.699 643.923L297.926 617.449L298.099 617.033H266.812C274.158 623.927 287.059 638.052 290.699 643.923Z" fill="#162D57"/>
<path d="M116.483 216.907L281.712 261.227V395.775H261.614V276.099L238.948 270.409V395.775H213.74V263.749L191.43 258.92V395.775H166.639V252.41L143.816 246.981V395.775H116.483V216.907Z" fill="url(#paint0_linear_503_62)"/>
<path d="M116.483 395.775V216.907L39.8184 321.116V395.775H52.7239V327.16L60.8589 317.542V395.775H72.9197V299.49L81.0617 289.981V395.775H92.9985V271.81L101.5 261.988V395.775H116.483Z" fill="url(#paint1_linear_503_62)"/>
<path d="M49.7059 307.965V294.948L116.483 192.037V217.222L49.7059 307.965Z" fill="url(#paint2_linear_503_62)"/>
<path d="M116.483 217.937L116.483 192.037L248.318 235.922L252.275 242.397V254.088L116.483 217.937Z" fill="url(#paint3_linear_503_62)"/>
<path d="M670.543 260.703V395.271H693.493V276.328L714.311 270.637V397.289C722.935 397.354 735.548 401.274 740.776 403.226V264.478L762.344 259.294V416.278C773.279 425.113 779.156 440.519 780.727 447.118H781.872L788.201 436.142V252.852L809.516 247.466V414.898L836.619 399.866V216.066L670.543 260.703Z" fill="url(#paint4_linear_503_62)"/>
<path d="M912.368 322.479L836.617 216.059L836.617 399.865L846.609 394.118H852.087V261.79L860.021 270.446V394.118H872.139V288.622L880.65 298.865V394.118H892.214V315.657L893.033 316.778L900.222 325.949V394.118H912.368V322.479Z" fill="url(#paint5_linear_503_62)"/>
<path d="M696.098 242.364V253.916L836.617 216.074V185.094L700.653 229.673L696.098 242.364Z" fill="url(#paint6_linear_503_62)"/>
<path d="M836.619 215.994V185.152L907.187 291.078L905.452 312.947L836.619 215.994Z" fill="url(#paint7_linear_503_62)"/>
<path d="M315.613 164.383V395.775H341.432V171.702L360.646 160.037V395.775H386.721V143.111L405.705 131.446V395.775H431.552V114.062L450.536 102.397V395.775H477.298V60.082L315.613 164.383Z" fill="url(#paint8_linear_503_62)"/>
<path d="M504.133 100.394V395.776H477.29V60.082L640.643 166.231V167.766V171.362V395.776H614.085V171.362L593.971 159.008V420.255C590.353 415.119 575.742 406.752 568.888 403.21V142.212L548.794 130.242V397.764C546.417 396.227 531.34 395.995 524.098 395.776V113.305L504.133 100.394Z" fill="url(#paint9_linear_503_62)"/>
<path d="M477.298 60.0771V17.1289L361.291 103.316V135.47L477.298 60.0771Z" fill="url(#paint10_linear_503_62)"/>
<path d="M477.298 60.3155C477.298 46.0818 477.298 17.9206 477.298 17.1289L594.652 106.809V136.434L477.298 60.3155Z" fill="url(#paint11_linear_503_62)"/>
<path d="M22.6328 467.006L38.6904 409.354H205.856L190.324 467.006H140.043L107.926 588.366H40.007L72.6503 467.006H22.6328Z" fill="white"/>
<path d="M276.46 409.354H209.498L160.766 588.642H228.097L276.46 409.354Z" fill="white"/>
<path d="M439.019 409.354H283.274L235.405 589.066H392.391L407.247 531.885H317.725L319.859 524.46H402.271L416.099 472.796H333.282L334.713 466.032H423.778L439.019 409.354Z" fill="white"/>
<path d="M396.635 588.149L444.652 409.162L538.156 410.333C546.326 410.537 566.835 414.959 583.504 431.015C599.682 446.58 596.727 474.871 593.227 487.071C587.878 508.826 568.263 523.002 550.965 530.696L570.547 578.305H571.382L617.414 408.907H684.77C686.585 408.831 696.202 409.383 720.154 412.196C744.106 415.008 757.489 431.168 761.187 438.896C772.974 459.26 765.705 485.669 761.975 495.573C756.661 509.677 741.495 522.814 722.874 530.29L738.525 567.521L848.489 407.494H912.023L939.357 588.664H868.4L865.274 565.816H813.929L799.2 588.664H674.381L655.548 540.388H649.129L636.468 588.664H502.313L483.407 540.368H477.241L464.236 588.149H396.635Z" fill="white"/>
<mask id="mask0_503_62" style="mask-type:alpha" maskUnits="userSpaceOnUse" x="22" y="407" width="918" height="183">
<path d="M22.6328 467.006L38.6904 409.354H205.856L190.324 467.006H140.043L107.926 588.366H40.007L72.6503 467.006H22.6328Z" fill="#EBF7FF"/>
<path d="M276.46 409.354H209.498L160.766 588.642H228.097L276.46 409.354Z" fill="#EBF7FF"/>
<path d="M439.019 409.354H283.274L235.405 589.066H392.391L407.247 531.885H317.725L319.859 524.46H402.271L416.099 472.796H333.282L334.713 466.032H423.778L439.019 409.354Z" fill="#EBF7FF"/>
<path d="M396.635 588.149L444.652 409.162L538.156 410.333C546.326 410.537 566.835 414.959 583.504 431.015C599.682 446.58 596.727 474.871 593.227 487.071C587.878 508.826 568.263 523.002 550.965 530.696L570.547 578.305H571.382L617.414 408.907H684.77C686.585 408.831 696.202 409.383 720.154 412.196C744.106 415.008 757.489 431.168 761.187 438.896C772.974 459.26 765.705 485.669 761.975 495.573C756.661 509.677 741.495 522.814 722.874 530.29L738.525 567.521L848.489 407.494H912.023L939.357 588.664H868.4L865.274 565.816H813.929L799.2 588.664H674.381L655.548 540.388H649.129L636.468 588.664H502.313L483.407 540.368H477.241L464.236 588.149H396.635Z" fill="#EBF7FF"/>
</mask>
<g mask="url(#mask0_503_62)">
<path d="M929.784 498.141H60.6259L36.6914 589.067H945.038L929.784 498.141Z" fill="#003EC0"/>
</g>
<path d="M30.0361 462.196L42.7461 414.156H199.79L185.572 462.196H135.809L103.065 582.403H47.2696L79.1525 462.196H30.0361Z" fill="url(#paint12_linear_503_62)"/>
<mask id="mask1_503_62" style="mask-type:alpha" maskUnits="userSpaceOnUse" x="30" y="414" width="170" height="169">
<path d="M30.0361 462.196L42.7461 414.156H199.79L185.572 462.196H135.809L103.065 582.403H47.2696L79.1525 462.196H30.0361Z" fill="url(#paint13_linear_503_62)"/>
</mask>
<g mask="url(#mask1_503_62)">
<path d="M65.0164 259.563L369.849 580.067L369.994 579.93L65.1613 259.425L65.0164 259.563ZM12.8401 327.584L317.673 648.088L317.818 647.95L12.9851 327.446L12.8401 327.584ZM-39.3364 395.603L265.497 716.108L265.642 715.97L-39.1915 395.465L-39.3364 395.603ZM60.6678 265.231L365.501 585.735L365.646 585.598L60.8127 265.093L60.6678 265.231ZM8.49126 333.251L313.324 653.755L313.469 653.617L8.63617 333.113L8.49126 333.251ZM-43.6833 401.273L261.15 721.777L261.295 721.64L-43.5384 401.135L-43.6833 401.273ZM56.3199 270.9L361.153 591.404L361.298 591.267L56.4648 270.762L56.3199 270.9ZM4.14385 338.92L308.977 659.425L309.122 659.287L4.28876 338.783L4.14385 338.92ZM-48.0324 406.94L256.801 727.444L256.946 727.307L-47.8875 406.802L-48.0324 406.94ZM51.972 276.568L356.805 597.072L356.95 596.935L52.1169 276.43L51.972 276.568ZM-0.203804 344.588L304.629 665.093L304.774 664.955L-0.0588913 344.451L-0.203804 344.588ZM-52.3796 412.609L252.453 733.113L252.598 732.976L-52.2347 412.471L-52.3796 412.609ZM43.2764 287.905L348.109 608.409L348.254 608.271L43.4213 287.767L43.2764 287.905ZM-8.89986 355.925L295.933 676.43L296.078 676.292L-8.75494 355.788L-8.89986 355.925ZM-61.0756 423.946L243.757 744.45L243.902 744.312L-60.9307 423.808L-61.0756 423.946ZM38.928 293.573L343.761 614.077L343.906 613.939L39.0729 293.435L38.928 293.573ZM-13.2473 361.593L291.586 682.098L291.731 681.96L-13.1023 361.455L-13.2473 361.593ZM-65.423 429.614L239.41 750.118L239.555 749.98L-65.2781 429.476L-65.423 429.614ZM47.6243 282.236L352.457 602.74L352.602 602.603L47.7692 282.098L47.6243 282.236ZM-4.55195 350.256L300.281 670.761L300.426 670.623L-4.40704 350.119L-4.55195 350.256ZM-56.7272 418.278L248.106 738.782L248.251 738.645L-56.5823 418.14L-56.7272 418.278ZM34.5804 299.241L339.413 619.745L339.558 619.607L34.7253 299.103L34.5804 299.241ZM-17.5959 367.261L287.237 687.766L287.382 687.628L-17.451 367.123L-17.5959 367.261ZM-69.7717 435.283L235.061 755.787L235.206 755.649L-69.6268 435.145L-69.7717 435.283ZM25.8841 310.578L330.717 631.082L330.862 630.944L26.029 310.44L25.8841 310.578ZM-26.2924 378.598L278.541 699.103L278.686 698.965L-26.1475 378.46L-26.2924 378.598ZM-78.467 446.619L226.366 767.123L226.511 766.985L-78.3221 446.481L-78.467 446.619ZM30.2317 304.91L335.065 625.414L335.21 625.276L30.3767 304.772L30.2317 304.91ZM-21.9436 372.93L282.889 693.435L283.034 693.297L-21.7986 372.792L-21.9436 372.93ZM-74.1193 440.951L230.714 761.455L230.859 761.317L-73.9744 440.813L-74.1193 440.951ZM21.5364 316.247L326.369 636.751L326.514 636.613L21.6813 316.109L21.5364 316.247ZM-30.6398 384.266L274.193 704.771L274.338 704.633L-30.4949 384.128L-30.6398 384.266ZM-82.8156 452.288L222.017 772.792L222.162 772.654L-82.6707 452.15L-82.8156 452.288ZM17.1878 321.915L322.021 642.419L322.166 642.281L17.3327 321.777L17.1878 321.915ZM-34.987 389.935L269.846 710.44L269.991 710.302L-34.8421 389.797L-34.987 389.935ZM-87.1633 457.956L217.67 778.46L217.815 778.322L-87.0184 457.818L-87.1633 457.956Z" fill="#5A5A5A"/>
</g>
<path d="M271.353 413.523H213.073L167.04 584.64H225.288L271.353 413.523Z" fill="url(#paint14_linear_503_62)"/>
<mask id="mask2_503_62" style="mask-type:alpha" maskUnits="userSpaceOnUse" x="167" y="413" width="105" height="172">
<path d="M271.353 413.523H213.073L167.04 584.64H225.288L271.353 413.523Z" fill="url(#paint15_linear_503_62)"/>
</mask>
<g mask="url(#mask2_503_62)">
<path d="M132.95 183.169L437.783 503.673L437.928 503.535L133.095 183.031L132.95 183.169ZM80.7737 251.189L385.607 571.693L385.752 571.556L80.9186 251.051L80.7737 251.189ZM28.5972 319.209L333.43 639.713L333.575 639.575L28.7421 319.071L28.5972 319.209ZM128.601 188.836L433.434 509.341L433.579 509.203L128.746 188.699L128.601 188.836ZM76.4249 256.856L381.258 577.36L381.403 577.223L76.5698 256.718L76.4249 256.856ZM24.2503 324.878L329.083 645.383L329.228 645.245L24.3952 324.741L24.2503 324.878ZM124.253 194.505L429.087 515.01L429.231 514.872L124.398 194.368L124.253 194.505ZM72.0774 262.526L376.91 583.03L377.055 582.893L72.2224 262.388L72.0774 262.526ZM19.9012 330.545L324.734 651.05L324.879 650.912L20.0461 330.408L19.9012 330.545ZM119.906 200.173L424.739 520.678L424.884 520.54L120.05 200.036L119.906 200.173ZM67.7298 268.194L372.563 588.698L372.708 588.561L67.8747 268.056L67.7298 268.194ZM15.554 336.214L320.387 656.719L320.532 656.581L15.6989 336.077L15.554 336.214ZM111.21 211.51L416.043 532.015L416.188 531.877L111.355 211.372L111.21 211.51ZM59.0337 279.531L363.867 600.035L364.012 599.897L59.1786 279.393L59.0337 279.531ZM6.85795 347.551L311.691 668.056L311.836 667.918L7.00287 347.413L6.85795 347.551ZM106.862 217.178L411.695 537.683L411.84 537.545L107.007 217.04L106.862 217.178ZM54.6863 285.199L359.519 605.703L359.664 605.565L54.8312 285.061L54.6863 285.199ZM2.51055 353.219L307.344 673.724L307.488 673.586L2.65547 353.081L2.51055 353.219ZM115.558 205.841L420.391 526.346L420.536 526.208L115.703 205.704L115.558 205.841ZM63.3816 273.862L368.215 594.366L368.36 594.228L63.5266 273.724L63.3816 273.862ZM11.2063 341.883L316.039 662.388L316.184 662.25L11.3513 341.746L11.2063 341.883ZM102.514 222.846L407.347 543.351L407.492 543.213L102.659 222.708L102.514 222.846ZM50.3377 290.867L355.171 611.371L355.316 611.233L50.4826 290.729L50.3377 290.867ZM-1.83809 358.888L302.995 679.393L303.14 679.255L-1.69316 358.75L-1.83809 358.888ZM93.8177 234.183L398.651 554.688L398.796 554.55L93.9626 234.045L93.8177 234.183ZM41.6412 302.204L346.474 622.708L346.619 622.57L41.7861 302.066L41.6412 302.204ZM-10.5334 370.224L294.3 690.729L294.445 690.591L-10.3885 370.086L-10.5334 370.224ZM98.1653 228.515L402.998 549.02L403.143 548.882L98.3102 228.377L98.1653 228.515ZM45.99 296.536L350.823 617.04L350.968 616.902L46.135 296.398L45.99 296.536ZM-6.18574 364.556L298.647 685.061L298.792 684.923L-6.04082 364.418L-6.18574 364.556ZM89.47 239.852L394.303 560.357L394.448 560.219L89.6149 239.714L89.47 239.852ZM37.2938 307.872L342.127 628.376L342.272 628.238L37.4387 307.734L37.2938 307.872ZM-14.882 375.893L289.951 696.398L290.096 696.26L-14.7371 375.755L-14.882 375.893ZM85.1214 245.52L389.954 566.025L390.099 565.887L85.2663 245.382L85.1214 245.52ZM32.9466 313.541L337.78 634.045L337.925 633.907L33.0915 313.403L32.9466 313.541ZM-19.2297 381.561L285.603 702.066L285.748 701.928L-19.0848 381.423L-19.2297 381.561Z" fill="#5A5A5A"/>
</g>
<path d="M241.301 583.49L287.608 413.59H433.477L420.895 460.947H332.543L328.726 476.214H410.858L399.125 519.189H317.982L312.328 536.152H400.963L387.94 583.49H241.301Z" fill="url(#paint16_linear_503_62)"/>
<mask id="mask3_503_62" style="mask-type:alpha" maskUnits="userSpaceOnUse" x="241" y="413" width="193" height="171">
<path d="M241.301 583.49L287.608 413.59H433.477L420.895 460.947H332.543L328.726 476.214H410.858L399.125 519.189H317.982L312.328 536.152H400.963L387.94 583.49H241.301Z" fill="url(#paint17_linear_503_62)"/>
</mask>
<g mask="url(#mask3_503_62)">
<path d="M206.949 183.167L511.782 503.671L511.927 503.533L207.094 183.029L206.949 183.167ZM154.773 251.187L459.606 571.691L459.751 571.554L154.918 251.049L154.773 251.187ZM102.596 319.207L407.429 639.711L407.574 639.573L102.741 319.069L102.596 319.207ZM202.6 188.835L507.433 509.339L507.578 509.201L202.745 188.697L202.6 188.835ZM150.424 256.854L455.257 577.358L455.402 577.221L150.569 256.716L150.424 256.854ZM98.2493 324.877L403.082 645.381L403.227 645.243L98.3942 324.739L98.2493 324.877ZM198.252 194.503L503.086 515.008L503.23 514.87L198.397 194.366L198.252 194.503ZM146.076 262.524L450.91 583.028L451.054 582.891L146.221 262.386L146.076 262.524ZM93.9002 330.544L398.733 651.048L398.878 650.91L94.0451 330.406L93.9002 330.544ZM193.905 200.171L498.738 520.676L498.883 520.538L194.05 200.034L193.905 200.171ZM141.729 268.192L446.562 588.696L446.707 588.559L141.874 268.054L141.729 268.192ZM89.553 336.212L394.386 656.717L394.531 656.579L89.6979 336.075L89.553 336.212ZM185.209 211.508L490.042 532.013L490.187 531.875L185.354 211.371L185.209 211.508ZM133.033 279.529L437.866 600.033L438.011 599.895L133.178 279.391L133.033 279.529ZM80.857 347.549L385.69 668.054L385.835 667.916L81.0019 347.412L80.857 347.549ZM180.861 217.176L485.694 537.681L485.839 537.543L181.006 217.039L180.861 217.176ZM128.685 285.197L433.518 605.701L433.663 605.563L128.83 285.059L128.685 285.197ZM76.5096 353.217L381.343 673.722L381.488 673.584L76.6545 353.08L76.5096 353.217ZM189.557 205.839L494.39 526.344L494.535 526.206L189.702 205.702L189.557 205.839ZM137.381 273.86L442.214 594.364L442.359 594.227L137.526 273.722L137.381 273.86ZM85.2054 341.881L390.038 662.386L390.183 662.248L85.3503 341.744L85.2054 341.881ZM176.513 222.844L481.346 543.349L481.491 543.211L176.658 222.706L176.513 222.844ZM124.337 290.865L429.17 611.369L429.315 611.231L124.482 290.727L124.337 290.865ZM72.1609 358.886L376.994 679.391L377.139 679.253L72.3059 358.748L72.1609 358.886ZM167.817 234.181L472.65 554.686L472.795 554.548L167.962 234.043L167.817 234.181ZM115.64 302.202L420.473 622.706L420.618 622.568L115.785 302.064L115.64 302.202ZM63.4656 370.222L368.299 690.727L368.444 690.589L63.6105 370.084L63.4656 370.222ZM172.164 228.513L476.997 549.018L477.142 548.88L172.309 228.375L172.164 228.513ZM119.989 296.534L424.822 617.038L424.967 616.9L120.134 296.396L119.989 296.534ZM67.8133 364.554L372.646 685.059L372.791 684.921L67.9582 364.416L67.8133 364.554ZM163.469 239.85L468.302 560.355L468.447 560.217L163.614 239.712L163.469 239.85ZM111.293 307.87L416.126 628.374L416.271 628.236L111.438 307.732L111.293 307.87ZM59.117 375.891L363.95 696.396L364.095 696.258L59.2619 375.753L59.117 375.891ZM159.12 245.518L463.953 566.023L464.098 565.885L159.265 245.38L159.12 245.518ZM106.946 313.539L411.779 634.043L411.924 633.905L107.091 313.401L106.946 313.539ZM54.7693 381.559L359.602 702.064L359.747 701.926L54.9143 381.421L54.7693 381.559Z" fill="#5A5A5A"/>
</g>
<path d="M203.727 736.713L292.521 697.82C286.023 662.906 267.69 644.804 254.588 635.528C203.887 599.631 148.522 614.638 120.04 623.189C46.7694 649.345 21.4412 709.938 15.6781 753.04C9.62679 821.722 38.8252 845.018 49.788 856.175C59.123 865.675 88.0042 885.263 128.85 887.613C202.671 893.495 244.161 850.695 259.126 832.642L245.907 882.52H344.782L415.596 618.757H316.655L261.512 821.54L194.388 769.748C170.968 804.728 135.838 804.127 123.378 785.962C103.711 749.781 132.986 713.3 156.028 705.341C188.904 696.976 200.609 719.284 203.727 736.713Z" fill="white"/>
<path d="M466.432 704.114H393.942L416.899 618.48H738.679L756.839 691.372L813.334 618.48H932.714L781.135 794.518L757.581 882.297H658.754L685.974 779.876L649.591 666.451L639.014 704.114H566.524L518.026 882.371H419.224L466.432 704.114Z" fill="white"/>
<mask id="mask4_503_62" style="mask-type:alpha" maskUnits="userSpaceOnUse" x="14" y="612" width="919" height="277">
<path d="M203.727 736.713L292.521 697.82C286.023 662.906 267.69 644.804 254.588 635.528C203.887 599.631 148.522 614.638 120.04 623.189C46.7694 649.345 21.4412 709.938 15.6781 753.04C9.62679 821.722 38.8252 845.018 49.788 856.175C59.123 865.675 88.0042 885.263 128.85 887.613C202.671 893.495 244.161 850.695 259.126 832.642L245.907 882.52H344.782L415.596 618.757H316.655L261.512 821.54L194.388 769.748C170.968 804.728 135.838 804.127 123.378 785.962C103.711 749.781 132.986 713.3 156.028 705.341C188.904 696.976 200.609 719.284 203.727 736.713Z" fill="white"/>
<path d="M466.432 704.114H393.942L416.899 618.48H738.679L756.839 691.372L813.334 618.48H932.714L781.135 794.518L757.581 882.297H658.754L685.974 779.876L649.591 666.451L639.014 704.114H566.524L518.026 882.371H419.224L466.432 704.114Z" fill="white"/>
</mask>
<g mask="url(#mask4_503_62)">
<rect x="-28.1191" y="760.742" width="1018.23" height="239.667" fill="#003EC0"/>
</g>
<path d="M210.138 725.567L284.214 693.354C284.214 672.87 258.782 643.692 241.86 635.058C221.24 624.538 179.042 611.076 124.258 629.412C69.4734 647.748 40.8699 696.309 33.4161 718.297C13.5716 766.652 25.4306 802.341 34.8141 822.275C43.6025 840.945 70.1455 878.12 138.079 880.486C205.783 880.852 243.637 843.994 254.101 825.519L197.183 781.036C189.849 789.486 173.44 807.6 144.826 805.881C115.288 804.107 109.296 774.96 109.992 760.608C110.687 743.473 122.263 706.52 155.656 697.722C190.517 688.537 206.503 712.458 210.138 725.567Z" fill="url(#paint18_linear_503_62)"/>
<path d="M406.585 625.547H323.665L256.898 874.523H339.173L406.585 625.547Z" fill="url(#paint19_linear_503_62)"/>
<path d="M403.203 697.727L422.335 627.416L422.508 626.57H422.692H732.249L752.168 710.253L817.222 627.147H915.97L773.433 791.387L751.566 875.801H668.285L692.897 779.358L648.384 641.218L632.798 697.727H559.131L511.46 875.409H428.743L476.543 697.727H403.203Z" fill="url(#paint20_linear_503_62)"/>
<mask id="mask5_503_62" style="mask-type:alpha" maskUnits="userSpaceOnUse" x="22" y="620" width="263" height="261">
<path d="M210.138 725.567L284.214 693.354C284.214 672.87 258.782 643.692 241.86 635.058C221.24 624.538 179.042 611.076 124.258 629.412C69.4734 647.748 40.8699 696.309 33.4161 718.297C13.5716 766.652 25.4306 802.341 34.8141 822.275C43.6025 840.945 70.1455 878.12 138.079 880.486C205.783 880.852 243.637 843.994 254.101 825.519L197.183 781.036C189.849 789.486 173.44 807.6 144.826 805.881C115.288 804.107 109.296 774.96 109.992 760.608C110.687 743.473 122.263 706.52 155.656 697.722C190.517 688.537 206.503 712.458 210.138 725.567Z" fill="url(#paint21_linear_503_62)"/>
</mask>
<g mask="url(#mask5_503_62)">
<path d="M44.7116 422.768L399.36 795.649L399.505 795.511L44.8566 422.63L44.7116 422.768ZM-15.9912 501.904L338.657 874.785L338.802 874.648L-15.8463 501.767L-15.9912 501.904ZM-76.6944 581.04L277.954 953.921L278.099 953.783L-76.5495 580.902L-76.6944 581.04ZM39.6523 429.362L394.301 802.243L394.446 802.105L39.7973 429.225L39.6523 429.362ZM-21.0508 508.498L333.598 881.378L333.743 881.241L-20.9059 508.36L-21.0508 508.498ZM-81.7517 587.636L272.897 960.517L273.042 960.379L-81.6068 587.498L-81.7517 587.636ZM34.5939 435.958L389.242 808.839L389.387 808.701L34.7388 435.82L34.5939 435.958ZM-26.1087 515.094L328.54 887.975L328.685 887.837L-25.9637 514.956L-26.1087 515.094ZM-86.8115 594.229L267.837 967.11L267.982 966.972L-86.6666 594.091L-86.8115 594.229ZM29.5355 442.552L384.184 815.433L384.329 815.295L29.6804 442.414L29.5355 442.552ZM-31.1668 521.688L323.482 894.569L323.627 894.431L-31.0219 521.55L-31.1668 521.688ZM-91.8691 600.825L262.779 973.706L262.924 973.568L-91.7242 600.687L-91.8691 600.825ZM19.4189 455.742L374.067 828.622L374.212 828.485L19.5638 455.604L19.4189 455.742ZM-41.284 534.878L313.365 907.759L313.51 907.621L-41.139 534.74L-41.284 534.878ZM-101.986 614.014L252.662 986.895L252.807 986.757L-101.841 613.876L-101.986 614.014ZM14.3599 462.336L369.008 835.217L369.153 835.079L14.5048 462.198L14.3599 462.336ZM-46.3418 541.472L308.307 914.353L308.452 914.215L-46.1969 541.334L-46.3418 541.472ZM-107.044 620.608L247.604 993.489L247.749 993.352L-106.899 620.471L-107.044 620.608ZM24.4773 449.146L379.126 822.027L379.271 821.889L24.6223 449.008L24.4773 449.146ZM-36.2255 528.283L318.423 901.163L318.568 901.026L-36.0806 528.145L-36.2255 528.283ZM-96.9272 607.42L257.721 980.301L257.866 980.163L-96.7823 607.282L-96.9272 607.42ZM9.30177 468.93L363.95 841.811L364.095 841.673L9.44669 468.792L9.30177 468.93ZM-51.4011 548.066L303.247 920.947L303.392 920.809L-51.2562 547.928L-51.4011 548.066ZM-112.103 627.204L242.545 1000.08L242.69 999.947L-111.958 627.066L-112.103 627.204ZM-0.815659 482.12L353.833 855L353.978 854.863L-0.670731 481.982L-0.815659 482.12ZM-61.5188 561.256L293.13 934.137L293.275 933.999L-61.3739 561.118L-61.5188 561.256ZM-122.22 640.392L232.429 1013.27L232.574 1013.14L-122.075 640.254L-122.22 640.392ZM4.24249 475.525L358.891 848.406L359.036 848.268L4.38741 475.387L4.24249 475.525ZM-56.4592 554.662L298.189 927.543L298.334 927.405L-56.3143 554.524L-56.4592 554.662ZM-117.162 633.798L237.487 1006.68L237.632 1006.54L-117.017 633.66L-117.162 633.798ZM-5.8738 488.715L348.775 861.596L348.92 861.458L-5.72888 488.577L-5.8738 488.715ZM-66.5767 567.85L288.072 940.731L288.217 940.593L-66.4317 567.712L-66.5767 567.85ZM-127.279 646.988L227.37 1019.87L227.514 1019.73L-127.134 646.85L-127.279 646.988ZM-10.9331 495.309L343.715 868.19L343.86 868.052L-10.7882 495.171L-10.9331 495.309ZM-71.6342 574.445L283.014 947.326L283.159 947.189L-71.4893 574.308L-71.6342 574.445ZM-132.337 653.582L222.311 1026.46L222.456 1026.32L-132.192 653.444L-132.337 653.582Z" fill="#5A5A5A"/>
</g>
<mask id="mask6_503_62" style="mask-type:alpha" maskUnits="userSpaceOnUse" x="256" y="625" width="151" height="250">
<path d="M406.585 625.547H323.665L256.898 874.523H339.173L406.585 625.547Z" fill="url(#paint22_linear_503_62)"/>
</mask>
<g mask="url(#mask6_503_62)">
<path d="M199.609 399.77L554.258 772.651L554.403 772.513L199.754 399.632L199.609 399.77ZM138.906 478.906L493.555 851.787L493.7 851.65L139.051 478.769L138.906 478.906ZM78.2031 558.042L432.852 930.923L432.997 930.785L78.348 557.904L78.2031 558.042ZM194.55 406.364L549.198 779.245L549.343 779.107L194.695 406.226L194.55 406.364ZM133.847 485.5L488.495 858.38L488.64 858.243L133.992 485.362L133.847 485.5ZM73.1458 564.638L427.794 937.519L427.939 937.381L73.2907 564.5L73.1458 564.638ZM189.491 412.96L544.14 785.841L544.285 785.703L189.636 412.822L189.491 412.96ZM128.789 492.096L483.437 864.977L483.582 864.839L128.934 491.958L128.789 492.096ZM68.0859 571.231L422.734 944.112L422.879 943.974L68.2309 571.093L68.0859 571.231ZM184.433 419.554L539.081 792.435L539.226 792.297L184.578 419.416L184.433 419.554ZM123.731 498.69L478.379 871.571L478.524 871.433L123.876 498.552L123.731 498.69ZM63.0284 577.827L417.677 950.707L417.822 950.57L63.1733 577.689L63.0284 577.827ZM174.316 432.743L528.965 805.624L529.11 805.487L174.461 432.606L174.316 432.743ZM113.614 511.88L468.262 884.761L468.407 884.623L113.758 511.742L113.614 511.88ZM52.9112 591.016L407.56 963.897L407.705 963.759L53.0561 590.878L52.9112 591.016ZM169.257 439.338L523.906 812.219L524.051 812.081L169.402 439.2L169.257 439.338ZM108.556 518.474L463.204 891.355L463.349 891.217L108.701 518.336L108.556 518.474ZM47.8534 597.61L402.502 970.491L402.647 970.353L47.9983 597.473L47.8534 597.61ZM179.375 426.148L534.023 799.029L534.168 798.891L179.52 426.01L179.375 426.148ZM118.672 505.284L473.32 878.165L473.465 878.028L118.817 505.147L118.672 505.284ZM57.9702 584.422L412.619 957.303L412.764 957.165L58.1151 584.284L57.9702 584.422ZM164.199 445.932L518.848 818.813L518.993 818.675L164.344 445.794L164.199 445.932ZM103.496 525.068L458.145 897.949L458.29 897.811L103.641 524.93L103.496 525.068ZM42.7941 604.206L397.443 977.087L397.588 976.949L42.939 604.068L42.7941 604.206ZM154.082 459.121L508.73 832.002L508.875 831.865L154.227 458.984L154.082 459.121ZM93.3787 538.258L448.027 911.139L448.172 911.001L93.5236 538.12L93.3787 538.258ZM32.6778 617.394L387.326 990.275L387.471 990.137L32.8227 617.256L32.6778 617.394ZM159.14 452.527L513.789 825.408L513.933 825.27L159.285 452.389L159.14 452.527ZM98.4382 531.664L453.087 904.545L453.232 904.407L98.5831 531.526L98.4382 531.664ZM37.7359 610.8L392.384 983.681L392.529 983.543L37.8808 610.662L37.7359 610.8ZM149.024 465.717L503.672 838.598L503.817 838.46L149.169 465.579L149.024 465.717ZM88.3208 544.852L442.969 917.733L443.114 917.595L88.4657 544.714L88.3208 544.852ZM27.6185 623.99L382.267 996.87L382.412 996.733L27.7634 623.852L27.6185 623.99ZM143.964 472.311L498.613 845.192L498.758 845.054L144.109 472.173L143.964 472.311ZM83.2632 551.447L437.912 924.328L438.057 924.19L83.4081 551.31L83.2632 551.447ZM22.5604 630.584L377.209 1003.46L377.354 1003.33L22.7053 630.446L22.5604 630.584Z" fill="#5A5A5A"/>
</g>
<mask id="mask7_503_62" style="mask-type:alpha" maskUnits="userSpaceOnUse" x="403" y="626" width="513" height="250">
<path d="M403.203 697.727L422.335 627.416L422.508 626.57H422.692H732.249L752.168 710.253L817.222 627.147H915.97L773.433 791.387L751.566 875.801H668.285L692.897 779.358L648.384 641.218L632.798 697.727H559.131L511.46 875.409H428.743L476.543 697.727H403.203Z" fill="url(#paint23_linear_503_62)"/>
</mask>
<g mask="url(#mask7_503_62)">
<path d="M433.875 461.016L788.523 833.897L788.668 833.759L434.02 460.878L433.875 461.016ZM373.172 540.153L727.82 913.033L727.965 912.896L373.317 540.015L373.172 540.153ZM312.469 619.288L667.117 992.169L667.262 992.031L312.614 619.15L312.469 619.288ZM428.815 467.61L783.464 840.491L783.609 840.353L428.96 467.473L428.815 467.61ZM368.112 546.746L722.761 919.627L722.906 919.489L368.257 546.608L368.112 546.746ZM307.411 625.884L662.06 998.765L662.205 998.627L307.556 625.746L307.411 625.884ZM423.757 474.206L778.406 847.087L778.55 846.949L423.902 474.068L423.757 474.206ZM363.054 553.342L717.703 926.223L717.848 926.085L363.199 553.204L363.054 553.342ZM302.352 632.477L657 1005.36L657.145 1005.22L302.496 632.339L302.352 632.477ZM418.699 480.8L773.347 853.681L773.492 853.543L418.843 480.662L418.699 480.8ZM357.996 559.936L712.645 932.817L712.79 932.679L358.141 559.798L357.996 559.936ZM297.294 639.073L651.943 1011.95L652.087 1011.82L297.439 638.935L297.294 639.073ZM408.582 493.99L763.231 866.87L763.375 866.733L408.727 493.852L408.582 493.99ZM347.879 573.126L702.528 946.007L702.673 945.869L348.024 572.988L347.879 573.126ZM287.177 652.262L641.825 1025.14L641.97 1025.01L287.322 652.124L287.177 652.262ZM403.523 500.584L758.172 873.465L758.316 873.327L403.668 500.446L403.523 500.584ZM342.821 579.72L697.47 952.601L697.615 952.463L342.966 579.582L342.821 579.72ZM282.119 658.856L636.768 1031.74L636.912 1031.6L282.264 658.719L282.119 658.856ZM413.64 487.394L768.289 860.275L768.434 860.137L413.785 487.256L413.64 487.394ZM352.938 566.531L707.586 939.411L707.731 939.274L353.082 566.393L352.938 566.531ZM292.236 645.668L646.884 1018.55L647.029 1018.41L292.381 645.53L292.236 645.668ZM398.465 507.178L753.113 880.059L753.258 879.921L398.61 507.04L398.465 507.178ZM337.762 586.314L692.411 959.195L692.555 959.057L337.907 586.177L337.762 586.314ZM277.06 665.452L631.708 1038.33L631.853 1038.19L277.205 665.314L277.06 665.452ZM388.347 520.368L742.996 893.249L743.141 893.111L388.492 520.23L388.347 520.368ZM327.644 599.504L682.293 972.385L682.438 972.247L327.789 599.366L327.644 599.504ZM266.943 678.64L621.592 1051.52L621.737 1051.38L267.088 678.502L266.943 678.64ZM393.406 513.773L748.054 886.654L748.199 886.516L393.55 513.636L393.406 513.773ZM332.704 592.91L687.352 965.791L687.497 965.653L332.849 592.772L332.704 592.91ZM272.002 672.046L626.65 1044.93L626.795 1044.79L272.146 671.908L272.002 672.046ZM383.289 526.963L737.938 899.844L738.083 899.706L383.434 526.825L383.289 526.963ZM322.586 606.098L677.235 978.979L677.38 978.841L322.731 605.96L322.586 606.098ZM261.884 685.236L616.533 1058.12L616.678 1057.98L262.029 685.098L261.884 685.236ZM378.23 533.557L732.879 906.438L733.023 906.3L378.375 533.419L378.23 533.557ZM317.529 612.694L672.177 985.574L672.322 985.437L317.674 612.556L317.529 612.694ZM256.826 691.83L611.475 1064.71L611.619 1064.57L256.971 691.692L256.826 691.83Z" fill="#5A5A5A"/>
<path d="M726.616 339.608L1081.26 712.489L1081.41 712.351L726.761 339.47L726.616 339.608ZM665.913 418.744L1020.56 791.625L1020.71 791.487L666.058 418.606L665.913 418.744ZM605.21 497.88L959.858 870.76L960.003 870.623L605.355 497.742L605.21 497.88ZM721.557 346.202L1076.21 719.083L1076.35 718.945L721.702 346.064L721.557 346.202ZM660.853 425.337L1015.5 798.218L1015.65 798.08L660.998 425.2L660.853 425.337ZM600.153 504.476L954.801 877.357L954.946 877.219L600.298 504.338L600.153 504.476ZM716.498 352.798L1071.15 725.678L1071.29 725.541L716.643 352.66L716.498 352.798ZM655.796 431.934L1010.44 804.815L1010.59 804.677L655.941 431.796L655.796 431.934ZM595.093 511.069L949.741 883.95L949.886 883.812L595.238 510.931L595.093 511.069ZM711.44 359.392L1066.09 732.273L1066.23 732.135L711.585 359.254L711.44 359.392ZM650.737 438.528L1005.39 811.409L1005.53 811.271L650.882 438.39L650.737 438.528ZM590.035 517.664L944.684 890.545L944.829 890.408L590.18 517.527L590.035 517.664ZM701.323 372.581L1055.97 745.462L1056.12 745.324L701.468 372.444L701.323 372.581ZM640.62 451.718L995.269 824.599L995.414 824.461L640.765 451.58L640.62 451.718ZM579.918 530.854L934.567 903.735L934.712 903.597L580.063 530.716L579.918 530.854ZM696.264 379.176L1050.91 752.056L1051.06 751.919L696.409 379.038L696.264 379.176ZM635.562 458.312L990.211 831.193L990.356 831.055L635.707 458.174L635.562 458.312ZM574.86 537.448L929.509 910.329L929.654 910.191L575.005 537.31L574.86 537.448ZM706.382 365.986L1061.03 738.867L1061.18 738.729L706.527 365.848L706.382 365.986ZM645.679 445.122L1000.33 818.003L1000.47 817.865L645.824 444.985L645.679 445.122ZM584.977 524.26L939.626 897.141L939.771 897.003L585.122 524.122L584.977 524.26ZM691.206 385.77L1045.85 758.651L1046 758.513L691.351 385.632L691.206 385.77ZM630.503 464.906L985.152 837.787L985.297 837.649L630.648 464.768L630.503 464.906ZM569.801 544.044L924.449 916.925L924.594 916.787L569.946 543.906L569.801 544.044ZM681.089 398.959L1035.74 771.84L1035.88 771.702L681.234 398.822L681.089 398.959ZM620.385 478.096L975.034 850.977L975.179 850.839L620.53 477.958L620.385 478.096ZM559.685 557.232L914.333 930.113L914.478 929.975L559.83 557.094L559.685 557.232ZM686.147 392.365L1040.8 765.246L1040.94 765.108L686.292 392.227L686.147 392.365ZM625.445 471.502L980.094 844.382L980.239 844.245L625.59 471.364L625.445 471.502ZM564.743 550.638L919.391 923.519L919.536 923.381L564.888 550.5L564.743 550.638ZM676.03 405.555L1030.68 778.436L1030.82 778.298L676.175 405.417L676.03 405.555ZM615.328 484.69L969.976 857.571L970.121 857.433L615.473 484.552L615.328 484.69ZM554.625 563.827L909.274 936.708L909.419 936.571L554.77 563.69L554.625 563.827ZM670.971 412.149L1025.62 785.03L1025.76 784.892L671.116 412.011L670.971 412.149ZM610.27 491.285L964.919 864.166L965.064 864.028L610.415 491.147L610.27 491.285ZM549.567 570.422L904.216 943.303L904.361 943.165L549.712 570.284L549.567 570.422Z" fill="#5A5A5A"/>
</g>
<path d="M403.212 583.491L448.932 414.746L528.155 415.071C534.321 415.339 549.498 417.041 560.876 421.705C588.793 434.88 590.365 460.554 589.48 474.777C587.591 505.11 564.931 520.453 542.967 527.82L565.899 583.491H505.801L486.43 535.319H472.585L459.46 583.491H403.212Z" fill="url(#paint24_linear_503_62)"/>
<path d="M575.898 583.491L621.618 414.746L700.842 415.071C707.008 415.339 722.184 417.041 733.562 421.705C761.48 434.88 763.052 460.554 762.166 474.777C760.278 505.11 737.617 520.453 715.654 527.82L738.586 583.491H678.487L659.117 535.319H645.271L632.146 583.491H575.898Z" fill="url(#paint25_linear_503_62)"/>
<path d="M872.897 583.491H932.59L907.074 413.008H851.155L736.857 579.67V583.491H795.689L810.664 560.834H869.521L872.897 583.491Z" fill="url(#paint26_linear_503_62)"/>
<path d="M482.813 482.226L482.026 485.142L485.038 485.37C489.259 485.689 495.86 485.896 502.002 485.476C505.069 485.266 508.095 484.895 510.682 484.276C513.127 483.692 515.58 482.798 517.188 481.28C524.342 475.303 525.063 469.064 523.658 465.744C522.648 462.213 517.733 458.449 507.876 458.449H491.142H489.227L488.728 460.298L482.813 482.226Z" fill="#001E57" stroke="white" stroke-width="5"/>
<path d="M659.586 482.877L665.501 460.949H682.235C691.929 460.949 695.218 464.7 695.651 466.576C696.565 468.499 696.69 473.76 689.881 479.415C685.495 483.685 667.857 483.502 659.586 482.877Z" fill="#001E57" stroke="white" stroke-width="5"/>
<path d="M875.228 521.48L870.983 482.998L846.605 521.48H875.228Z" fill="url(#paint27_linear_503_62)"/>
<path d="M870.087 516.453L867.914 496.758L855.438 516.453H870.087Z" fill="#001E57"/>
<mask id="mask8_503_62" style="mask-type:alpha" maskUnits="userSpaceOnUse" x="403" y="414" width="187" height="170">
<path d="M403.212 583.491L448.932 414.746L528.155 415.071C534.321 415.339 549.498 417.041 560.876 421.705C588.793 434.88 590.365 460.554 589.48 474.777C587.591 505.11 564.931 520.453 542.967 527.82L565.899 583.491H505.801L486.43 535.319H472.585L459.46 583.491H403.212Z" fill="url(#paint28_linear_503_62)"/>
</mask>
<g mask="url(#mask8_503_62)">
<path d="M388.226 223.831L693.059 544.335L693.204 544.197L388.371 223.693L388.226 223.831ZM336.05 291.851L640.883 612.356L641.028 612.218L336.195 291.713L336.05 291.851ZM283.874 359.871L588.707 680.375L588.852 680.237L284.019 359.733L283.874 359.871ZM383.878 229.499L688.711 550.003L688.856 549.865L384.023 229.361L383.878 229.499ZM331.701 297.518L636.534 618.023L636.679 617.885L331.846 297.38L331.701 297.518ZM279.527 365.541L584.36 686.045L584.505 685.907L279.672 365.403L279.527 365.541ZM379.53 235.168L684.363 555.672L684.508 555.534L379.675 235.03L379.53 235.168ZM327.354 303.188L632.187 623.692L632.332 623.555L327.499 303.05L327.354 303.188ZM275.178 371.208L580.011 691.712L580.155 691.574L275.322 371.07L275.178 371.208ZM375.182 240.836L680.015 561.34L680.16 561.202L375.327 240.698L375.182 240.836ZM323.006 308.856L627.839 629.36L627.984 629.223L323.151 308.718L323.006 308.856ZM270.83 376.877L575.663 697.381L575.808 697.243L270.975 376.739L270.83 376.877ZM366.486 252.172L671.319 572.677L671.464 572.539L366.631 252.035L366.486 252.172ZM314.31 320.193L619.143 640.697L619.288 640.56L314.455 320.055L314.31 320.193ZM262.134 388.213L566.967 708.718L567.112 708.58L262.279 388.076L262.134 388.213ZM362.138 257.84L666.971 578.345L667.116 578.207L362.283 257.703L362.138 257.84ZM309.963 325.861L614.796 646.365L614.941 646.228L310.108 325.723L309.963 325.861ZM257.787 393.881L562.62 714.386L562.765 714.248L257.932 393.744L257.787 393.881ZM370.834 246.503L675.667 567.008L675.812 566.87L370.979 246.366L370.834 246.503ZM318.658 314.524L623.491 635.028L623.636 634.891L318.803 314.386L318.658 314.524ZM266.483 382.545L571.316 703.05L571.461 702.912L266.628 382.408L266.483 382.545ZM357.79 263.508L662.623 584.013L662.768 583.875L357.935 263.371L357.79 263.508ZM305.614 331.529L610.447 652.033L610.592 651.895L305.759 331.391L305.614 331.529ZM253.438 399.55L558.271 720.055L558.416 719.917L253.583 399.413L253.438 399.55ZM349.094 274.845L653.927 595.35L654.072 595.212L349.239 274.707L349.094 274.845ZM296.918 342.866L601.751 663.37L601.895 663.232L297.062 342.728L296.918 342.866ZM244.743 410.886L549.576 731.391L549.721 731.253L244.888 410.748L244.743 410.886ZM353.442 269.177L658.275 589.682L658.42 589.544L353.587 269.039L353.442 269.177ZM301.266 337.198L606.099 657.702L606.244 657.564L301.411 337.06L301.266 337.198ZM249.091 405.218L553.924 725.723L554.069 725.585L249.236 405.08L249.091 405.218ZM344.746 280.514L649.579 601.019L649.724 600.881L344.891 280.376L344.746 280.514ZM292.57 348.534L597.403 669.038L597.548 668.9L292.715 348.396L292.57 348.534ZM240.394 416.555L545.227 737.06L545.372 736.922L240.539 416.417L240.394 416.555ZM340.398 286.182L645.231 606.687L645.376 606.549L340.543 286.044L340.398 286.182ZM288.223 354.203L593.056 674.707L593.201 674.569L288.368 354.065L288.223 354.203ZM236.047 422.223L540.88 742.728L541.025 742.59L236.192 422.085L236.047 422.223Z" fill="#5A5A5A"/>
</g>
<mask id="mask9_503_62" style="mask-type:alpha" maskUnits="userSpaceOnUse" x="575" y="413" width="358" height="171">
<path d="M575.898 583.491L621.618 414.746L700.842 415.071C707.008 415.339 722.184 417.041 733.562 421.705C761.48 434.88 763.052 460.554 762.166 474.777C760.278 505.11 737.617 520.453 715.654 527.82L738.586 583.491H678.487L659.117 535.319H645.271L632.146 583.491H575.898Z" fill="url(#paint29_linear_503_62)"/>
<path d="M872.897 583.491H932.59L907.074 413.008H851.155L736.857 579.67V583.491H795.689L810.664 560.834H869.521L872.897 583.491Z" fill="url(#paint30_linear_503_62)"/>
</mask>
<g mask="url(#mask9_503_62)">
<path d="M610.252 257.073L915.085 577.577L915.23 577.439L610.397 256.935L610.252 257.073ZM558.075 325.093L862.909 645.598L863.053 645.46L558.22 324.955L558.075 325.093ZM505.899 393.113L810.732 713.617L810.877 713.479L506.044 392.975L505.899 393.113ZM605.903 262.741L910.736 583.245L910.881 583.107L606.048 262.603L605.903 262.741ZM553.727 330.76L858.56 651.265L858.705 651.127L553.872 330.622L553.727 330.76ZM501.552 398.783L806.385 719.287L806.53 719.149L501.697 398.645L501.552 398.783ZM601.555 268.41L906.388 588.914L906.533 588.776L601.7 268.272L601.555 268.41ZM549.379 336.43L854.212 656.935L854.357 656.797L549.524 336.292L549.379 336.43ZM497.203 404.45L802.036 724.954L802.181 724.816L497.348 404.312L497.203 404.45ZM597.207 274.078L902.04 594.582L902.185 594.444L597.352 273.94L597.207 274.078ZM545.032 342.098L849.865 662.603L850.009 662.465L545.176 341.96L545.032 342.098ZM492.856 410.119L797.689 730.623L797.834 730.485L493.001 409.981L492.856 410.119ZM588.512 285.415L893.345 605.919L893.49 605.781L588.657 285.277L588.512 285.415ZM536.335 353.435L841.169 673.94L841.313 673.802L536.48 353.297L536.335 353.435ZM484.16 421.456L788.993 741.96L789.138 741.822L484.305 421.318L484.16 421.456ZM584.163 291.083L888.996 611.587L889.141 611.449L584.308 290.945L584.163 291.083ZM531.988 359.103L836.821 679.608L836.966 679.47L532.133 358.965L531.988 359.103ZM479.812 427.124L784.645 747.628L784.79 747.49L479.957 426.986L479.812 427.124ZM592.86 279.746L897.693 600.25L897.838 600.112L593.005 279.608L592.86 279.746ZM540.683 347.766L845.516 668.271L845.661 668.133L540.828 347.628L540.683 347.766ZM488.508 415.788L793.341 736.292L793.486 736.154L488.653 415.65L488.508 415.788ZM579.816 296.751L884.649 617.255L884.794 617.117L579.961 296.613L579.816 296.751ZM527.639 364.771L832.473 685.275L832.617 685.138L527.784 364.633L527.639 364.771ZM475.464 432.793L780.297 753.297L780.442 753.159L475.609 432.655L475.464 432.793ZM571.119 308.087L875.952 628.592L876.097 628.454L571.264 307.95L571.119 308.087ZM518.943 376.108L823.776 696.612L823.921 696.475L519.088 375.97L518.943 376.108ZM466.768 444.128L771.601 764.633L771.746 764.495L466.913 443.991L466.768 444.128ZM575.467 302.42L880.3 622.924L880.445 622.786L575.612 302.282L575.467 302.42ZM523.292 370.44L828.125 690.944L828.27 690.807L523.437 370.302L523.292 370.44ZM471.116 438.461L775.949 758.965L776.094 758.827L471.261 438.323L471.116 438.461ZM566.772 313.756L871.605 634.261L871.75 634.123L566.917 313.619L566.772 313.756ZM514.596 381.776L819.429 702.28L819.573 702.143L514.74 381.638L514.596 381.776ZM462.42 449.797L767.253 770.302L767.398 770.164L462.565 449.66L462.42 449.797ZM562.423 319.424L867.256 639.929L867.401 639.791L562.568 319.287L562.423 319.424ZM510.248 387.445L815.081 707.949L815.226 707.811L510.393 387.307L510.248 387.445ZM458.072 455.465L762.905 775.97L763.05 775.832L458.217 455.328L458.072 455.465Z" fill="#5A5A5A"/>
<path d="M860.217 150.569L1165.05 471.073L1165.19 470.936L860.362 150.431L860.217 150.569ZM808.04 218.589L1112.87 539.094L1113.02 538.956L808.185 218.452L808.04 218.589ZM755.864 286.609L1060.7 607.113L1060.84 606.976L756.009 286.471L755.864 286.609ZM855.868 156.237L1160.7 476.741L1160.85 476.603L856.013 156.099L855.868 156.237ZM803.691 224.256L1108.52 544.761L1108.67 544.623L803.836 224.119L803.691 224.256ZM751.517 292.279L1056.35 612.783L1056.49 612.645L751.662 292.141L751.517 292.279ZM851.52 161.906L1156.35 482.41L1156.5 482.272L851.665 161.768L851.52 161.906ZM799.344 229.926L1104.18 550.431L1104.32 550.293L799.489 229.789L799.344 229.926ZM747.168 297.946L1052 618.45L1052.15 618.312L747.313 297.808L747.168 297.946ZM847.172 167.574L1152.01 488.078L1152.15 487.94L847.317 167.436L847.172 167.574ZM794.996 235.594L1099.83 556.099L1099.97 555.961L795.141 235.456L794.996 235.594ZM742.821 303.615L1047.65 624.119L1047.8 623.981L742.966 303.477L742.821 303.615ZM838.477 178.911L1143.31 499.415L1143.45 499.277L838.622 178.773L838.477 178.911ZM786.3 246.931L1091.13 567.436L1091.28 567.298L786.445 246.793L786.3 246.931ZM734.125 314.952L1038.96 635.456L1039.1 635.318L734.269 314.814L734.125 314.952ZM834.128 184.579L1138.96 505.083L1139.11 504.945L834.273 184.441L834.128 184.579ZM781.953 252.599L1086.79 573.104L1086.93 572.966L782.098 252.461L781.953 252.599ZM729.777 320.62L1034.61 641.124L1034.76 640.986L729.922 320.482L729.777 320.62ZM842.825 173.242L1147.66 493.746L1147.8 493.608L842.969 173.104L842.825 173.242ZM790.648 241.262L1095.48 561.767L1095.63 561.629L790.793 241.124L790.648 241.262ZM738.473 309.284L1043.31 629.788L1043.45 629.65L738.618 309.146L738.473 309.284ZM829.781 190.247L1134.61 510.751L1134.76 510.613L829.925 190.109L829.781 190.247ZM777.604 258.267L1082.44 578.772L1082.58 578.634L777.749 258.129L777.604 258.267ZM725.429 326.289L1030.26 646.793L1030.41 646.655L725.573 326.151L725.429 326.289ZM821.084 201.584L1125.92 522.088L1126.06 521.95L821.229 201.446L821.084 201.584ZM768.908 269.604L1073.74 590.108L1073.89 589.971L769.053 269.466L768.908 269.604ZM716.733 337.625L1021.57 658.129L1021.71 657.991L716.878 337.487L716.733 337.625ZM825.432 195.916L1130.26 516.42L1130.41 516.282L825.577 195.778L825.432 195.916ZM773.257 263.936L1078.09 584.441L1078.23 584.303L773.402 263.798L773.257 263.936ZM721.081 331.957L1025.91 652.461L1026.06 652.323L721.226 331.819L721.081 331.957ZM816.737 207.253L1121.57 527.757L1121.71 527.619L816.882 207.115L816.737 207.253ZM764.56 275.272L1069.39 595.776L1069.54 595.639L764.705 275.134L764.56 275.272ZM712.385 343.294L1017.22 663.798L1017.36 663.66L712.529 343.156L712.385 343.294ZM812.388 212.92L1117.22 533.425L1117.37 533.287L812.533 212.783L812.388 212.92ZM760.213 280.941L1065.05 601.445L1065.19 601.308L760.358 280.803L760.213 280.941ZM708.037 348.962L1012.87 669.466L1013.01 669.328L708.182 348.824L708.037 348.962Z" fill="#5A5A5A"/>
</g>
<defs>
<linearGradient id="paint0_linear_503_62" x1="33.9825" y1="192.037" x2="215.306" y2="455.883" gradientUnits="userSpaceOnUse">
<stop stop-color="#6487C9"/>
<stop offset="0.317708" stop-color="#3868B7"/>
<stop offset="0.640625" stop-color="#4772BC"/>
<stop offset="1" stop-color="#3868B7"/>
</linearGradient>
<linearGradient id="paint1_linear_503_62" x1="348.052" y1="270.596" x2="126.836" y2="514.504" gradientUnits="userSpaceOnUse">
<stop stop-color="#B9CCF1"/>
<stop offset="0.300377" stop-color="#B8CBF0"/>
<stop offset="0.545983" stop-color="#AEC3EC"/>
<stop offset="1" stop-color="#A3B9E6"/>
</linearGradient>
<linearGradient id="paint2_linear_503_62" x1="125.413" y1="266.358" x2="171.683" y2="334.575" gradientUnits="userSpaceOnUse">
<stop offset="0.597502" stop-color="#D3E2FD"/>
<stop offset="0.796135" stop-color="#BED1F4"/>
</linearGradient>
<linearGradient id="paint3_linear_503_62" x1="193.932" y1="192.037" x2="102.293" y2="344.791" gradientUnits="userSpaceOnUse">
<stop offset="0.486289" stop-color="#819ED6"/>
<stop offset="1" stop-color="#3C69B8"/>
</linearGradient>
<linearGradient id="paint4_linear_503_62" x1="662.218" y1="226.564" x2="877.715" y2="386.449" gradientUnits="userSpaceOnUse">
<stop stop-color="#D0DFFC"/>
<stop offset="0.315625" stop-color="#B6CAEF"/>
<stop offset="0.539583" stop-color="#B8CBF0"/>
<stop offset="1" stop-color="#A2BAE6"/>
</linearGradient>
<linearGradient id="paint5_linear_503_62" x1="930.973" y1="240.674" x2="827.065" y2="410.258" gradientUnits="userSpaceOnUse">
<stop stop-color="#4A74BE"/>
<stop offset="0.442597" stop-color="#3365B5"/>
<stop offset="1" stop-color="#0052AA"/>
</linearGradient>
<linearGradient id="paint6_linear_503_62" x1="768.393" y1="190.117" x2="768.393" y2="252.241" gradientUnits="userSpaceOnUse">
<stop stop-color="#DCEAFF"/>
<stop offset="1" stop-color="#B7CBF0"/>
</linearGradient>
<linearGradient id="paint7_linear_503_62" x1="890.657" y1="241.938" x2="871.643" y2="271.097" gradientUnits="userSpaceOnUse">
<stop stop-color="#6585C3"/>
<stop offset="0.835328" stop-color="#3C69B9"/>
</linearGradient>
<linearGradient id="paint8_linear_503_62" x1="286.187" y1="83.6937" x2="484.333" y2="387.875" gradientUnits="userSpaceOnUse">
<stop stop-color="#C3D5F7"/>
<stop offset="0.255473" stop-color="#B4C7EE"/>
<stop offset="0.659375" stop-color="#7896D2"/>
<stop offset="1" stop-color="#6286C8"/>
</linearGradient>
<linearGradient id="paint9_linear_503_62" x1="486.044" y1="60.082" x2="654.388" y2="431.797" gradientUnits="userSpaceOnUse">
<stop stop-color="#6487C9"/>
<stop offset="0.3" stop-color="#3666B6"/>
<stop offset="0.664583" stop-color="#0047A3"/>
<stop offset="1" stop-color="#003D9D"/>
</linearGradient>
<linearGradient id="paint10_linear_503_62" x1="401.949" y1="23.5012" x2="441.312" y2="135.47" gradientUnits="userSpaceOnUse">
<stop offset="0.462004" stop-color="#DCEAFF"/>
<stop offset="0.683538" stop-color="#C0D3F5"/>
<stop offset="0.69824" stop-color="#C0D3F5"/>
</linearGradient>
<linearGradient id="paint11_linear_503_62" x1="560.113" y1="66.2364" x2="532.987" y2="120.422" gradientUnits="userSpaceOnUse">
<stop offset="0.00833741" stop-color="#7896D2"/>
<stop offset="0.423295" stop-color="#7896D2"/>
<stop offset="0.742119" stop-color="#4570BA"/>
</linearGradient>
<linearGradient id="paint12_linear_503_62" x1="114.913" y1="414.156" x2="114.913" y2="582.403" gradientUnits="userSpaceOnUse">
<stop stop-color="#F6FFFF"/>
<stop offset="1" stop-color="#0D6FFA"/>
</linearGradient>
<linearGradient id="paint13_linear_503_62" x1="114.913" y1="414.156" x2="114.913" y2="582.403" gradientUnits="userSpaceOnUse">
<stop stop-color="#F6FFFF"/>
<stop offset="1" stop-color="#0D6FFA"/>
</linearGradient>
<linearGradient id="paint14_linear_503_62" x1="230.52" y1="413.523" x2="199.719" y2="584.641" gradientUnits="userSpaceOnUse">
<stop stop-color="#F4FEFF"/>
<stop offset="1" stop-color="#0E70FA"/>
</linearGradient>
<linearGradient id="paint15_linear_503_62" x1="230.52" y1="413.523" x2="199.719" y2="584.641" gradientUnits="userSpaceOnUse">
<stop stop-color="#F4FEFF"/>
<stop offset="1" stop-color="#0E70FA"/>
</linearGradient>
<linearGradient id="paint16_linear_503_62" x1="337.389" y1="413.59" x2="337.389" y2="583.49" gradientUnits="userSpaceOnUse">
<stop stop-color="#F1FCFF"/>
<stop offset="1" stop-color="#1373FA"/>
</linearGradient>
<linearGradient id="paint17_linear_503_62" x1="337.389" y1="413.59" x2="337.389" y2="583.49" gradientUnits="userSpaceOnUse">
<stop stop-color="#F1FCFF"/>
<stop offset="1" stop-color="#1373FA"/>
</linearGradient>
<linearGradient id="paint18_linear_503_62" x1="153.423" y1="620.352" x2="153.423" y2="880.489" gradientUnits="userSpaceOnUse">
<stop stop-color="#F4FDFF"/>
<stop offset="1" stop-color="#0065F7"/>
</linearGradient>
<linearGradient id="paint19_linear_503_62" x1="331.742" y1="625.547" x2="331.742" y2="874.523" gradientUnits="userSpaceOnUse">
<stop stop-color="#F4FDFF"/>
<stop offset="1" stop-color="#0065F7"/>
</linearGradient>
<linearGradient id="paint20_linear_503_62" x1="659.587" y1="626.57" x2="659.587" y2="875.801" gradientUnits="userSpaceOnUse">
<stop stop-color="#F4FDFF"/>
<stop offset="1" stop-color="#0065F7"/>
</linearGradient>
<linearGradient id="paint21_linear_503_62" x1="153.423" y1="620.352" x2="153.423" y2="880.489" gradientUnits="userSpaceOnUse">
<stop stop-color="#F4FDFF"/>
<stop offset="1" stop-color="#0065F7"/>
</linearGradient>
<linearGradient id="paint22_linear_503_62" x1="331.742" y1="625.547" x2="331.742" y2="874.523" gradientUnits="userSpaceOnUse">
<stop stop-color="#F4FDFF"/>
<stop offset="1" stop-color="#0065F7"/>
</linearGradient>
<linearGradient id="paint23_linear_503_62" x1="659.587" y1="626.57" x2="659.587" y2="875.801" gradientUnits="userSpaceOnUse">
<stop stop-color="#F4FDFF"/>
<stop offset="1" stop-color="#0065F7"/>
</linearGradient>
<linearGradient id="paint24_linear_503_62" x1="496.432" y1="414.746" x2="496.432" y2="583.491" gradientUnits="userSpaceOnUse">
<stop stop-color="#F2FCFF"/>
<stop offset="1" stop-color="#0165F7"/>
</linearGradient>
<linearGradient id="paint25_linear_503_62" x1="754.244" y1="413.008" x2="754.244" y2="583.491" gradientUnits="userSpaceOnUse">
<stop stop-color="#F2FCFF"/>
<stop offset="1" stop-color="#0165F7"/>
</linearGradient>
<linearGradient id="paint26_linear_503_62" x1="754.244" y1="413.008" x2="754.244" y2="583.491" gradientUnits="userSpaceOnUse">
<stop stop-color="#F2FCFF"/>
<stop offset="1" stop-color="#0165F7"/>
</linearGradient>
<linearGradient id="paint27_linear_503_62" x1="860.917" y1="482.998" x2="860.917" y2="521.48" gradientUnits="userSpaceOnUse">
<stop offset="0.409375" stop-color="white"/>
<stop offset="0.409475" stop-color="#003EC0"/>
</linearGradient>
<linearGradient id="paint28_linear_503_62" x1="496.432" y1="414.746" x2="496.432" y2="583.491" gradientUnits="userSpaceOnUse">
<stop stop-color="#F2FCFF"/>
<stop offset="1" stop-color="#0165F7"/>
</linearGradient>
<linearGradient id="paint29_linear_503_62" x1="754.244" y1="413.008" x2="754.244" y2="583.491" gradientUnits="userSpaceOnUse">
<stop stop-color="#F2FCFF"/>
<stop offset="1" stop-color="#0165F7"/>
</linearGradient>
<linearGradient id="paint30_linear_503_62" x1="754.244" y1="413.008" x2="754.244" y2="583.491" gradientUnits="userSpaceOnUse">
<stop stop-color="#F2FCFF"/>
<stop offset="1" stop-color="#0165F7"/>
</linearGradient>
</defs>
</svg>
