<svg width="22" height="22" viewBox="0 0 22 22" fill="none" xmlns="http://www.w3.org/2000/svg">
<path d="M1.22443 0.276367H20.5341C20.8542 0.276367 21.1612 0.403518 21.3875 0.629847C21.6138 0.856177 21.741 1.16315 21.741 1.48322V20.7929C21.741 21.113 21.6138 21.42 21.3875 21.6463C21.1612 21.8726 20.8542 21.9998 20.5341 21.9998H1.22443C0.904356 21.9998 0.597388 21.8726 0.371058 21.6463C0.144729 21.42 0.0175781 21.113 0.0175781 20.7929V1.48322C0.0175781 1.16315 0.144729 0.856177 0.371058 0.629847C0.597388 0.403518 0.904356 0.276367 1.22443 0.276367V0.276367ZM17.2756 15.8931C17.1549 15.8327 17.0946 15.6517 17.0946 15.5298V6.31789C17.0946 6.1972 17.1549 6.01618 17.2756 5.89428L18.4282 4.56071V4.50036H14.3068L11.2172 12.3184L7.70043 4.50036H3.45953V4.56071L4.54932 6.07652C4.7919 6.31789 4.85225 6.68236 4.85225 6.98528V13.6508C4.91259 14.0152 4.85225 14.4388 4.67122 14.8021L3.03472 17.0444V17.1048H7.39871V17.0444L5.76222 14.8636C5.58119 14.4992 5.51964 14.1359 5.58119 13.7123V7.65026C5.64153 7.77095 5.70187 7.77095 5.76222 8.01352L9.88242 17.2255H9.94277L13.9447 7.22786C13.8844 7.58992 13.8844 8.01473 13.8844 8.31886V15.4695C13.8844 15.6505 13.824 15.7712 13.7033 15.8931L12.4904 17.0444V17.1048H18.4294V17.0444L17.278 15.8931H17.2756Z" fill="#0051B7"/>
</svg>
