<svg width="30" height="22" viewBox="0 0 30 22" fill="none" xmlns="http://www.w3.org/2000/svg">
<path d="M29.4143 2.84775C28.3586 3.28471 27.2246 3.57875 26.0343 3.71138C27.2499 3.03281 28.1821 1.95841 28.6211 0.677342C27.4849 1.30554 26.2251 1.76203 24.8837 2.00878C23.8103 0.942602 22.2814 0.276367 20.5891 0.276367C17.3393 0.276367 14.705 2.7326 14.705 5.76047C14.705 6.19023 14.7579 6.60971 14.8572 7.00966C9.96697 6.78141 5.63161 4.59764 2.72814 1.2788C2.2229 2.08898 1.93277 3.03076 1.93277 4.0373C1.93277 5.93936 2.97083 7.61832 4.54943 8.60122C3.58528 8.57243 2.67739 8.32568 1.88423 7.91545C1.88423 7.9391 1.88423 7.96069 1.88423 7.98434C1.88423 10.6421 3.91181 12.8588 6.60458 13.3615C6.11148 13.4869 5.59079 13.5538 5.05356 13.5538C4.67518 13.5538 4.30563 13.5188 3.94711 13.4561C4.69614 15.6347 6.86934 17.2211 9.44408 17.2654C7.43084 18.7366 4.89361 19.6136 2.13575 19.6136C1.6614 19.6136 1.19256 19.5879 0.731445 19.5365C3.33597 21.0921 6.42808 21.9999 9.75185 21.9999C20.5759 21.9999 26.4932 13.6432 26.4932 6.39586C26.4932 6.15836 26.4876 5.92189 26.4766 5.68644C27.6272 4.91225 28.6255 3.94683 29.4143 2.84775Z" fill="#0051B7"/>
</svg>
