<svg width="34" height="27" viewBox="0 0 34 27" fill="none" xmlns="http://www.w3.org/2000/svg">
<path d="M33.0904 3.69866C31.895 4.21575 30.6109 4.56371 29.2631 4.72066C30.6396 3.91766 31.6951 2.64624 32.1923 1.13026C30.9057 1.87365 29.4792 2.41385 27.9603 2.70585C26.745 1.44417 25.0137 0.655762 23.0976 0.655762C19.4178 0.655762 16.435 3.56239 16.435 7.14549C16.435 7.65406 16.495 8.15046 16.6074 8.62375C11.0702 8.35365 6.16125 5.76944 2.87364 1.84202C2.30156 2.80076 1.97305 3.91523 1.97305 5.10635C1.97305 7.35719 3.14844 9.34402 4.93589 10.5072C3.84419 10.4731 2.81619 10.1811 1.91809 9.69564C1.91809 9.72362 1.91809 9.74917 1.91809 9.77716C1.91809 12.9223 4.21392 15.5454 7.26294 16.1404C6.7046 16.2888 6.11503 16.3679 5.50672 16.3679C5.07829 16.3679 4.65984 16.3265 4.25389 16.2523C5.10202 18.8304 7.56272 20.7077 10.4781 20.7601C8.19851 22.5011 5.32561 23.5389 2.20288 23.5389C1.66578 23.5389 1.13491 23.5085 0.612793 23.4477C3.56189 25.2885 7.06309 26.3628 10.8266 26.3628C23.0827 26.3628 29.7828 16.4737 29.7828 7.8974C29.7828 7.61634 29.7765 7.33651 29.764 7.05789C31.0668 6.14174 32.1973 4.99928 33.0904 3.69866Z" fill="#BAE2FF"/>
</svg>
