<svg width="124" height="166" viewBox="0 0 124 166" fill="none" xmlns="http://www.w3.org/2000/svg">
<path fill-rule="evenodd" clip-rule="evenodd" d="M106.625 165.844C100.718 165.844 22.506 165.19 17.9075 165.19C4.9346 165.19 0.97168 158.778 0.97168 148.908V142.142L123.56 144.347V150.572C123.56 160.087 119.523 165.844 106.625 165.844ZM0.97168 110.849L123.56 108.625V131.057L0.97168 131.412V110.849ZM0.97168 87.0907C0.97168 78.2115 5.28977 71.8185 15.7765 70.6969C15.7765 57.7801 15.9261 43.6669 15.9448 40.9564C15.9448 -14.5618 108.251 -9.81382 108.195 39.6292C108.195 43.0687 108.288 57.0136 108.4 69.8931C120.588 70.5474 123.56 78.7349 123.56 87.8384V97.6335L0.97168 97.3531V87.0907ZM86.5669 69.8931C86.5669 57.4623 86.5669 45.424 86.5669 43.5547C86.5669 16.805 37.7408 14.2441 37.7034 44.265C37.7034 45.6109 37.7034 57.7801 37.7034 70.2296L86.5669 69.8931Z" fill="#001639"/>
</svg>
