<svg width="1189" height="300" viewBox="0 0 1189 300" fill="none" xmlns="http://www.w3.org/2000/svg">
<path d="M514.381 109.521C511.599 103.57 500.406 101.503 495.157 101.213C504.817 99.8996 511.547 101.761 513.705 102.855C515.604 101.471 521.046 98.5276 527.615 97.832C522.495 98.7015 517.859 104.015 514.381 109.521Z" fill="#0A2F5A"/>
<path d="M1175.23 109.521C1172.45 103.57 1161.26 101.503 1156.01 101.213C1165.67 99.8996 1172.4 101.761 1174.56 102.855C1176.46 101.471 1181.9 98.5276 1188.47 97.832C1183.35 98.7015 1178.71 104.015 1175.23 109.521Z" fill="#0A2F5A"/>
<path d="M573.05 116.041L559.467 114.683C563.162 113.596 568.704 112.962 571.013 112.781C571.103 112.238 572.643 110.825 578.076 109.521C575.577 110.608 573.684 114.321 573.05 116.041Z" fill="#0A2F5A"/>
<path d="M61.9502 232.572C59.2142 228.05 49.4134 225.524 44.855 224.826C48.2043 224.826 54.9033 224.826 61.9502 226.188C65.5781 223.089 72.65 221.477 75.7325 221.059C67.2543 224.513 63.9049 229.432 61.9502 232.572Z" fill="#0A2F5A"/>
<path d="M29.3398 248.729C25.8991 248.926 21.9502 258.19 21.9502 258.19C21.9502 258.19 23.9068 257.38 25.1621 256.347C27.7937 254.182 31.5928 251.555 33.6408 250.941C35.2383 251.965 40.006 253.865 46.2974 253.275C42.9551 252.98 39.6619 250.695 38.4331 249.589C36.8357 249.22 32.7806 248.532 29.3398 248.729Z" fill="#0A2F5A"/>
<path d="M1133.77 161.597C1130.33 161.794 1126.38 171.059 1126.38 171.059C1126.38 171.059 1128.34 170.249 1129.59 169.216C1132.23 167.05 1136.03 164.423 1138.07 163.809C1139.67 164.833 1144.44 166.733 1150.73 166.144C1147.39 165.849 1144.09 163.563 1142.87 162.457C1141.27 162.089 1137.21 161.4 1133.77 161.597Z" fill="#0A2F5A"/>
<path d="M12.7056 113.353C8.99592 111.807 2.91672 111.872 0.34082 112.097C1.30708 110.841 6.13674 109.488 12.0295 109.488C15.9709 106.397 18.5019 105.56 19.2747 105.528C16.4732 106.59 13.7683 111.034 12.7056 113.353Z" fill="#0A2F5A"/>
<path d="M1013.35 30.9905C1009.64 29.4448 1003.56 29.5092 1000.98 29.7346C1001.95 28.4788 1006.78 27.1261 1012.67 27.1261C1016.61 24.0347 1019.14 23.1976 1019.92 23.1655C1017.12 24.2282 1014.41 28.6718 1013.35 30.9905Z" fill="#0A2F5A" fill-opacity="0.3"/>
<path d="M789.46 263.257C785.751 261.711 779.672 261.776 777.096 262.001C778.062 260.745 782.892 259.393 788.784 259.393C792.726 256.301 795.257 255.464 796.03 255.432C793.228 256.495 790.523 260.938 789.46 263.257Z" fill="#0A2F5A" fill-opacity="0.3"/>
<path d="M961.95 10.8011C959.254 6.05472 948.527 3.92986 943.5 3.46072C952.248 2.65633 955.768 2.35433 962.505 4.26511C967.975 0.645125 973.298 0.142374 975.275 0.343495C969.242 0.745715 962.706 8.38786 961.95 10.8011Z" fill="#0A2F5A"/>
<path d="M738.062 243.068C735.366 238.321 724.639 236.196 719.612 235.727C728.361 234.923 731.88 234.621 738.617 236.532C744.087 232.912 749.41 232.409 751.388 232.61C745.354 233.012 738.818 240.654 738.062 243.068Z" fill="#0A2F5A"/>
<path d="M371.787 299.965C369.947 297.331 363.866 295.561 361.055 295.005C365.7 294.193 369.487 295.005 372.418 296.042C375.376 293.48 378.19 293.501 379.227 293.832C376.837 293.967 373.005 298.206 371.787 299.965Z" fill="#0A2F5A"/>
</svg>
