<svg width="1600" height="1264" viewBox="0 0 1600 1264" fill="none" xmlns="http://www.w3.org/2000/svg">
<path d="M56.7496 210.439C45.9664 185.068 17.8639 181.896 -0.107481 183.482L-0.10791 186.993V1263.47L2.80784 765.487H1600.64V139.718C1589.89 138.856 1561.95 139.112 1536.2 147.034C1504.5 96.856 1438.26 84.8616 1409.1 85.1367C1326.57 82.6608 1267.15 134.655 1242.85 200.719C1214.11 158.717 1170.08 171.198 1151.66 182.69C1142.95 160.754 1107.45 114.503 1035.14 104.988C962.835 95.4736 919.915 156.525 907.493 188.24C884.5 162.868 837.721 162.868 809.178 182.69C796.492 117.992 698.565 103.931 651.187 104.988C559.142 -83.3603 335.328 24.1861 318.395 104.988C242.28 71.3709 167.222 133.267 139.208 168.417C99.5645 161.281 70.2285 168.417 56.7496 210.439Z" fill="url(#paint0_linear_211_223)"/>
<defs>
<linearGradient id="paint0_linear_211_223" x1="800.266" y1="0.302734" x2="800.266" y2="1263.47" gradientUnits="userSpaceOnUse">
<stop stop-color="#8FD1F3"/>
<stop offset="1" stop-color="#8FD1F3"/>
</linearGradient>
</defs>
</svg>
