<svg width="489" height="332" viewBox="0 0 489 332" fill="none" xmlns="http://www.w3.org/2000/svg">
<circle r="58.5639" transform="matrix(-1 0 0 1 429.671 185.063)" fill="white"/>
<circle r="104.016" transform="matrix(-1 0 0 1 305.551 155.345)" fill="white"/>
<circle r="75.1716" transform="matrix(-1 0 0 1 219.015 75.8024)" fill="white"/>
<circle r="57.6898" transform="matrix(-1 0 0 1 124.614 98.5287)" fill="white"/>
<circle r="55.0675" transform="matrix(-1 0 0 1 55.5606 172.826)" fill="white"/>
<circle r="89.157" transform="matrix(-1 0 0 1 140.347 187.686)" fill="white"/>
<circle r="79.542" transform="matrix(-1 0 0 1 197.164 251.494)" fill="white"/>
<circle r="79.542" transform="matrix(-1 0 0 1 284.572 251.494)" fill="white"/>
<circle r="53.3194" transform="matrix(-1 0 0 1 377.225 235.761)" fill="white"/>
<mask id="mask0_569_556" style="mask-type:alpha" maskUnits="userSpaceOnUse" x="0" y="0" width="489" height="332">
<circle r="58.5639" transform="matrix(-1 0 0 1 429.671 185.063)" fill="white"/>
<circle r="104.016" transform="matrix(-1 0 0 1 305.551 155.345)" fill="white"/>
<circle r="75.1716" transform="matrix(-1 0 0 1 219.015 75.8024)" fill="white"/>
<circle r="57.6898" transform="matrix(-1 0 0 1 124.614 98.5287)" fill="white"/>
<circle r="55.0675" transform="matrix(-1 0 0 1 55.5606 172.826)" fill="white"/>
<circle r="89.157" transform="matrix(-1 0 0 1 140.347 187.686)" fill="white"/>
<circle r="79.542" transform="matrix(-1 0 0 1 197.164 251.494)" fill="white"/>
<circle r="79.542" transform="matrix(-1 0 0 1 284.572 251.494)" fill="white"/>
<circle r="53.3194" transform="matrix(-1 0 0 1 377.225 235.761)" fill="white"/>
</mask>
<g mask="url(#mask0_569_556)">
<path d="M385.966 157.966C455.893 106.22 483.281 152.722 488.235 182.441L465.508 403.585L85.2801 442.045L-56.3222 296.072L-35.3441 44.335L85.2801 56.5722C127.936 60.0685 137.434 101.151 136.851 121.255C156.431 107.969 191.627 105.812 206.778 106.395C189.297 132.268 189.588 163.794 191.919 176.322C270.936 53.9499 348.381 133.492 377.225 188.559C388.414 172.476 387.715 161.463 385.966 157.966Z" fill="#E7F5FE"/>
</g>
<path d="M368.485 225.272C423.028 242.753 471.044 204.002 488.235 182.441C481.941 202.021 444.822 224.397 427.048 233.138C402.574 284.185 369.067 273.638 355.373 261.983C331.598 315.827 263.303 310.641 232.127 301.317C175.486 335.242 140.93 282.82 130.733 252.368C92.972 241.879 74.2083 221.192 69.5464 212.16C39.8275 229.642 1.36758 185.938 0.4935 175.448C-0.20578 167.057 4.86392 152.139 7.48621 145.729C48.0439 219.153 100.14 185.646 121.118 159.715C117.621 181.392 105.093 192.056 99.2654 194.678C118.845 252.718 195.998 268.976 232.127 269.85C218.141 253.068 211.149 233.138 209.401 225.272C257.65 291.702 335.561 252.951 368.485 225.272Z" fill="#B1D9FD"/>
</svg>
