<svg width="1600" height="655" viewBox="0 0 1600 655" fill="none" xmlns="http://www.w3.org/2000/svg">
<path d="M1499.39 219.204C1531.05 167.818 1579.38 155.404 1599.93 155.62V156.172V654.989H1598.74H-0.446777V95.2863C44.2428 85.0449 62.6604 107.49 66.283 119.993C106.419 80.1781 148.784 75.3979 181.116 98.8104C371.984 -54.5975 507.793 75.5557 551.839 159.808C593.807 159.808 602.93 154.334 630.3 188.09C652.196 110.725 740.108 100.287 781.327 104.738C885.848 -73.6939 1040.39 21.8682 1082.2 70.3956C1253.16 33.0667 1280.09 155.62 1289.82 200.389C1340.69 192.084 1380.65 231.965 1394.28 252.943C1443.59 204.93 1465.65 211.419 1499.39 219.204Z" fill="url(#paint0_linear_211_222)"/>
<defs>
<linearGradient id="paint0_linear_211_222" x1="799.742" y1="0.995605" x2="799.742" y2="998.374" gradientUnits="userSpaceOnUse">
<stop stop-color="#B3E0F5"/>
<stop offset="1" stop-color="#B3E0F5"/>
</linearGradient>
</defs>
</svg>
