<svg width="1776" height="677" viewBox="0 0 1776 677" fill="none" xmlns="http://www.w3.org/2000/svg">
<path d="M1592.35 109.974C1705.25 83.595 1761.83 112.172 1776 129.757V677H0V7.72623C37.4817 10.2499 75.8433 76.9426 90.339 109.974C144.465 90.1894 169.596 96.7838 208.258 129.757C322.697 9.7364 444.096 44.5775 490.491 77.0006C511.754 44.0276 579.413 -16.9718 662.536 4.46076C739.86 9.73639 766.924 77.0008 770.79 109.974C836.515 68.7575 927.371 85.2438 952.5 109.974C975.698 90.1902 1051.09 57.2173 1122.62 77.0006C1260.25 -45.6581 1405.49 12.7039 1460.9 57.2173C1509.24 55.5687 1553.7 68.7574 1592.35 109.974Z" fill="url(#paint0_linear_967_39)"/>
<defs>
<linearGradient id="paint0_linear_967_39" x1="888.001" y1="-1.4542e-05" x2="888.001" y2="677" gradientUnits="userSpaceOnUse">
<stop stop-color="#D9EFFA"/>
<stop offset="1" stop-color="#D9EFFA"/>
</linearGradient>
</defs>
</svg>
