<svg width="377" height="268" viewBox="0 0 377 268" fill="none" xmlns="http://www.w3.org/2000/svg">
<circle cx="91.4084" cy="141.342" r="90.4157" fill="white"/>
<circle cx="229.411" cy="74.7201" r="73.7602" fill="white"/>
<circle cx="294.844" cy="159.188" r="82.0879" fill="white"/>
<circle cx="199.67" cy="204.396" r="63.0531" fill="white"/>
<ellipse cx="191.341" cy="149.67" rx="59.484" ry="44.0182" fill="white"/>
<mask id="mask0_569_600" style="mask-type:alpha" maskUnits="userSpaceOnUse" x="0" y="0" width="377" height="268">
<circle cx="91.4084" cy="141.342" r="90.4157" fill="white"/>
<circle cx="229.411" cy="74.7201" r="73.7602" fill="white"/>
<circle cx="294.844" cy="159.188" r="82.0879" fill="white"/>
<circle cx="199.67" cy="204.396" r="63.0531" fill="white"/>
<ellipse cx="191.341" cy="149.67" rx="59.484" ry="44.0182" fill="white"/>
</mask>
<g mask="url(#mask0_569_600)">
<path d="M35.4931 144.911C24.0722 128.731 7.73393 132.618 0.992409 136.583L-21.6115 144.911L-34.698 190.119L78.3216 256.741C112.426 273 182.3 308.135 188.962 318.605C197.29 331.691 303.171 318.605 311.499 318.605C318.161 318.605 361.862 271.811 382.88 248.413L415.001 152.049V72.3408L303.171 77.0995C283.185 80.9065 279.774 96.9273 280.567 104.462C235.835 96.8479 211.169 136.98 204.428 157.998C195.862 137.059 180.238 127.859 173.496 125.876C186.82 136.345 183.807 151.653 180.634 157.998C151.13 128.493 106.477 136.98 87.8391 144.911C66.9007 132.538 44.2175 139.756 35.4931 144.911Z" fill="#E7F5FE"/>
</g>
<path d="M129.478 169.894C98.0704 206.06 33.907 184.963 5.75122 169.894C43.821 240.323 113.616 226.206 143.754 210.343C180.872 288.386 233.773 250.792 255.584 222.24C350.758 230.806 376.138 184.567 376.931 160.377C339.813 184.17 294.05 188.533 275.809 187.739C284.374 161.091 283.343 138.566 281.757 130.635C247.494 252.458 165.961 207.567 129.478 169.894Z" fill="#B1D9FD"/>
</svg>
