<svg width="492" height="243" viewBox="0 0 492 243" fill="none" xmlns="http://www.w3.org/2000/svg">
<path d="M14.4107 90.3859C-22.0012 133.56 23.7736 163.731 41.9804 163.731C45.9117 189.345 62.6374 198.804 70.5088 200.333C99.0373 204.544 116.833 187.451 120.053 177.542C121.837 185.271 128.559 199.259 131.697 205.287C140.037 218.829 165.684 245.22 201.554 242.446C246.392 238.977 261.717 217.744 279.442 183.138C312.36 204.661 341.402 194.101 367.232 177.885C385.671 190.505 405.293 183.143 412.799 177.885C422.396 183.993 428.643 185.793 441.881 186.319C456.519 186.901 486.843 178.874 491.03 142.114C494.288 89.5335 450.796 80.4628 428.643 82.5001C431.96 62.0059 424.094 17.3217 366.095 2.53774C322.311 -9.40336 291.686 23.9304 281.847 42.0899C280.613 39.6231 276.472 33.6324 269.772 29.4039C256.373 18.1645 237.703 24.7208 230.043 29.4039C226.162 19.66 212.454 0.17212 188.673 0.17212C152.604 -1.21513 144.153 28.5245 144.436 43.5678H136.133C94.9348 42.3193 76.3124 74.2596 72.151 90.3859C48.8471 70.8273 20.0261 83.7249 14.4107 90.3859Z" fill="white"/>
<mask id="mask0_569_550" style="mask-type:alpha" maskUnits="userSpaceOnUse" x="0" y="0" width="492" height="243">
<path d="M14.4107 90.3859C-22.0012 133.56 23.7736 163.731 41.9804 163.731C45.9117 189.345 62.6374 198.804 70.5088 200.333C99.0373 204.544 116.833 187.451 120.053 177.542C121.837 185.271 128.559 199.259 131.697 205.287C140.037 218.829 165.684 245.22 201.554 242.446C246.392 238.977 261.717 217.744 279.442 183.138C312.36 204.661 341.402 194.101 367.232 177.885C385.671 190.505 405.293 183.143 412.799 177.885C422.396 183.993 428.643 185.793 441.881 186.319C456.519 186.901 486.843 178.874 491.03 142.114C494.288 89.5335 450.796 80.4628 428.643 82.5001C431.96 62.0059 424.094 17.3217 366.095 2.53774C322.311 -9.40336 291.686 23.9304 281.847 42.0899C280.613 39.6231 276.472 33.6324 269.772 29.4039C256.373 18.1645 237.703 24.7208 230.043 29.4039C226.162 19.66 212.454 0.17212 188.673 0.17212C152.604 -1.21513 144.153 28.5245 144.436 43.5678H136.133C94.9348 42.3193 76.3124 74.2596 72.151 90.3859C48.8471 70.8273 20.0261 83.7249 14.4107 90.3859Z" fill="white"/>
</mask>
<g mask="url(#mask0_569_550)">
<path d="M431.463 132.202C449.667 101.95 482.105 111.565 496.049 120.154C506.052 132.079 525.565 157.908 523.585 165.827C521.11 175.727 486.462 207.075 464.188 222.749C441.915 238.423 417.166 249.972 386.643 259.046C356.12 268.121 281.049 291.219 260.426 297.819C243.927 303.099 96.8107 268.121 25.3151 249.972L-28.3069 120.154L8.85615 101.474C15.0292 123.88 29.8902 136.455 49.0953 133.483C63.4991 111.763 87.4865 106.924 115.669 106.924C114.381 90.8199 124.418 77.4877 129.597 72.8347C142.17 59.9827 171.785 51.8791 190.784 69.7614C174.468 102.841 180.26 134.394 185.196 146.035C187.059 128.061 196.204 90.4363 217.885 83.7309C246.495 75.2374 264.882 92.4275 270.5 102.084C277.639 89.3677 301.755 63.5998 341.109 62.2612C390.302 60.588 415.065 104.426 431.463 132.202Z" fill="#E7F5FE"/>
</g>
<path d="M118.687 151.993C107.091 184.512 70.5808 184.238 53.7751 180.036C86.2151 204.07 108.034 179.937 122.154 168.789C124.73 178.104 131.712 194.55 135.923 199.573C149.596 221.964 166.712 237.157 204.881 237.157C250.881 237.157 266.556 193.752 275.144 174.595C276.465 177.155 283.269 182.621 299.916 184.008C338.007 184.75 340.288 183.517 364.46 170.444L364.572 170.384C387.983 177.456 397.951 171.804 412.435 163.591L413.126 163.2C395.29 163.943 381.169 143.63 376.215 130.005C345.299 159.533 303.197 145.412 286.01 134.661C279.813 154.828 253.302 196.044 196.834 199.573C146.417 203.354 126.04 154.093 122.154 128.989C122.154 132.876 121.461 142.917 118.687 151.993Z" fill="#B1D9FD"/>
</svg>
