<svg width="304" height="205" viewBox="0 0 304 205" fill="none" xmlns="http://www.w3.org/2000/svg">
<path d="M299.889 85.4598C312.21 105.815 292.747 122.51 281.476 128.312C283.149 130.758 287.546 144.508 271.032 156.818C253.911 169.581 232.949 162.273 223.891 155.617C225.243 158.97 224.342 168.468 209.93 179.638C195.517 190.807 175.1 185.449 166.693 181.374C162.837 188.939 150.036 204.07 129.677 204.07C109.319 204.07 97.5152 188.939 94.1582 181.374C90.9286 182.364 82.4067 184.343 74.1556 184.343C51.6526 184.343 43.6828 160.434 42.2764 154.027C38.2759 155.402 30.2957 155.225 26.8056 154.964C19.9819 154.912 5.27172 149.464 1.02116 128.086C-3.2294 106.708 18.1464 96.4697 29.3656 94.0228C28.0289 89.0577 24.6335 68.6641 37.3863 55.2569C55.2606 36.4659 77.3418 41.3375 86.148 46.1221C85.1368 41.2215 86.3347 28.8066 99.2164 18.352C114.712 4.30486 137.01 11.0367 146.222 16.1586C150.686 10.9135 163.028 0.423191 176.687 0.423191C201.596 -1.18379 212.956 21.4033 215.523 32.8978C218.313 32.7862 226.236 33.2326 235.61 35.911C253.822 40.9997 260.384 61.0199 261.389 70.3939C269.089 66.9345 287.569 65.1044 299.889 85.4598Z" fill="#FEFFFF"/>
<mask id="mask0_569_544" style="mask-type:alpha" maskUnits="userSpaceOnUse" x="0" y="0" width="304" height="205">
<path d="M299.889 85.4598C312.21 105.815 292.747 122.51 281.476 128.312C283.149 130.758 287.546 144.508 271.032 156.818C253.911 169.581 232.949 162.273 223.891 155.617C225.243 158.97 224.342 168.468 209.93 179.638C195.517 190.807 175.1 185.449 166.693 181.374C162.837 188.939 150.036 204.07 129.677 204.07C109.319 204.07 97.5152 188.939 94.1582 181.374C90.9286 182.364 82.4067 184.343 74.1556 184.343C51.6526 184.343 43.6828 160.434 42.2764 154.027C38.2759 155.402 30.2957 155.225 26.8056 154.964C19.9819 154.912 5.27172 149.464 1.02116 128.086C-3.2294 106.708 18.1464 96.4697 29.3656 94.0228C28.0289 89.0577 24.6335 68.6641 37.3863 55.2569C55.2606 36.4659 77.3418 41.3375 86.148 46.1221C85.1368 41.2215 86.3347 28.8066 99.2164 18.352C114.712 4.30486 137.01 11.0367 146.222 16.1586C150.686 10.9135 163.028 0.423191 176.687 0.423191C201.596 -1.18379 212.956 21.4033 215.523 32.8978C218.313 32.7862 226.236 33.2326 235.61 35.911C253.822 40.9997 260.384 61.0199 261.389 70.3939C269.089 66.9345 287.569 65.1044 299.889 85.4598Z" fill="#FEFFFF"/>
</mask>
<g mask="url(#mask0_569_544)">
<path d="M42.3416 105.146C16.8737 102.635 8.2648 123.978 7.14381 134.963C0.915062 139.457 -11.4483 149.694 -11.0717 154.685C-10.6009 160.925 19.9985 206.469 27.0599 213.53C34.1212 220.592 105.677 262.96 115.427 262.489C123.228 262.113 237.713 220.906 293.981 200.349C306.575 166.292 326.848 100.05 307.181 107.535C287.514 115.02 270 110.653 263.701 107.535C263.456 109.002 262.087 113.992 258.564 122.211C246.676 144.08 227.682 148.813 219.671 148.446C227.193 141.841 240.549 121.881 233.797 94.8761C227.046 67.8709 200.496 63.1192 188.065 64.119C170.802 65.6885 140.854 76.5871 138.294 114.337C133.273 89.9454 140.387 75.1789 144.572 70.8447C141.433 68.0796 131.21 62.5495 115.427 62.5495C75.6111 61.4734 63.4152 96.6263 62.2943 114.337C60.1271 111.273 53.1025 105.146 42.3416 105.146Z" fill="#E7F5FE"/>
<path d="M44.7224 138.565C35.9613 150.733 20.5212 150.665 13.8962 149.111C25.5976 161.316 37.6738 156.813 42.2492 153.036C42.1531 153.469 42.5131 155.834 44.7224 161.834C58.3545 180.449 82.2168 176.933 92.444 172.849C95.3814 180.486 106.72 195.902 128.575 196.466C150.429 197.03 162.708 182.131 166.115 174.611L168.23 175.668C174.105 180.368 189.838 186.948 205.771 175.668C183.352 180.18 166.671 161.465 161.132 151.544C156.062 156.817 146.327 157.425 138.823 151.544C129.9 163.712 117.394 165.537 112.256 164.929C87.1084 166.146 83.8636 140.389 78.1851 125.585C75.5892 142.783 79.2667 155.465 81.4299 159.656C52.4289 170.202 46.5476 151.138 44.7224 138.565Z" fill="#AFD8FD"/>
</g>
</svg>
