<svg width="1447" height="508" viewBox="0 0 1447 508" fill="none" xmlns="http://www.w3.org/2000/svg">
<path d="M1322.95 332.43C1416.46 309.91 1444.58 420.342 1446.95 478.373V506.674H57.3364C40.1944 512.43 4.91038 500.64 0.909941 407.43C-4.09061 290.917 53.9158 292.917 85.4192 289.917C77.4183 139.5 176.429 131.233 226.935 145.901C222.268 128.232 230.044 60.5973 308.444 19.3868C425.457 -42.12 497.852 66.6019 515.264 96.07C550.425 70.6206 564.945 94.0469 575.775 107.231C689.724 54.4942 733.34 120.098 752.896 155.733C829.728 151.561 877.343 178.106 891.546 191.9C900.368 168.478 946.998 119.08 1062.95 108.859C1208.8 113.422 1254.77 251.351 1269.91 291.396C1322.05 268.271 1322.95 314.044 1322.95 332.43Z" fill="#E9F4FF"/>
</svg>
