<svg width="370" height="269" viewBox="0 0 370 269" fill="none" xmlns="http://www.w3.org/2000/svg">
<circle cx="81.2711" cy="155.216" r="80.3822" fill="white"/>
<circle cx="129.905" cy="199.797" r="56.0649" fill="white"/>
<circle cx="186.646" cy="143.058" r="56.0649" fill="white"/>
<circle cx="252.168" cy="193.719" r="74.3028" fill="white"/>
<circle cx="333.901" cy="155.216" r="35.8005" fill="white"/>
<circle cx="287.292" cy="82.9399" r="82.4086" fill="white"/>
<circle cx="178.541" cy="83.6155" r="69.5745" fill="white"/>
<mask id="mask0_569_580" style="mask-type:alpha" maskUnits="userSpaceOnUse" x="0" y="0" width="370" height="269">
<circle cx="81.2713" cy="155.216" r="80.3822" fill="white"/>
<circle cx="129.906" cy="199.797" r="56.0649" fill="white"/>
<circle cx="186.647" cy="143.058" r="56.0649" fill="white"/>
<circle cx="252.168" cy="193.719" r="74.3028" fill="white"/>
<circle cx="333.901" cy="155.216" r="35.8005" fill="white"/>
<circle cx="287.293" cy="82.9399" r="82.4086" fill="white"/>
<circle cx="178.541" cy="83.6155" r="69.5745" fill="white"/>
</mask>
<g mask="url(#mask0_569_580)">
<path d="M129.906 145.084C72.625 121.848 20.0276 140.806 0.888951 153.19L-4.51489 186.964L64.3841 288.962C121.575 301.346 239.469 326.113 253.519 326.113C267.569 326.113 329.623 306.299 358.894 296.392L427.793 238.301L374.43 109.284C303.099 16.3377 246.989 73.7085 227.85 114.012C196.508 72.4024 149.495 90.3704 129.906 104.556C91.5384 91.0461 49.9739 105.231 33.9875 114.012C83.7029 99.9621 118.648 128.873 129.906 145.084Z" fill="#E7F5FE"/>
</g>
<path d="M127.879 183.586C85.1884 214.388 33.5367 205.877 13.0471 197.771C46.0106 228.033 77.6681 228.393 89.3764 224.791C124.501 268.021 163.904 234.247 179.215 211.957C271.081 300.039 305.755 226.142 311.609 178.183C288.913 220.873 217.493 209.029 184.619 197.771C213.26 183.181 215.466 162.421 212.989 153.865C189.753 187.369 146.567 187.639 127.879 183.586Z" fill="#B1D9FD"/>
</svg>
