<svg width="224" height="615" viewBox="0 0 224 615" fill="none" xmlns="http://www.w3.org/2000/svg">
<path d="M42.3174 614.811V6.50684H223.105V614.811H42.3174Z" fill="#A5B8E6"/>
<path d="M1.24609 612.419V43.7468L42.6501 8.54883V614.811H1.24609V612.419Z" fill="#6B76A3"/>
<path d="M1.24609 470.146V28.9401L42.6501 0.580078V472.007H1.24609V470.146Z" fill="#6B76A3"/>
<path d="M42.3042 0.579102V11.9258V12.434H223.106V0.579102H42.3042Z" fill="#DAE5F9"/>
<rect x="42.3174" y="25.0566" width="17.22" height="17.22" fill="#BDD8F5"/>
<rect x="65.5029" y="25.0566" width="17.22" height="17.22" fill="#BDD8F5"/>
<rect x="88.6895" y="25.0566" width="17.22" height="17.22" fill="#BDD8F5"/>
<rect x="111.875" y="25.0566" width="17.22" height="17.22" fill="#BDD8F5"/>
<rect x="135.062" y="25.0566" width="17.22" height="17.22" fill="#BDD8F5"/>
<rect x="158.247" y="25.0566" width="17.22" height="17.22" fill="#BDD8F5"/>
<rect x="181.434" y="25.0566" width="17.22" height="17.22" fill="#BDD8F5"/>
<rect x="204.619" y="25.0566" width="17.22" height="17.22" fill="#BDD8F5"/>
<rect x="42.3174" y="48.2773" width="17.22" height="17.22" fill="#BDD8F5"/>
<rect x="65.5029" y="48.2773" width="17.22" height="17.22" fill="#BDD8F5"/>
<rect x="88.6895" y="48.2773" width="17.22" height="17.22" fill="#BDD8F5"/>
<rect x="111.875" y="48.2773" width="17.22" height="17.22" fill="#BDD8F5"/>
<rect x="135.062" y="48.2773" width="17.22" height="17.22" fill="#BDD8F5"/>
<rect x="158.247" y="48.2773" width="17.22" height="17.22" fill="#BDD8F5"/>
<rect x="181.434" y="48.2773" width="17.22" height="17.22" fill="#BDD8F5"/>
<rect x="204.619" y="48.2773" width="17.22" height="17.22" fill="#BDD8F5"/>
<rect x="42.3174" y="212.487" width="17.22" height="17.22" fill="#BDD8F5"/>
<rect x="65.5029" y="212.487" width="17.22" height="17.22" fill="#BDD8F5"/>
<rect x="88.6895" y="212.487" width="17.22" height="17.22" fill="#BDD8F5"/>
<rect x="111.875" y="212.487" width="17.22" height="17.22" fill="#BDD8F5"/>
<rect x="135.062" y="212.487" width="17.22" height="17.22" fill="#BDD8F5"/>
<rect x="158.247" y="212.487" width="17.22" height="17.22" fill="#BDD8F5"/>
<rect x="181.434" y="212.487" width="17.22" height="17.22" fill="#BDD8F5"/>
<rect x="204.619" y="212.487" width="17.22" height="17.22" fill="#BDD8F5"/>
<rect x="42.3174" y="235.707" width="17.22" height="17.22" fill="#BDD8F5"/>
<rect x="65.5029" y="235.707" width="17.22" height="17.22" fill="#BDD8F5"/>
<rect x="88.6895" y="235.707" width="17.22" height="17.22" fill="#BDD8F5"/>
<rect x="111.875" y="235.707" width="17.22" height="17.22" fill="#BDD8F5"/>
<rect x="135.062" y="235.707" width="17.22" height="17.22" fill="#BDD8F5"/>
<rect x="158.247" y="235.707" width="17.22" height="17.22" fill="#BDD8F5"/>
<rect x="181.434" y="235.707" width="17.22" height="17.22" fill="#BDD8F5"/>
<rect x="204.619" y="235.707" width="17.22" height="17.22" fill="#BDD8F5"/>
<rect x="42.3174" y="118.772" width="17.22" height="17.22" fill="#BDD8F5"/>
<rect x="65.5029" y="118.772" width="17.22" height="17.22" fill="#BDD8F5"/>
<rect x="88.6895" y="118.772" width="17.22" height="17.22" fill="#BDD8F5"/>
<rect x="111.875" y="118.772" width="17.22" height="17.22" fill="#BDD8F5"/>
<rect x="135.062" y="118.772" width="17.22" height="17.22" fill="#BDD8F5"/>
<rect x="158.247" y="118.772" width="17.22" height="17.22" fill="#BDD8F5"/>
<rect x="181.434" y="118.772" width="17.22" height="17.22" fill="#BDD8F5"/>
<rect x="204.619" y="118.772" width="17.22" height="17.22" fill="#BDD8F5"/>
<rect x="42.3174" y="141.992" width="17.22" height="17.22" fill="#BDD8F5"/>
<rect x="65.5029" y="141.992" width="17.22" height="17.22" fill="#BDD8F5"/>
<rect x="88.6895" y="141.992" width="17.22" height="17.22" fill="#BDD8F5"/>
<rect x="111.875" y="141.992" width="17.22" height="17.22" fill="#BDD8F5"/>
<rect x="135.062" y="141.992" width="17.22" height="17.22" fill="#BDD8F5"/>
<rect x="158.247" y="141.992" width="17.22" height="17.22" fill="#BDD8F5"/>
<rect x="181.434" y="141.992" width="17.22" height="17.22" fill="#BDD8F5"/>
<rect x="204.619" y="141.992" width="17.22" height="17.22" fill="#BDD8F5"/>
<rect x="42.3174" y="306.203" width="17.22" height="17.22" fill="#BDD8F5"/>
<rect x="65.5029" y="306.203" width="17.22" height="17.22" fill="#BDD8F5"/>
<rect x="88.6895" y="306.203" width="17.22" height="17.22" fill="#BDD8F5"/>
<rect x="111.875" y="306.203" width="17.22" height="17.22" fill="#BDD8F5"/>
<rect x="135.062" y="306.203" width="17.22" height="17.22" fill="#BDD8F5"/>
<rect x="158.247" y="306.203" width="17.22" height="17.22" fill="#BDD8F5"/>
<rect x="181.434" y="306.203" width="17.22" height="17.22" fill="#BDD8F5"/>
<rect x="204.619" y="306.203" width="17.22" height="17.22" fill="#BDD8F5"/>
<rect x="42.3174" y="329.424" width="17.22" height="17.22" fill="#BDD8F5"/>
<rect x="65.5029" y="329.424" width="17.22" height="17.22" fill="#BDD8F5"/>
<rect x="88.6895" y="329.424" width="17.22" height="17.22" fill="#BDD8F5"/>
<rect x="111.875" y="329.424" width="17.22" height="17.22" fill="#BDD8F5"/>
<rect x="135.062" y="329.424" width="17.22" height="17.22" fill="#BDD8F5"/>
<rect x="158.247" y="329.424" width="17.22" height="17.22" fill="#BDD8F5"/>
<rect x="181.434" y="329.424" width="17.22" height="17.22" fill="#BDD8F5"/>
<rect x="204.619" y="329.424" width="17.22" height="17.22" fill="#BDD8F5"/>
<rect x="42.3174" y="470.413" width="17.22" height="17.22" fill="#BDD8F5"/>
<rect x="65.5029" y="470.413" width="17.22" height="17.22" fill="#BDD8F5"/>
<rect x="88.6895" y="470.413" width="17.22" height="17.22" fill="#BDD8F5"/>
<rect x="111.875" y="470.413" width="17.22" height="17.22" fill="#BDD8F5"/>
<rect x="135.062" y="470.413" width="17.22" height="17.22" fill="#BDD8F5"/>
<rect x="158.247" y="470.413" width="17.22" height="17.22" fill="#BDD8F5"/>
<rect x="181.434" y="470.413" width="17.22" height="17.22" fill="#BDD8F5"/>
<rect x="204.619" y="470.413" width="17.22" height="17.22" fill="#BDD8F5"/>
<rect x="42.3174" y="493.633" width="17.22" height="17.22" fill="#BDD8F5"/>
<rect x="65.5029" y="493.633" width="17.22" height="17.22" fill="#BDD8F5"/>
<rect x="88.6895" y="493.633" width="17.22" height="17.22" fill="#BDD8F5"/>
<rect x="111.875" y="493.633" width="17.22" height="17.22" fill="#BDD8F5"/>
<rect x="135.062" y="493.633" width="17.22" height="17.22" fill="#BDD8F5"/>
<rect x="158.247" y="493.633" width="17.22" height="17.22" fill="#BDD8F5"/>
<rect x="181.434" y="493.633" width="17.22" height="17.22" fill="#BDD8F5"/>
<rect x="204.619" y="493.633" width="17.22" height="17.22" fill="#BDD8F5"/>
<rect x="42.3174" y="71.915" width="17.22" height="17.22" fill="#BDD8F5"/>
<rect x="65.5029" y="71.915" width="17.22" height="17.22" fill="#BDD8F5"/>
<rect x="88.6895" y="71.915" width="17.22" height="17.22" fill="#BDD8F5"/>
<rect x="111.875" y="71.915" width="17.22" height="17.22" fill="#BDD8F5"/>
<rect x="135.062" y="71.915" width="17.22" height="17.22" fill="#BDD8F5"/>
<rect x="158.247" y="71.915" width="17.22" height="17.22" fill="#BDD8F5"/>
<rect x="181.434" y="71.915" width="17.22" height="17.22" fill="#BDD8F5"/>
<rect x="204.619" y="71.915" width="17.22" height="17.22" fill="#BDD8F5"/>
<rect x="42.3174" y="95.1348" width="17.22" height="17.22" fill="#BDD8F5"/>
<rect x="65.5029" y="95.1348" width="17.22" height="17.22" fill="#BDD8F5"/>
<rect x="88.6895" y="95.1348" width="17.22" height="17.22" fill="#BDD8F5"/>
<rect x="111.875" y="95.1348" width="17.22" height="17.22" fill="#BDD8F5"/>
<rect x="135.062" y="95.1348" width="17.22" height="17.22" fill="#BDD8F5"/>
<rect x="158.247" y="95.1348" width="17.22" height="17.22" fill="#BDD8F5"/>
<rect x="181.434" y="95.1348" width="17.22" height="17.22" fill="#BDD8F5"/>
<rect x="204.619" y="95.1348" width="17.22" height="17.22" fill="#BDD8F5"/>
<rect x="42.3174" y="259.346" width="17.22" height="17.22" fill="#BDD8F5"/>
<rect x="65.5029" y="259.346" width="17.22" height="17.22" fill="#BDD8F5"/>
<rect x="88.6895" y="259.346" width="17.22" height="17.22" fill="#BDD8F5"/>
<rect x="111.875" y="259.346" width="17.22" height="17.22" fill="#BDD8F5"/>
<rect x="135.062" y="259.346" width="17.22" height="17.22" fill="#BDD8F5"/>
<rect x="158.247" y="259.346" width="17.22" height="17.22" fill="#BDD8F5"/>
<rect x="181.434" y="259.346" width="17.22" height="17.22" fill="#BDD8F5"/>
<rect x="204.619" y="259.346" width="17.22" height="17.22" fill="#BDD8F5"/>
<rect x="42.3174" y="282.566" width="17.22" height="17.22" fill="#BDD8F5"/>
<rect x="65.5029" y="282.566" width="17.22" height="17.22" fill="#BDD8F5"/>
<rect x="88.6895" y="282.566" width="17.22" height="17.22" fill="#BDD8F5"/>
<rect x="111.875" y="282.566" width="17.22" height="17.22" fill="#BDD8F5"/>
<rect x="135.062" y="282.566" width="17.22" height="17.22" fill="#BDD8F5"/>
<rect x="158.247" y="282.566" width="17.22" height="17.22" fill="#BDD8F5"/>
<rect x="181.434" y="282.566" width="17.22" height="17.22" fill="#BDD8F5"/>
<rect x="204.619" y="282.566" width="17.22" height="17.22" fill="#BDD8F5"/>
<rect x="42.3174" y="165.63" width="17.22" height="17.22" fill="#BDD8F5"/>
<rect x="65.5029" y="165.63" width="17.22" height="17.22" fill="#BDD8F5"/>
<rect x="88.6895" y="165.63" width="17.22" height="17.22" fill="#BDD8F5"/>
<rect x="111.875" y="165.63" width="17.22" height="17.22" fill="#BDD8F5"/>
<rect x="135.062" y="165.63" width="17.22" height="17.22" fill="#BDD8F5"/>
<rect x="158.247" y="165.63" width="17.22" height="17.22" fill="#BDD8F5"/>
<rect x="181.434" y="165.63" width="17.22" height="17.22" fill="#BDD8F5"/>
<rect x="204.619" y="165.63" width="17.22" height="17.22" fill="#BDD8F5"/>
<rect x="42.3174" y="188.85" width="17.22" height="17.22" fill="#BDD8F5"/>
<rect x="65.5029" y="188.85" width="17.22" height="17.22" fill="#BDD8F5"/>
<rect x="88.6895" y="188.85" width="17.22" height="17.22" fill="#BDD8F5"/>
<rect x="111.875" y="188.85" width="17.22" height="17.22" fill="#BDD8F5"/>
<rect x="135.062" y="188.85" width="17.22" height="17.22" fill="#BDD8F5"/>
<rect x="158.247" y="188.85" width="17.22" height="17.22" fill="#BDD8F5"/>
<rect x="181.434" y="188.85" width="17.22" height="17.22" fill="#BDD8F5"/>
<rect x="204.619" y="188.85" width="17.22" height="17.22" fill="#BDD8F5"/>
<rect x="42.3174" y="353.062" width="17.22" height="17.22" fill="#BDD8F5"/>
<rect x="65.5029" y="353.062" width="17.22" height="17.22" fill="#BDD8F5"/>
<rect x="88.6895" y="353.062" width="17.22" height="17.22" fill="#BDD8F5"/>
<rect x="111.875" y="353.062" width="17.22" height="17.22" fill="#BDD8F5"/>
<rect x="135.062" y="353.062" width="17.22" height="17.22" fill="#BDD8F5"/>
<rect x="158.247" y="353.062" width="17.22" height="17.22" fill="#BDD8F5"/>
<rect x="181.434" y="353.062" width="17.22" height="17.22" fill="#BDD8F5"/>
<rect x="204.619" y="353.062" width="17.22" height="17.22" fill="#BDD8F5"/>
<rect x="42.3174" y="376.281" width="17.22" height="17.22" fill="#BDD8F5"/>
<rect x="65.5029" y="376.281" width="17.22" height="17.22" fill="#BDD8F5"/>
<rect x="88.6895" y="376.281" width="17.22" height="17.22" fill="#BDD8F5"/>
<rect x="111.875" y="376.281" width="17.22" height="17.22" fill="#BDD8F5"/>
<rect x="135.062" y="376.281" width="17.22" height="17.22" fill="#BDD8F5"/>
<rect x="158.247" y="376.281" width="17.22" height="17.22" fill="#BDD8F5"/>
<rect x="181.434" y="376.281" width="17.22" height="17.22" fill="#BDD8F5"/>
<rect x="204.619" y="376.281" width="17.22" height="17.22" fill="#BDD8F5"/>
<rect x="42.3174" y="517.271" width="17.22" height="17.22" fill="#BDD8F5"/>
<rect x="65.5029" y="517.271" width="17.22" height="17.22" fill="#BDD8F5"/>
<rect x="88.6895" y="517.271" width="17.22" height="17.22" fill="#BDD8F5"/>
<rect x="111.875" y="517.271" width="17.22" height="17.22" fill="#BDD8F5"/>
<rect x="135.062" y="517.271" width="17.22" height="17.22" fill="#BDD8F5"/>
<rect x="158.247" y="517.271" width="17.22" height="17.22" fill="#BDD8F5"/>
<rect x="181.434" y="517.271" width="17.22" height="17.22" fill="#BDD8F5"/>
<rect x="204.619" y="517.271" width="17.22" height="17.22" fill="#BDD8F5"/>
<rect x="42.3174" y="540.492" width="17.22" height="17.22" fill="#BDD8F5"/>
<rect x="65.5029" y="540.492" width="17.22" height="17.22" fill="#BDD8F5"/>
<rect x="88.6895" y="540.492" width="17.22" height="17.22" fill="#BDD8F5"/>
<rect x="111.875" y="540.492" width="17.22" height="17.22" fill="#BDD8F5"/>
<rect x="135.062" y="540.492" width="17.22" height="17.22" fill="#BDD8F5"/>
<rect x="158.247" y="540.492" width="17.22" height="17.22" fill="#BDD8F5"/>
<rect x="181.434" y="540.492" width="17.22" height="17.22" fill="#BDD8F5"/>
<rect x="204.619" y="540.492" width="17.22" height="17.22" fill="#BDD8F5"/>
<rect x="42.3174" y="399.919" width="17.22" height="17.22" fill="#BDD8F5"/>
<rect x="65.5029" y="399.919" width="17.22" height="17.22" fill="#BDD8F5"/>
<rect x="88.6895" y="399.919" width="17.22" height="17.22" fill="#BDD8F5"/>
<rect x="111.875" y="399.919" width="17.22" height="17.22" fill="#BDD8F5"/>
<rect x="135.062" y="399.919" width="17.22" height="17.22" fill="#BDD8F5"/>
<rect x="158.247" y="399.919" width="17.22" height="17.22" fill="#BDD8F5"/>
<rect x="181.434" y="399.919" width="17.22" height="17.22" fill="#BDD8F5"/>
<rect x="204.619" y="399.919" width="17.22" height="17.22" fill="#BDD8F5"/>
<rect x="42.3174" y="423.139" width="17.22" height="17.22" fill="#BDD8F5"/>
<rect x="65.5029" y="423.139" width="17.22" height="17.22" fill="#BDD8F5"/>
<rect x="88.6895" y="423.139" width="17.22" height="17.22" fill="#BDD8F5"/>
<rect x="111.875" y="423.139" width="17.22" height="17.22" fill="#BDD8F5"/>
<rect x="135.062" y="423.139" width="17.22" height="17.22" fill="#BDD8F5"/>
<rect x="158.247" y="423.139" width="17.22" height="17.22" fill="#BDD8F5"/>
<rect x="181.434" y="423.139" width="17.22" height="17.22" fill="#BDD8F5"/>
<rect x="204.619" y="423.139" width="17.22" height="17.22" fill="#BDD8F5"/>
<rect x="42.3174" y="564.129" width="17.22" height="17.22" fill="#BDD8F5"/>
<rect x="65.5029" y="564.129" width="17.22" height="17.22" fill="#BDD8F5"/>
<rect x="88.6895" y="564.129" width="17.22" height="17.22" fill="#BDD8F5"/>
<rect x="111.875" y="564.129" width="17.22" height="17.22" fill="#BDD8F5"/>
<rect x="135.062" y="564.129" width="17.22" height="17.22" fill="#BDD8F5"/>
<rect x="158.247" y="564.129" width="17.22" height="17.22" fill="#BDD8F5"/>
<rect x="181.434" y="564.129" width="17.22" height="17.22" fill="#BDD8F5"/>
<rect x="204.619" y="564.129" width="17.22" height="17.22" fill="#BDD8F5"/>
<rect x="42.3174" y="587.35" width="17.22" height="17.22" fill="#BDD8F5"/>
<rect x="65.5029" y="587.35" width="17.22" height="17.22" fill="#BDD8F5"/>
<rect x="88.6895" y="587.35" width="17.22" height="17.22" fill="#BDD8F5"/>
<rect x="111.875" y="587.35" width="17.22" height="17.22" fill="#BDD8F5"/>
<rect x="135.062" y="587.35" width="17.22" height="17.22" fill="#BDD8F5"/>
<rect x="158.247" y="587.35" width="17.22" height="17.22" fill="#BDD8F5"/>
<rect x="181.434" y="587.35" width="17.22" height="17.22" fill="#BDD8F5"/>
<rect x="204.619" y="587.35" width="17.22" height="17.22" fill="#BDD8F5"/>
<rect x="42.3174" y="446.776" width="17.22" height="17.22" fill="#BDD8F5"/>
<rect x="65.502" y="446.776" width="17.22" height="17.22" fill="#BDD8F5"/>
<rect x="88.688" y="446.776" width="17.22" height="17.22" fill="#BDD8F5"/>
<rect x="111.874" y="446.776" width="17.22" height="17.22" fill="#BDD8F5"/>
<rect x="135.06" y="446.776" width="17.22" height="17.22" fill="#BDD8F5"/>
<rect x="158.246" y="446.776" width="17.22" height="17.22" fill="#BDD8F5"/>
<rect x="181.432" y="446.776" width="17.22" height="17.22" fill="#BDD8F5"/>
<rect x="204.618" y="446.776" width="17.22" height="17.22" fill="#BDD8F5"/>
<rect x="42.3174" y="610.986" width="17.22" height="3.82502" fill="#BDD8F5"/>
<rect x="65.502" y="610.986" width="17.22" height="3.82502" fill="#BDD8F5"/>
<rect x="88.688" y="610.986" width="17.22" height="3.82502" fill="#BDD8F5"/>
<rect x="111.874" y="610.986" width="17.22" height="3.82502" fill="#BDD8F5"/>
<rect x="135.06" y="610.986" width="17.22" height="3.82502" fill="#BDD8F5"/>
<rect x="158.246" y="610.986" width="17.22" height="3.82502" fill="#BDD8F5"/>
<rect x="181.432" y="610.986" width="17.22" height="3.82502" fill="#BDD8F5"/>
<rect x="204.618" y="610.986" width="17.22" height="3.82502" fill="#BDD8F5"/>
<path d="M1.20361 28.9316L42.304 0.579102V12.2277L1.20361 39.4813V28.9316Z" fill="#A49FBD"/>
<path d="M42.65 42.3054V25.0781L34.5396 30.6761V47.2664L42.65 42.3054Z" fill="#ACA7C5"/>
<path d="M42.65 65.5046V48.2773L34.5396 53.8753V70.4656L42.65 65.5046Z" fill="#ACA7C5"/>
<path d="M42.65 89.1423V71.915L34.5396 77.513V94.1033L42.65 89.1423Z" fill="#ACA7C5"/>
<path d="M42.65 112.362V95.1348L34.5396 100.733V117.323L42.65 112.362Z" fill="#ACA7C5"/>
<path d="M42.65 136V118.772L34.5396 124.37V140.961L42.65 136Z" fill="#ACA7C5"/>
<path d="M42.65 159.219V141.992L34.5396 147.59V164.18L42.65 159.219Z" fill="#ACA7C5"/>
<path d="M42.65 182.857V165.63L34.5396 171.228V187.818L42.65 182.857Z" fill="#ACA7C5"/>
<path d="M42.65 206.078V188.851L34.5396 194.449V211.039L42.65 206.078Z" fill="#ACA7C5"/>
<path d="M42.3174 229.715V212.487L34.207 218.085V234.676L42.3174 229.715Z" fill="#ACA7C5"/>
<path d="M42.3174 252.935V235.708L34.207 241.306V257.896L42.3174 252.935Z" fill="#ACA7C5"/>
<path d="M42.3174 276.573V259.346L34.207 264.944V281.534L42.3174 276.573Z" fill="#ACA7C5"/>
<path d="M42.3174 299.793V282.565L34.207 288.163V304.754L42.3174 299.793Z" fill="#ACA7C5"/>
<path d="M42.6402 458.739V441.512L34.5298 447.11V463.7L42.6402 458.739Z" fill="#ACA7C5"/>
<path d="M42.6402 344.818V327.591L34.5298 333.189V349.779L42.6402 344.818Z" fill="#ACA7C5"/>
<path d="M42.6402 435.606V418.379L34.5298 423.977V440.567L42.6402 435.606Z" fill="#ACA7C5"/>
<path d="M42.6402 321.685V304.458L34.5298 310.056V326.646L42.6402 321.685Z" fill="#ACA7C5"/>
<path d="M42.6402 481.959V464.731L34.5298 470.329V486.92L42.6402 481.959Z" fill="#ACA7C5"/>
<path d="M42.6402 368.038V350.811L34.5298 356.408V372.999L42.6402 368.038Z" fill="#ACA7C5"/>
<path d="M42.6402 505.597V488.37L34.5298 493.968V510.558L42.6402 505.597Z" fill="#ACA7C5"/>
<path d="M42.6402 391.676V374.449L34.5298 380.047V396.637L42.6402 391.676Z" fill="#ACA7C5"/>
<path d="M42.6402 414.809V397.582L34.5298 403.18V419.77L42.6402 414.809Z" fill="#ACA7C5"/>
<path d="M42.6402 528.816V511.589L34.5298 517.187V533.777L42.6402 528.816Z" fill="#ACA7C5"/>
<path d="M42.6402 552.454V535.227L34.5298 540.824V557.415L42.6402 552.454Z" fill="#ACA7C5"/>
<path d="M42.6402 575.674V558.446L34.5298 564.044V580.635L42.6402 575.674Z" fill="#ACA7C5"/>
<path d="M42.6402 597.862V580.635L34.5298 586.233V602.823L42.6402 597.862Z" fill="#ACA7C5"/>
<path d="M31.5372 50.0007V32.7734L23.4268 38.3714V54.9617L31.5372 50.0007Z" fill="#ACA7C5"/>
<path d="M31.5372 73.1999V55.9727L23.4268 61.5706V78.1609L31.5372 73.1999Z" fill="#ACA7C5"/>
<path d="M31.5372 96.8376V79.6104L23.4268 85.2083V101.799L31.5372 96.8376Z" fill="#ACA7C5"/>
<path d="M31.5372 120.057V102.83L23.4268 108.428V125.018L31.5372 120.057Z" fill="#ACA7C5"/>
<path d="M31.5372 143.695V126.468L23.4268 132.066V148.656L31.5372 143.695Z" fill="#ACA7C5"/>
<path d="M31.5372 166.915V149.688L23.4268 155.285V171.876L31.5372 166.915Z" fill="#ACA7C5"/>
<path d="M31.5372 190.552V173.325L23.4268 178.923V195.513L31.5372 190.552Z" fill="#ACA7C5"/>
<path d="M31.5372 213.773V196.546L23.4268 202.144V218.734L31.5372 213.773Z" fill="#ACA7C5"/>
<path d="M31.2047 237.41V220.183L23.0942 225.781V242.371L31.2047 237.41Z" fill="#ACA7C5"/>
<path d="M31.2047 260.631V243.403L23.0942 249.001V265.592L31.2047 260.631Z" fill="#ACA7C5"/>
<path d="M31.2047 284.268V267.041L23.0942 272.639V289.229L31.2047 284.268Z" fill="#ACA7C5"/>
<path d="M31.2047 307.488V290.261L23.0942 295.859V312.449L31.2047 307.488Z" fill="#ACA7C5"/>
<path d="M31.5274 466.434V449.207L23.417 454.805V471.395L31.5274 466.434Z" fill="#ACA7C5"/>
<path d="M31.5274 352.513V335.286L23.417 340.884V357.474L31.5274 352.513Z" fill="#ACA7C5"/>
<path d="M31.5274 443.301V426.074L23.417 431.672V448.262L31.5274 443.301Z" fill="#ACA7C5"/>
<path d="M31.5274 329.381V312.153L23.417 317.751V334.342L31.5274 329.381Z" fill="#ACA7C5"/>
<path d="M31.5274 489.654V472.427L23.417 478.025V494.615L31.5274 489.654Z" fill="#ACA7C5"/>
<path d="M31.5274 375.733V358.506L23.417 364.104V380.694L31.5274 375.733Z" fill="#ACA7C5"/>
<path d="M31.5274 513.293V496.065L23.417 501.663V518.254L31.5274 513.293Z" fill="#ACA7C5"/>
<path d="M31.5274 399.372V382.145L23.417 387.742V404.333L31.5274 399.372Z" fill="#ACA7C5"/>
<path d="M31.5274 422.505V405.277L23.417 410.875V427.466L31.5274 422.505Z" fill="#ACA7C5"/>
<path d="M31.5274 536.511V519.284L23.417 524.882V541.472L31.5274 536.511Z" fill="#ACA7C5"/>
<path d="M31.5274 560.149V542.922L23.417 548.52V565.11L31.5274 560.149Z" fill="#ACA7C5"/>
<path d="M31.5274 583.369V566.142L23.417 571.74V588.33L31.5274 583.369Z" fill="#ACA7C5"/>
<path d="M31.5274 605.557V588.33L23.417 593.928V610.518L31.5274 605.557Z" fill="#ACA7C5"/>
<path d="M20.4244 57.7507V40.5234L12.314 46.1214V62.7117L20.4244 57.7507Z" fill="#ACA7C5"/>
<path d="M20.4244 80.9499V63.7227L12.314 69.3206V85.9109L20.4244 80.9499Z" fill="#ACA7C5"/>
<path d="M20.4244 104.588V87.3604L12.314 92.9583V109.549L20.4244 104.588Z" fill="#ACA7C5"/>
<path d="M20.4244 127.807V110.58L12.314 116.178V132.768L20.4244 127.807Z" fill="#ACA7C5"/>
<path d="M20.4244 151.445V134.218L12.314 139.816V156.406L20.4244 151.445Z" fill="#ACA7C5"/>
<path d="M20.4244 174.666V157.438L12.314 163.036V179.627L20.4244 174.666Z" fill="#ACA7C5"/>
<path d="M20.4244 198.303V181.076L12.314 186.674V203.264L20.4244 198.303Z" fill="#ACA7C5"/>
<path d="M20.4244 221.524V204.297L12.314 209.895V226.485L20.4244 221.524Z" fill="#ACA7C5"/>
<path d="M20.0919 245.161V227.934L11.9814 233.532V250.122L20.0919 245.161Z" fill="#ACA7C5"/>
<path d="M20.0919 268.381V251.153L11.9814 256.751V273.342L20.0919 268.381Z" fill="#ACA7C5"/>
<path d="M20.0919 292.019V274.792L11.9814 280.39V296.98L20.0919 292.019Z" fill="#ACA7C5"/>
<path d="M20.0919 315V297.772L11.9814 303.37V319.961L20.0919 315Z" fill="#ACA7C5"/>
<path d="M20.4146 450.548V433.32L12.3042 438.918V455.509L20.4146 450.548Z" fill="#ACA7C5"/>
<path d="M20.4146 336.627V319.399L12.3042 324.997V341.588L20.4146 336.627Z" fill="#ACA7C5"/>
<path d="M20.4146 474.185V456.958L12.3042 462.556V479.146L20.4146 474.185Z" fill="#ACA7C5"/>
<path d="M20.4146 360.264V343.037L12.3042 348.635V365.225L20.4146 360.264Z" fill="#ACA7C5"/>
<path d="M20.4146 497.405V480.178L12.3042 485.776V502.366L20.4146 497.405Z" fill="#ACA7C5"/>
<path d="M20.4146 383.484V366.257L12.3042 371.855V388.445L20.4146 383.484Z" fill="#ACA7C5"/>
<path d="M20.4146 521.043V503.815L12.3042 509.413V526.004L20.4146 521.043Z" fill="#ACA7C5"/>
<path d="M20.4146 407.122V389.895L12.3042 395.492V412.083L20.4146 407.122Z" fill="#ACA7C5"/>
<path d="M20.4146 430.255V413.027L12.3042 418.625V435.216L20.4146 430.255Z" fill="#ACA7C5"/>
<path d="M20.4146 544.262V527.035L12.3042 532.633V549.223L20.4146 544.262Z" fill="#ACA7C5"/>
<path d="M20.4146 567.899V550.672L12.3042 556.27V572.86L20.4146 567.899Z" fill="#ACA7C5"/>
<path d="M20.4146 591.12V573.893L12.3042 579.491V596.081L20.4146 591.12Z" fill="#ACA7C5"/>
<path d="M9.31403 64.9147V47.6875L1.20361 53.2854V69.8758L9.31403 64.9147Z" fill="#ACA7C5"/>
<path d="M9.31403 88.114V70.8867L1.20361 76.4846V93.075L9.31403 88.114Z" fill="#ACA7C5"/>
<path d="M9.31403 111.752V94.5244L1.20361 100.122V116.713L9.31403 111.752Z" fill="#ACA7C5"/>
<path d="M9.31403 134.971V117.744L1.20361 123.342V139.932L9.31403 134.971Z" fill="#ACA7C5"/>
<path d="M9.31403 158.609V141.382L1.20361 146.98V163.57L9.31403 158.609Z" fill="#ACA7C5"/>
<path d="M9.31403 181.83V164.603L1.20361 170.2V186.791L9.31403 181.83Z" fill="#ACA7C5"/>
<path d="M9.31403 205.467V188.24L1.20361 193.838V210.428L9.31403 205.467Z" fill="#ACA7C5"/>
<path d="M9.31403 228.688V211.461L1.20361 217.059V233.649L9.31403 228.688Z" fill="#ACA7C5"/>
<path d="M8.98151 252.325V235.098L0.871094 240.696V257.286L8.98151 252.325Z" fill="#ACA7C5"/>
<path d="M8.98151 275.545V258.317L0.871094 263.915V280.506L8.98151 275.545Z" fill="#ACA7C5"/>
<path d="M8.98151 299.183V281.956L0.871094 287.554V304.144L8.98151 299.183Z" fill="#ACA7C5"/>
<path d="M8.98151 322.164V304.937L0.871094 310.534V327.125L8.98151 322.164Z" fill="#ACA7C5"/>
<path d="M9.30427 457.712V440.484L1.19385 446.082V462.673L9.30427 457.712Z" fill="#ACA7C5"/>
<path d="M9.30427 343.791V326.563L1.19385 332.161V348.752L9.30427 343.791Z" fill="#ACA7C5"/>
<path d="M9.30427 481.349V464.122L1.19385 469.72V486.31L9.30427 481.349Z" fill="#ACA7C5"/>
<path d="M9.30427 367.428V350.201L1.19385 355.799V372.389L9.30427 367.428Z" fill="#ACA7C5"/>
<path d="M9.30427 504.569V487.342L1.19385 492.94V509.53L9.30427 504.569Z" fill="#ACA7C5"/>
<path d="M9.30427 390.648V373.421L1.19385 379.019V395.609L9.30427 390.648Z" fill="#ACA7C5"/>
<path d="M9.30427 528.206V510.979L1.19385 516.576V533.167L9.30427 528.206Z" fill="#ACA7C5"/>
<path d="M9.30427 414.286V397.059L1.19385 402.657V419.247L9.30427 414.286Z" fill="#ACA7C5"/>
<path d="M9.30427 437.419V420.191L1.19385 425.789V442.38L9.30427 437.419Z" fill="#ACA7C5"/>
<path d="M9.30427 551.426V534.199L1.19385 539.797V556.387L9.30427 551.426Z" fill="#ACA7C5"/>
<path d="M9.30427 575.063V557.836L1.19385 563.434V580.024L9.30427 575.063Z" fill="#ACA7C5"/>
<path d="M9.30427 598.7V581.473L1.19385 587.071V603.661L9.30427 598.7Z" fill="#ACA7C5"/>
</svg>
