<svg width="125" height="282" viewBox="0 0 125 282" fill="none" xmlns="http://www.w3.org/2000/svg">
<path d="M0.347656 23.1758V281.474H25.9989V17.5947L0.347656 23.1758Z" fill="#A9B3CC"/>
<path d="M26.0459 281.474V21.9053H111.676V281.474H26.0459Z" fill="#CBD5EE"/>
<rect x="36.1562" y="27.3589" width="13.8082" height="19.7406" fill="#DAE4FD"/>
<rect x="36.1562" y="50.6997" width="13.8082" height="19.7406" fill="#DAE4FD"/>
<rect x="36.1562" y="74.0415" width="13.8082" height="19.7406" fill="#DAE4FD"/>
<rect x="36.1562" y="97.3833" width="13.8082" height="19.7406" fill="#DAE4FD"/>
<rect x="36.1562" y="120.725" width="13.8082" height="19.7406" fill="#DAE4FD"/>
<rect x="36.1562" y="144.067" width="13.8082" height="19.7406" fill="#DAE4FD"/>
<rect x="36.1562" y="167.409" width="13.8082" height="19.7406" fill="#DAE4FD"/>
<rect x="36.1562" y="190.75" width="13.8082" height="19.7406" fill="#DAE4FD"/>
<rect x="36.1562" y="214.092" width="13.8082" height="19.7406" fill="#DAE4FD"/>
<rect x="36.1562" y="237.434" width="13.8082" height="19.7406" fill="#DAE4FD"/>
<rect x="36.1562" y="260.776" width="13.8082" height="19.7406" fill="#DAE4FD"/>
<rect x="55.1392" y="27.3589" width="13.8082" height="19.7406" fill="#DAE4FD"/>
<rect x="55.1392" y="50.6997" width="13.8082" height="19.7406" fill="#DAE4FD"/>
<rect x="55.1392" y="74.0415" width="13.8082" height="19.7406" fill="#DAE4FD"/>
<rect x="55.1392" y="97.3833" width="13.8082" height="19.7406" fill="#DAE4FD"/>
<rect x="55.1392" y="120.725" width="13.8082" height="19.7406" fill="#DAE4FD"/>
<rect x="55.1392" y="144.067" width="13.8082" height="19.7406" fill="#DAE4FD"/>
<rect x="55.1392" y="167.409" width="13.8082" height="19.7406" fill="#DAE4FD"/>
<rect x="55.1392" y="190.75" width="13.8082" height="19.7406" fill="#DAE4FD"/>
<rect x="55.1392" y="214.092" width="13.8082" height="19.7406" fill="#DAE4FD"/>
<rect x="55.1392" y="237.434" width="13.8082" height="19.7406" fill="#DAE4FD"/>
<rect x="55.1392" y="260.776" width="13.8082" height="19.7406" fill="#DAE4FD"/>
<rect x="74.1221" y="27.3589" width="13.8082" height="19.7406" fill="#DAE4FD"/>
<rect x="74.1221" y="50.6997" width="13.8082" height="19.7406" fill="#DAE4FD"/>
<rect x="74.1221" y="74.0415" width="13.8082" height="19.7406" fill="#DAE4FD"/>
<rect x="74.1221" y="97.3833" width="13.8082" height="19.7406" fill="#DAE4FD"/>
<rect x="74.1221" y="120.725" width="13.8082" height="19.7406" fill="#DAE4FD"/>
<rect x="74.1221" y="144.067" width="13.8082" height="19.7406" fill="#DAE4FD"/>
<rect x="74.1221" y="167.409" width="13.8082" height="19.7406" fill="#DAE4FD"/>
<rect x="74.1221" y="190.75" width="13.8082" height="19.7406" fill="#DAE4FD"/>
<rect x="74.1221" y="214.092" width="13.8082" height="19.7406" fill="#DAE4FD"/>
<rect x="74.1221" y="237.434" width="13.8082" height="19.7406" fill="#DAE4FD"/>
<rect x="74.1221" y="260.776" width="13.8082" height="19.7406" fill="#DAE4FD"/>
<rect x="93.1045" y="27.3589" width="13.8082" height="19.7406" fill="#DAE4FD"/>
<rect x="93.1045" y="50.6997" width="13.8082" height="19.7406" fill="#DAE4FD"/>
<rect x="93.1045" y="74.0415" width="13.8082" height="19.7406" fill="#DAE4FD"/>
<rect x="93.1045" y="97.3833" width="13.8082" height="19.7406" fill="#DAE4FD"/>
<rect x="93.1045" y="120.725" width="13.8082" height="19.7406" fill="#DAE4FD"/>
<rect x="93.1045" y="144.067" width="13.8082" height="19.7406" fill="#DAE4FD"/>
<rect x="93.1045" y="167.409" width="13.8082" height="19.7406" fill="#DAE4FD"/>
<rect x="93.1045" y="190.75" width="13.8082" height="19.7406" fill="#DAE4FD"/>
<rect x="93.1045" y="214.092" width="13.8082" height="19.7406" fill="#DAE4FD"/>
<rect x="93.1045" y="237.434" width="13.8082" height="19.7406" fill="#DAE4FD"/>
<rect x="93.1045" y="260.776" width="13.8082" height="19.7406" fill="#DAE4FD"/>
<path d="M111.515 278.473V281.474H124.884V11.6157H123.934H25.999V27.1332H111.515V278.473Z" fill="#AFB0CC"/>
<path d="M25.9988 18.5846V11.6157L0.349609 20.141V26.3177L25.9988 18.5846Z" fill="#233F75"/>
<path d="M25.999 3.9624H104.004V11.6157H25.999V3.9624Z" fill="#B9D1FF"/>
<path d="M106.912 3.9624V0.871094H26.0503V3.9624H106.912Z" fill="#A5A8C6"/>
<path d="M26.0503 8.55261V0.871094L5.13135 8.60923L5.13145 15.5236L26.0503 8.55261Z" fill="#8188AD"/>
<path d="M26.0503 11.6112V3.96191L5.13135 11.6678L5.13145 18.5822L26.0503 11.6112Z" fill="#A6C1E9"/>
<rect x="25.9771" y="18.5811" width="88.812" height="3.31787" fill="#9498B3"/>
<rect x="111.471" y="281.475" width="259.575" height="3.31787" transform="rotate(-90 111.471 281.475)" fill="#9498B3"/>
</svg>
