<svg width="198" height="533" viewBox="0 0 198 533" fill="none" xmlns="http://www.w3.org/2000/svg">
<path d="M190.086 532.474V141.346H50.0864V532.474H190.086Z" fill="#9FA1D4"/>
<path d="M189.726 461.412C189.726 459.924 96.4628 419.37 49.8311 399.279V532.474H189.726C189.726 509.407 189.726 462.9 189.726 461.412Z" fill="#7E77AB"/>
<rect x="76.146" y="161.381" width="18.4625" height="18.4625" fill="#BDD3F8"/>
<rect x="99.2856" y="161.381" width="18.4625" height="18.4625" fill="#BDD3F8"/>
<rect x="122.425" y="161.381" width="18.4625" height="18.4625" fill="#BDD3F8"/>
<rect x="145.564" y="161.381" width="18.4625" height="18.4625" fill="#BDD3F8"/>
<rect x="76.146" y="208.646" width="18.4625" height="18.4625" fill="#BDD3F8"/>
<rect x="99.2856" y="208.646" width="18.4625" height="18.4625" fill="#BDD3F8"/>
<rect x="122.425" y="208.646" width="18.4625" height="18.4625" fill="#BDD3F8"/>
<rect x="145.564" y="208.646" width="18.4625" height="18.4625" fill="#BDD3F8"/>
<rect x="76.146" y="185.013" width="18.4625" height="18.4625" fill="#BDD3F8"/>
<rect x="99.2856" y="185.013" width="18.4625" height="18.4625" fill="#BDD3F8"/>
<rect x="122.425" y="185.013" width="18.4625" height="18.4625" fill="#BDD3F8"/>
<rect x="145.564" y="185.013" width="18.4625" height="18.4625" fill="#BDD3F8"/>
<rect x="76.146" y="232.278" width="18.4625" height="18.4625" fill="#BDD3F8"/>
<rect x="99.2856" y="232.278" width="18.4625" height="18.4625" fill="#BDD3F8"/>
<rect x="122.425" y="232.278" width="18.4625" height="18.4625" fill="#BDD3F8"/>
<rect x="145.564" y="232.278" width="18.4625" height="18.4625" fill="#BDD3F8"/>
<rect x="76.146" y="255.417" width="18.4625" height="18.4625" fill="#BDD3F8"/>
<rect x="99.2856" y="255.417" width="18.4625" height="18.4625" fill="#BDD3F8"/>
<rect x="122.425" y="255.417" width="18.4625" height="18.4625" fill="#BDD3F8"/>
<rect x="145.564" y="255.417" width="18.4625" height="18.4625" fill="#BDD3F8"/>
<rect x="76.146" y="302.682" width="18.4625" height="18.4625" fill="#BDD3F8"/>
<rect x="99.2856" y="302.682" width="18.4625" height="18.4625" fill="#BDD3F8"/>
<rect x="122.425" y="302.682" width="18.4625" height="18.4625" fill="#BDD3F8"/>
<rect x="145.564" y="302.682" width="18.4625" height="18.4625" fill="#FEFFF5"/>
<rect x="76.146" y="279.049" width="18.4625" height="18.4625" fill="#BDD3F8"/>
<rect x="99.2856" y="279.049" width="18.4625" height="18.4625" fill="#BDD3F8"/>
<rect x="122.425" y="279.049" width="18.4625" height="18.4625" fill="#BDD3F8"/>
<rect x="145.564" y="279.049" width="18.4625" height="18.4625" fill="#BDD3F8"/>
<rect x="76.146" y="326.314" width="18.4625" height="18.4625" fill="#BDD3F8"/>
<rect x="99.2856" y="326.314" width="18.4625" height="18.4625" fill="#BDD3F8"/>
<rect x="122.425" y="326.314" width="18.4625" height="18.4625" fill="#FEFFF5"/>
<rect x="145.564" y="326.314" width="18.4625" height="18.4625" fill="#BDD3F8"/>
<rect x="76.146" y="349.453" width="18.4625" height="18.4625" fill="#BDD3F8"/>
<rect x="99.2856" y="349.453" width="18.4625" height="18.4625" fill="#FEFFF5"/>
<rect x="122.425" y="349.453" width="18.4625" height="18.4625" fill="#BDD3F8"/>
<rect x="145.564" y="349.453" width="18.4625" height="18.4625" fill="#BDD3F8"/>
<rect x="76.146" y="396.718" width="18.4625" height="18.4625" fill="#FEFFF5"/>
<rect x="99.2856" y="396.718" width="18.4625" height="18.4625" fill="#BDD3F8"/>
<rect x="122.425" y="396.718" width="18.4625" height="18.4625" fill="#BDD3F8"/>
<rect x="145.564" y="396.718" width="18.4625" height="18.4625" fill="#BDD3F8"/>
<rect x="76.146" y="373.085" width="18.4625" height="18.4625" fill="#BDD3F8"/>
<rect x="99.2856" y="373.085" width="18.4625" height="18.4625" fill="#FEFFF5"/>
<rect x="122.425" y="373.085" width="18.4625" height="18.4625" fill="#BDD3F8"/>
<rect x="145.564" y="373.085" width="18.4625" height="18.4625" fill="#BDD3F8"/>
<rect x="76.146" y="420.35" width="18.4625" height="18.4625" fill="#9AAFD0"/>
<rect x="99.2856" y="420.35" width="18.4625" height="18.4625" fill="#9AAFD0"/>
<rect x="122.425" y="420.35" width="18.4625" height="18.4625" fill="#BDD3F8"/>
<rect x="145.564" y="420.35" width="18.4625" height="18.4625" fill="#FEFFF5"/>
<rect x="76.146" y="443.489" width="18.4625" height="18.4625" fill="#9AAFD0"/>
<rect x="99.2856" y="443.489" width="18.4625" height="18.4625" fill="#9AAFD0"/>
<rect x="122.425" y="443.489" width="18.4625" height="18.4625" fill="#9AAFD0"/>
<rect x="145.564" y="443.489" width="18.4625" height="18.4625" fill="#9AAFD0"/>
<rect x="76.146" y="490.754" width="18.4625" height="18.4625" fill="#9AAFD0"/>
<rect x="99.2856" y="490.754" width="18.4625" height="18.4625" fill="#D3D2D4"/>
<rect x="122.425" y="490.754" width="18.4625" height="18.4625" fill="#9AAFD0"/>
<rect x="145.564" y="490.754" width="18.4625" height="18.4625" fill="#9AAFD0"/>
<rect x="76.146" y="467.122" width="18.4625" height="18.4625" fill="#9AAFD0"/>
<rect x="99.2856" y="467.122" width="18.4625" height="18.4625" fill="#9AAFD0"/>
<rect x="122.425" y="467.122" width="18.4625" height="18.4625" fill="#D3D2D4"/>
<rect x="145.564" y="467.122" width="18.4625" height="18.4625" fill="#9AAFD0"/>
<rect x="76.146" y="514.386" width="18.4625" height="18.0883" fill="#D3D2D4"/>
<rect x="99.2856" y="514.386" width="18.4625" height="18.0883" fill="#9AAFD0"/>
<rect x="122.425" y="514.386" width="18.4625" height="18.0883" fill="#9AAFD0"/>
<rect x="145.564" y="514.386" width="18.4625" height="18.0883" fill="#9AAFD0"/>
<path d="M50.2241 141.673L0.308105 154.801V532.474H17.5425H50.2241V141.673Z" fill="#717EAA"/>
<path d="M50.2102 399.42L8.41908 439.21L0.212891 532.443H50.3489L50.2102 399.42Z" fill="#696A96"/>
<path d="M197.215 130.759V144.261H50.0864V130.759H197.215Z" fill="#6C79EF"/>
<path d="M0.150391 143.088C52.0443 50.2694 146.635 9.34061 189.88 0.902344V25.1533L49.5356 131.485C22.2672 142.635 32.2152 134.228 0.150391 143.088Z" fill="#6D81EB"/>
<path d="M190.086 0.686523V130.758H50.0864C79.1925 44.2836 155.547 8.01268 190.086 0.686523Z" fill="#98AFFF"/>
<path d="M0.150391 142.909L50.0864 130.759V144.259L0.150391 157.219V142.909Z" fill="#5761BA"/>
<path d="M38.8813 179.709V161.381L25.2661 166.094V183.767L38.8813 179.709Z" fill="#626494"/>
<path d="M38.8813 321.01V302.682L25.2661 307.395V325.068L38.8813 321.01Z" fill="#626494"/>
<path d="M38.8813 250.606V232.278L25.2661 236.991V254.664L38.8813 250.606Z" fill="#626494"/>
<path d="M38.8813 391.906V373.579L25.2661 378.292V395.965L38.8813 391.906Z" fill="#626494"/>
<path d="M38.8813 485.449V467.121L25.2661 471.834V489.508L38.8813 485.449Z" fill="#555684"/>
<path d="M38.8813 203.341V185.013L25.2661 189.726V207.4L38.8813 203.341Z" fill="#626494"/>
<path d="M38.8813 344.642V326.314L25.2661 331.027V348.7L38.8813 344.642Z" fill="#626494"/>
<path d="M38.8813 274.238V255.91L25.2661 260.623V278.297L38.8813 274.238Z" fill="#626494"/>
<path d="M38.8813 415.539V397.211L25.2661 401.924V419.597L38.8813 415.539Z" fill="#626494"/>
<path d="M38.8813 509.081V490.753L25.2661 495.466V513.14L38.8813 509.081Z" fill="#555684"/>
<path d="M38.8813 226.974V208.646L25.2661 213.359V231.033L38.8813 226.974Z" fill="#626494"/>
<path d="M38.8813 368.275V349.947L25.2661 354.66V372.333L38.8813 368.275Z" fill="#626494"/>
<path d="M38.8813 461.817V443.489L25.2661 448.202V465.876L38.8813 461.817Z" fill="#555684"/>
<path d="M38.8813 297.871V279.543L25.2661 284.256V301.929L38.8813 297.871Z" fill="#626494"/>
<path d="M38.8813 439.172V420.844L25.2661 425.557V443.23L38.8813 439.172Z" fill="#555684"/>
<path d="M38.8813 532.444V514.386L25.2661 519.099V532.444H38.8813Z" fill="#555684"/>
<path d="M20.3818 186.029V167.701L6.7666 172.414V190.087L20.3818 186.029Z" fill="#626494"/>
<path d="M20.3818 327.329V309.001L6.7666 313.714V331.388L20.3818 327.329Z" fill="#626494"/>
<path d="M20.3818 256.926V238.598L6.7666 243.311V260.984L20.3818 256.926Z" fill="#626494"/>
<path d="M20.3818 398.226V379.898L6.7666 384.611V402.285L20.3818 398.226Z" fill="#626494"/>
<path d="M20.3818 491.769V473.441L6.7666 478.154V495.827L20.3818 491.769Z" fill="#555684"/>
<path d="M20.3818 209.661V191.333L6.7666 196.046V213.72L20.3818 209.661Z" fill="#626494"/>
<path d="M20.3818 350.962V332.634L6.7666 337.347V355.02L20.3818 350.962Z" fill="#626494"/>
<path d="M20.3818 280.558V262.23L6.7666 266.943V284.617L20.3818 280.558Z" fill="#626494"/>
<path d="M20.3818 421.859V403.531L6.7666 408.244V425.917L20.3818 421.859Z" fill="#626494"/>
<path d="M20.3818 515.401V497.073L6.7666 501.786V519.46L20.3818 515.401Z" fill="#555684"/>
<path d="M20.3818 233.294V214.966L6.7666 219.679V237.352L20.3818 233.294Z" fill="#626494"/>
<path d="M20.3818 374.594V356.267L6.7666 360.98V378.653L20.3818 374.594Z" fill="#626494"/>
<path d="M20.3818 468.137V449.809L6.7666 454.522V472.196L20.3818 468.137Z" fill="#555684"/>
<path d="M20.3818 304.191V285.863L6.7666 290.576V308.249L20.3818 304.191Z" fill="#626494"/>
<path d="M20.3818 445.491V427.164L6.7666 431.876V449.55L20.3818 445.491Z" fill="#555684"/>
<path d="M20.3818 532.47V520.706L6.7666 525.419V532.47H20.3818Z" fill="#555684"/>
<path d="M6.79102 433.862L10.9136 430.451L6.79102 431.899V433.862Z" fill="#626494"/>
<path d="M164.051 443.489L151.13 443.488L164.05 449.234L164.051 443.489Z" fill="#BDD3F8"/>
<path d="M122.441 438.812L140.644 438.812L122.442 430.927L122.441 438.812Z" fill="#9AAFD0"/>
<path d="M76.1205 415.18L86.4773 415.18L76.1205 410.672L76.1205 415.18Z" fill="#D3D2D4"/>
<path d="M117.768 420.351L99.2942 420.35L99.294 420.709L117.768 428.7L117.768 420.351Z" fill="#BDD3F8"/>
<path d="M38.8813 410.233L32.8632 416.017L30.8604 417.869L38.8813 415.536L38.8813 410.233Z" fill="#555684"/>
<path d="M59.0898 102.714H192.431V97.5015H62.425C61.1581 97.5015 59.6737 100.976 59.0898 102.714Z" fill="#7395EC"/>
<path d="M82.0107 62.2544H192.431V57.042H84.7726C83.7234 57.042 82.4942 60.5169 82.0107 62.2544Z" fill="#7395EC"/>
</svg>
