<svg width="245" height="232" viewBox="0 0 245 232" fill="none" xmlns="http://www.w3.org/2000/svg">
<rect x="33.3936" y="76.5566" width="210.663" height="154.687" fill="#A4B1DE"/>
<path d="M33.3936 231.474V179.204L244.156 152.577V231.474H33.3936Z" fill="#8C81BB"/>
<rect x="33.3936" y="40.8271" width="210.663" height="35.7301" fill="#BCCBF2"/>
<rect x="33.3936" y="34.9385" width="210.663" height="11.7771" fill="#59518D"/>
<path d="M33.3935 231.474V76.5576H0.877441V231.474H33.3935Z" fill="#6D6397"/>
<rect x="0.877441" y="46.7158" width="32.5161" height="29.8411" fill="#5073B7"/>
<rect x="0.877441" y="34.9385" width="32.5161" height="11.7773" fill="#44466F"/>
<rect x="112.013" y="87.4087" width="41.3506" height="18.2715" fill="#BDC8ED"/>
<rect x="112.013" y="109.929" width="41.3506" height="18.2715" fill="#BDC8ED"/>
<rect x="112.013" y="132.449" width="41.3506" height="18.2715" fill="#BDC8ED"/>
<rect x="112.013" y="154.97" width="41.3506" height="18.2715" fill="#BDC8ED"/>
<rect x="112.013" y="177.49" width="41.3506" height="18.2715" fill="#8795C7"/>
<rect x="112.013" y="200.011" width="41.3506" height="18.2715" fill="#8795C7"/>
<rect x="112.013" y="222.531" width="41.3506" height="8.94287" fill="#8795C7"/>
<rect x="66.6621" y="87.4087" width="41.3506" height="18.2715" fill="#BDC8ED"/>
<rect x="66.6621" y="109.929" width="41.3506" height="18.2715" fill="#BDC8ED"/>
<rect x="66.6621" y="132.449" width="41.3506" height="18.2715" fill="#BDC8ED"/>
<rect x="66.6621" y="154.97" width="41.3506" height="18.2715" fill="#BDC8ED"/>
<rect x="66.6621" y="177.49" width="41.3506" height="18.2715" fill="#8795C7"/>
<rect x="66.6621" y="200.011" width="41.3506" height="18.2715" fill="#8795C7"/>
<rect x="66.6621" y="222.531" width="41.3506" height="8.94287" fill="#8795C7"/>
<rect x="33.3936" y="87.4087" width="29.2686" height="18.2715" fill="#BDC8ED"/>
<rect x="33.3936" y="109.929" width="29.2686" height="18.2715" fill="#BDC8ED"/>
<rect x="33.3936" y="132.449" width="29.2686" height="18.2715" fill="#BDC8ED"/>
<rect x="33.3936" y="154.97" width="29.2686" height="18.2715" fill="#BDC8ED"/>
<rect x="33.3936" y="177.49" width="29.2686" height="18.2715" fill="#8795C7"/>
<rect x="33.3936" y="200.011" width="29.2686" height="18.2715" fill="#8795C7"/>
<rect x="33.3936" y="222.531" width="29.2686" height="8.94287" fill="#8795C7"/>
<rect x="157.363" y="87.4087" width="41.3506" height="18.2715" fill="#BDC8ED"/>
<rect x="157.363" y="109.929" width="41.3506" height="18.2715" fill="#BDC8ED"/>
<rect x="157.363" y="132.449" width="41.3506" height="18.2715" fill="#BDC8ED"/>
<rect x="157.363" y="154.97" width="41.3506" height="18.2715" fill="#8795C7"/>
<rect x="157.363" y="177.49" width="41.3506" height="18.2715" fill="#8795C7"/>
<rect x="157.363" y="200.011" width="41.3506" height="18.2715" fill="#8795C7"/>
<rect x="157.363" y="222.531" width="41.3506" height="8.94287" fill="#8795C7"/>
<rect x="202.714" y="87.4087" width="41.3506" height="18.2715" fill="#BDC8ED"/>
<rect x="202.714" y="109.929" width="41.3506" height="18.2715" fill="#BDC8ED"/>
<rect x="202.714" y="132.449" width="41.3506" height="18.2715" fill="#BDC8ED"/>
<rect x="202.714" y="154.97" width="41.3506" height="18.2715" fill="#8795C7"/>
<rect x="202.714" y="177.49" width="41.3506" height="18.2715" fill="#8795C7"/>
<rect x="202.714" y="200.011" width="41.3506" height="18.2715" fill="#8795C7"/>
<rect x="202.714" y="222.531" width="41.3506" height="8.94287" fill="#8795C7"/>
<path d="M3.00225 138.889L33.3933 179.875V231.474H0.892578L3.00225 138.889Z" fill="#5D5880"/>
<path d="M202.655 157.795V154.997H225.3L202.655 157.795Z" fill="#BDC8ED"/>
<path d="M33.3936 179.875V177.49H47.2105L33.3936 179.875Z" fill="#BDC8ED"/>
<path d="M108.026 169.78L108.026 173.241L80.7187 173.241L108.026 169.78Z" fill="#8795C7"/>
<path d="M157.363 163.503V154.997H198.714V158.331L157.363 163.503Z" fill="#BDC8ED"/>
<path d="M153.363 164.046L153.363 173.241L112.013 173.241L112.013 169.268L153.363 164.046Z" fill="#8795C7"/>
<path d="M211.572 17.536V34.7597V35.4271H42.5908V13.7784H78.5924V6.50511H75.2435V1.10008L110.745 6.50511V11.5368H107.456V27.4059H136.678V17.536H152.74V0.699219H162.03V17.536H211.572Z" fill="#22517B"/>
</svg>
