<svg width="178" height="321" viewBox="0 0 178 321" fill="none" xmlns="http://www.w3.org/2000/svg">
<path d="M28.7837 10.9273V1.22858V0.854492H139.923V10.9273H28.7837Z" fill="#C2BED7"/>
<rect x="42.4995" y="4.41357" width="134.889" height="315.439" fill="#C9D7F1"/>
<rect x="50.2104" y="52.9214" width="119.467" height="266.932" fill="#939FB6"/>
<rect x="54.1182" y="57.501" width="111.652" height="262.352" fill="#E6F0F4"/>
<rect x="54.1182" y="57.501" width="16.773" height="32.1769" fill="#B9C8F0"/>
<rect x="54.1182" y="96.4424" width="16.773" height="32.1769" fill="#B9C8F0"/>
<path d="M54.1182 209.169L165.77 225.825V319.853H54.1182V209.169Z" fill="#C2C5CA"/>
<rect x="54.1182" y="135.384" width="16.773" height="32.1769" fill="#B9C8F0"/>
<rect x="54.1182" y="174.326" width="16.773" height="32.1769" fill="#B9C8F0"/>
<rect x="54.1182" y="213.268" width="16.773" height="32.1769" fill="#769CCD"/>
<rect x="54.1182" y="252.21" width="16.773" height="32.1769" fill="#769CCD"/>
<rect x="54.1182" y="291.152" width="16.773" height="28.7013" fill="#769CCD"/>
<rect x="77.8379" y="57.501" width="16.773" height="32.1769" fill="#B9C8F0"/>
<rect x="77.8379" y="96.4424" width="16.773" height="32.1769" fill="#B9C8F0"/>
<rect x="77.8379" y="135.384" width="16.773" height="32.1769" fill="#B9C8F0"/>
<rect x="77.8379" y="174.326" width="16.773" height="32.1769" fill="#B9C8F0"/>
<rect x="77.8379" y="213.268" width="16.773" height="32.1769" fill="#769CCD"/>
<rect x="77.8379" y="252.21" width="16.773" height="32.1769" fill="#769CCD"/>
<rect x="77.8379" y="291.152" width="16.773" height="28.7013" fill="#769CCD"/>
<rect x="101.558" y="57.501" width="16.773" height="32.1769" fill="#B9C8F0"/>
<rect x="101.558" y="96.4424" width="16.773" height="32.1769" fill="#B9C8F0"/>
<rect x="101.558" y="135.384" width="16.773" height="32.1769" fill="#B9C8F0"/>
<rect x="101.558" y="174.326" width="16.773" height="32.1769" fill="#B9C8F0"/>
<rect x="101.558" y="213.268" width="16.773" height="32.1769" fill="#769CCD"/>
<rect x="101.558" y="252.21" width="16.773" height="32.1769" fill="#769CCD"/>
<rect x="101.558" y="291.152" width="16.773" height="28.7013" fill="#769CCD"/>
<rect x="125.277" y="57.501" width="16.773" height="32.1769" fill="#B9C8F0"/>
<rect x="125.277" y="96.4424" width="16.773" height="32.1769" fill="#B9C8F0"/>
<rect x="125.277" y="135.384" width="16.773" height="32.1769" fill="#B9C8F0"/>
<rect x="125.277" y="174.326" width="16.773" height="32.1769" fill="#B9C8F0"/>
<rect x="125.277" y="213.268" width="16.773" height="32.1769" fill="#769CCD"/>
<rect x="125.277" y="252.21" width="16.773" height="32.1769" fill="#769CCD"/>
<rect x="125.277" y="291.152" width="16.773" height="28.7013" fill="#769CCD"/>
<rect x="148.997" y="57.501" width="16.773" height="32.1769" fill="#B9C8F0"/>
<rect x="148.997" y="96.4424" width="16.773" height="32.1769" fill="#B9C8F0"/>
<rect x="148.997" y="135.384" width="16.773" height="32.1769" fill="#B9C8F0"/>
<rect x="148.997" y="174.326" width="16.773" height="32.1769" fill="#B9C8F0"/>
<rect x="148.997" y="213.268" width="16.773" height="32.1769" fill="#769CCD"/>
<rect x="148.997" y="252.21" width="16.773" height="32.1769" fill="#769CCD"/>
<rect x="148.997" y="291.152" width="16.773" height="28.7013" fill="#769CCD"/>
<rect x="50.2104" y="23.1973" width="118.116" height="12.5411" fill="#96BDDC"/>
<rect x="50.2104" y="25.811" width="115.292" height="9.92694" fill="#B7CFFF"/>
<path d="M29.0318 10.8625L42.4997 4.60731V319.853H0.351074V25.6236L8.83054 20.8699V10.8625L29.0318 0.854492V10.8625Z" fill="#A3A4C0"/>
<path d="M29.0318 10.8625L42.4997 4.60731V37.1576L0.351074 57.4578V25.6236L8.83054 20.8699V10.8625L29.0318 0.854492V10.8625Z" fill="#9997BE"/>
<path d="M169.676 225.925L165.905 225.427H165.783V319.903H169.676V225.925Z" fill="#454577"/>
<path d="M177.388 226.913L169.935 225.998H169.694V320.475H177.388V226.913Z" fill="#8576B1"/>
<path d="M118.33 218.742L101.551 216.258V213.268H118.33V218.742Z" fill="#B9C8F0"/>
<path d="M94.6106 215.179L86.9199 214.024L81.5928 213.268H94.6106V215.179Z" fill="#B9C8F0"/>
<path d="M142.057 222.274L125.277 219.781V213.268H142.057V222.274Z" fill="#B9C8F0"/>
<path d="M165.784 225.427L149.004 223.35V213.268H165.784V225.427Z" fill="#B9C8F0"/>
</svg>
