<svg width="223" height="466" viewBox="0 0 223 466" fill="none" xmlns="http://www.w3.org/2000/svg">
<path d="M42.1626 465.474V6.91309H222.951V465.474H42.1626Z" fill="#CBD5F0"/>
<path d="M1.09131 463.673V35.4598L42.4953 8.95557V465.474H1.09131V463.673Z" fill="#C4D2ED"/>
<path d="M42.1494 0.98584V12.3325V12.8407H222.951V0.98584H42.1494Z" fill="#DAE5F9"/>
<rect x="42.1626" y="25.4639" width="17.22" height="17.22" fill="#DBE5FE"/>
<rect x="65.3486" y="25.4639" width="17.22" height="17.22" fill="#DBE5FE"/>
<rect x="88.5342" y="25.4639" width="17.22" height="17.22" fill="#DBE5FE"/>
<rect x="111.721" y="25.4639" width="17.22" height="17.22" fill="#DBE5FE"/>
<rect x="134.906" y="25.4639" width="17.22" height="17.22" fill="#DBE5FE"/>
<rect x="158.093" y="25.4639" width="17.22" height="17.22" fill="#DBE5FE"/>
<rect x="181.278" y="25.4639" width="17.22" height="17.22" fill="#DBE5FE"/>
<rect x="204.465" y="25.4639" width="17.22" height="17.22" fill="#DBE5FE"/>
<rect x="42.1626" y="48.6841" width="17.22" height="17.22" fill="#DBE5FE"/>
<rect x="65.3486" y="48.6841" width="17.22" height="17.22" fill="#DBE5FE"/>
<rect x="88.5342" y="48.6841" width="17.22" height="17.22" fill="#DBE5FE"/>
<rect x="111.721" y="48.6841" width="17.22" height="17.22" fill="#DBE5FE"/>
<rect x="134.906" y="48.6841" width="17.22" height="17.22" fill="#DBE5FE"/>
<rect x="158.093" y="48.6841" width="17.22" height="17.22" fill="#DBE5FE"/>
<rect x="181.278" y="48.6841" width="17.22" height="17.22" fill="#DBE5FE"/>
<rect x="204.465" y="48.6841" width="17.22" height="17.22" fill="#DBE5FE"/>
<rect x="42.1626" y="212.895" width="17.22" height="17.22" fill="#DBE5FE"/>
<rect x="65.3486" y="212.895" width="17.22" height="17.22" fill="#DBE5FE"/>
<rect x="88.5342" y="212.895" width="17.22" height="17.22" fill="#DBE5FE"/>
<rect x="111.721" y="212.895" width="17.22" height="17.22" fill="#DBE5FE"/>
<rect x="134.906" y="212.895" width="17.22" height="17.22" fill="#DBE5FE"/>
<rect x="158.093" y="212.895" width="17.22" height="17.22" fill="#DBE5FE"/>
<rect x="181.278" y="212.895" width="17.22" height="17.22" fill="#DBE5FE"/>
<rect x="204.465" y="212.895" width="17.22" height="17.22" fill="#DBE5FE"/>
<rect x="42.1626" y="236.115" width="17.22" height="17.22" fill="#DBE5FE"/>
<rect x="65.3486" y="236.115" width="17.22" height="17.22" fill="#DBE5FE"/>
<rect x="88.5342" y="236.115" width="17.22" height="17.22" fill="#DBE5FE"/>
<rect x="111.721" y="236.115" width="17.22" height="17.22" fill="#DBE5FE"/>
<rect x="134.906" y="236.115" width="17.22" height="17.22" fill="#DBE5FE"/>
<rect x="158.093" y="236.115" width="17.22" height="17.22" fill="#DBE5FE"/>
<rect x="181.278" y="236.115" width="17.22" height="17.22" fill="#DBE5FE"/>
<rect x="204.465" y="236.115" width="17.22" height="17.22" fill="#DBE5FE"/>
<rect x="42.1626" y="119.179" width="17.22" height="17.22" fill="#DBE5FE"/>
<rect x="65.3486" y="119.179" width="17.22" height="17.22" fill="#DBE5FE"/>
<rect x="88.5342" y="119.179" width="17.22" height="17.22" fill="#DBE5FE"/>
<rect x="111.721" y="119.179" width="17.22" height="17.22" fill="#DBE5FE"/>
<rect x="134.906" y="119.179" width="17.22" height="17.22" fill="#DBE5FE"/>
<rect x="158.093" y="119.179" width="17.22" height="17.22" fill="#DBE5FE"/>
<rect x="181.278" y="119.179" width="17.22" height="17.22" fill="#DBE5FE"/>
<rect x="204.465" y="119.179" width="17.22" height="17.22" fill="#DBE5FE"/>
<rect x="42.1626" y="142.399" width="17.22" height="17.22" fill="#DBE5FE"/>
<rect x="65.3486" y="142.399" width="17.22" height="17.22" fill="#DBE5FE"/>
<rect x="88.5342" y="142.399" width="17.22" height="17.22" fill="#DBE5FE"/>
<rect x="111.721" y="142.399" width="17.22" height="17.22" fill="#DBE5FE"/>
<rect x="134.906" y="142.399" width="17.22" height="17.22" fill="#DBE5FE"/>
<rect x="158.093" y="142.399" width="17.22" height="17.22" fill="#DBE5FE"/>
<rect x="181.278" y="142.399" width="17.22" height="17.22" fill="#DBE5FE"/>
<rect x="204.465" y="142.399" width="17.22" height="17.22" fill="#DBE5FE"/>
<rect x="42.1626" y="306.61" width="17.22" height="17.22" fill="#DBE5FE"/>
<rect x="65.3486" y="306.61" width="17.22" height="17.22" fill="#DBE5FE"/>
<rect x="88.5342" y="306.61" width="17.22" height="17.22" fill="#DBE5FE"/>
<rect x="111.721" y="306.61" width="17.22" height="17.22" fill="#DBE5FE"/>
<rect x="134.906" y="306.61" width="17.22" height="17.22" fill="#DBE5FE"/>
<rect x="158.093" y="306.61" width="17.22" height="17.22" fill="#DBE5FE"/>
<rect x="181.278" y="306.61" width="17.22" height="17.22" fill="#DBE5FE"/>
<rect x="204.465" y="306.61" width="17.22" height="17.22" fill="#DBE5FE"/>
<rect x="42.1626" y="329.83" width="17.22" height="17.22" fill="#DBE5FE"/>
<rect x="65.3486" y="329.83" width="17.22" height="17.22" fill="#DBE5FE"/>
<rect x="88.5342" y="329.83" width="17.22" height="17.22" fill="#DBE5FE"/>
<rect x="111.721" y="329.83" width="17.22" height="17.22" fill="#DBE5FE"/>
<rect x="134.906" y="329.83" width="17.22" height="17.22" fill="#DBE5FE"/>
<rect x="158.093" y="329.83" width="17.22" height="17.22" fill="#DBE5FE"/>
<rect x="181.278" y="329.83" width="17.22" height="17.22" fill="#DBE5FE"/>
<rect x="204.465" y="329.83" width="17.22" height="17.22" fill="#DBE5FE"/>
<rect x="42.1626" y="72.3218" width="17.22" height="17.22" fill="#DBE5FE"/>
<rect x="65.3486" y="72.3218" width="17.22" height="17.22" fill="#DBE5FE"/>
<rect x="88.5342" y="72.3218" width="17.22" height="17.22" fill="#DBE5FE"/>
<rect x="111.721" y="72.3218" width="17.22" height="17.22" fill="#DBE5FE"/>
<rect x="134.906" y="72.3218" width="17.22" height="17.22" fill="#DBE5FE"/>
<rect x="158.093" y="72.3218" width="17.22" height="17.22" fill="#DBE5FE"/>
<rect x="181.278" y="72.3218" width="17.22" height="17.22" fill="#DBE5FE"/>
<rect x="204.465" y="72.3218" width="17.22" height="17.22" fill="#DBE5FE"/>
<rect x="42.1626" y="95.542" width="17.22" height="17.22" fill="#DBE5FE"/>
<rect x="65.3486" y="95.542" width="17.22" height="17.22" fill="#DBE5FE"/>
<rect x="88.5342" y="95.542" width="17.22" height="17.22" fill="#DBE5FE"/>
<rect x="111.721" y="95.542" width="17.22" height="17.22" fill="#DBE5FE"/>
<rect x="134.906" y="95.542" width="17.22" height="17.22" fill="#DBE5FE"/>
<rect x="158.093" y="95.542" width="17.22" height="17.22" fill="#DBE5FE"/>
<rect x="181.278" y="95.542" width="17.22" height="17.22" fill="#DBE5FE"/>
<rect x="204.465" y="95.542" width="17.22" height="17.22" fill="#DBE5FE"/>
<rect x="42.1626" y="259.752" width="17.22" height="17.22" fill="#DBE5FE"/>
<rect x="65.3486" y="259.752" width="17.22" height="17.22" fill="#DBE5FE"/>
<rect x="88.5342" y="259.752" width="17.22" height="17.22" fill="#DBE5FE"/>
<rect x="111.721" y="259.752" width="17.22" height="17.22" fill="#DBE5FE"/>
<rect x="134.906" y="259.752" width="17.22" height="17.22" fill="#DBE5FE"/>
<rect x="158.093" y="259.752" width="17.22" height="17.22" fill="#DBE5FE"/>
<rect x="181.278" y="259.752" width="17.22" height="17.22" fill="#DBE5FE"/>
<rect x="204.465" y="259.752" width="17.22" height="17.22" fill="#DBE5FE"/>
<rect x="42.1626" y="282.973" width="17.22" height="17.22" fill="#DBE5FE"/>
<rect x="65.3486" y="282.973" width="17.22" height="17.22" fill="#DBE5FE"/>
<rect x="88.5342" y="282.973" width="17.22" height="17.22" fill="#DBE5FE"/>
<rect x="111.721" y="282.973" width="17.22" height="17.22" fill="#DBE5FE"/>
<rect x="134.906" y="282.973" width="17.22" height="17.22" fill="#DBE5FE"/>
<rect x="158.093" y="282.973" width="17.22" height="17.22" fill="#DBE5FE"/>
<rect x="181.278" y="282.973" width="17.22" height="17.22" fill="#DBE5FE"/>
<rect x="204.465" y="282.973" width="17.22" height="17.22" fill="#DBE5FE"/>
<rect x="42.1626" y="166.037" width="17.22" height="17.22" fill="#DBE5FE"/>
<rect x="65.3486" y="166.037" width="17.22" height="17.22" fill="#DBE5FE"/>
<rect x="88.5342" y="166.037" width="17.22" height="17.22" fill="#DBE5FE"/>
<rect x="111.721" y="166.037" width="17.22" height="17.22" fill="#DBE5FE"/>
<rect x="134.906" y="166.037" width="17.22" height="17.22" fill="#DBE5FE"/>
<rect x="158.093" y="166.037" width="17.22" height="17.22" fill="#DBE5FE"/>
<rect x="181.278" y="166.037" width="17.22" height="17.22" fill="#DBE5FE"/>
<rect x="204.465" y="166.037" width="17.22" height="17.22" fill="#DBE5FE"/>
<rect x="42.1626" y="189.257" width="17.22" height="17.22" fill="#DBE5FE"/>
<rect x="65.3486" y="189.257" width="17.22" height="17.22" fill="#DBE5FE"/>
<rect x="88.5342" y="189.257" width="17.22" height="17.22" fill="#DBE5FE"/>
<rect x="111.721" y="189.257" width="17.22" height="17.22" fill="#DBE5FE"/>
<rect x="134.906" y="189.257" width="17.22" height="17.22" fill="#DBE5FE"/>
<rect x="158.093" y="189.257" width="17.22" height="17.22" fill="#DBE5FE"/>
<rect x="181.278" y="189.257" width="17.22" height="17.22" fill="#DBE5FE"/>
<rect x="204.465" y="189.257" width="17.22" height="17.22" fill="#DBE5FE"/>
<rect x="42.1626" y="353.468" width="17.22" height="17.22" fill="#DBE5FE"/>
<rect x="65.3486" y="353.468" width="17.22" height="17.22" fill="#DBE5FE"/>
<rect x="88.5342" y="353.468" width="17.22" height="17.22" fill="#DBE5FE"/>
<rect x="111.721" y="353.468" width="17.22" height="17.22" fill="#DBE5FE"/>
<rect x="134.906" y="353.468" width="17.22" height="17.22" fill="#DBE5FE"/>
<rect x="158.093" y="353.468" width="17.22" height="17.22" fill="#DBE5FE"/>
<rect x="181.278" y="353.468" width="17.22" height="17.22" fill="#DBE5FE"/>
<rect x="204.465" y="353.468" width="17.22" height="17.22" fill="#DBE5FE"/>
<rect x="42.1626" y="376.688" width="17.22" height="17.22" fill="#DBE5FE"/>
<rect x="65.3486" y="376.688" width="17.22" height="17.22" fill="#DBE5FE"/>
<rect x="88.5342" y="376.688" width="17.22" height="17.22" fill="#DBE5FE"/>
<rect x="111.721" y="376.688" width="17.22" height="17.22" fill="#DBE5FE"/>
<rect x="134.906" y="376.688" width="17.22" height="17.22" fill="#DBE5FE"/>
<rect x="158.093" y="376.688" width="17.22" height="17.22" fill="#DBE5FE"/>
<rect x="181.278" y="376.688" width="17.22" height="17.22" fill="#DBE5FE"/>
<rect x="204.465" y="376.688" width="17.22" height="17.22" fill="#DBE5FE"/>
<rect x="42.1626" y="400.325" width="17.22" height="17.22" fill="#DBE5FE"/>
<rect x="65.3486" y="400.325" width="17.22" height="17.22" fill="#DBE5FE"/>
<rect x="88.5342" y="400.325" width="17.22" height="17.22" fill="#DBE5FE"/>
<rect x="111.721" y="400.325" width="17.22" height="17.22" fill="#DBE5FE"/>
<rect x="134.906" y="400.325" width="17.22" height="17.22" fill="#DBE5FE"/>
<rect x="158.093" y="400.325" width="17.22" height="17.22" fill="#DBE5FE"/>
<rect x="181.278" y="400.325" width="17.22" height="17.22" fill="#DBE5FE"/>
<rect x="204.465" y="400.325" width="17.22" height="17.22" fill="#DBE5FE"/>
<rect x="42.1626" y="423.545" width="17.22" height="17.22" fill="#DBE5FE"/>
<rect x="65.3486" y="423.545" width="17.22" height="17.22" fill="#DBE5FE"/>
<rect x="88.5342" y="423.545" width="17.22" height="17.22" fill="#DBE5FE"/>
<rect x="111.721" y="423.545" width="17.22" height="17.22" fill="#DBE5FE"/>
<rect x="134.906" y="423.545" width="17.22" height="17.22" fill="#DBE5FE"/>
<rect x="158.093" y="423.545" width="17.22" height="17.22" fill="#DBE5FE"/>
<rect x="181.278" y="423.545" width="17.22" height="17.22" fill="#DBE5FE"/>
<rect x="204.465" y="423.545" width="17.22" height="17.22" fill="#DBE5FE"/>
<rect x="42.1626" y="447.183" width="17.22" height="17.22" fill="#DBE5FE"/>
<rect x="65.3472" y="447.183" width="17.22" height="17.22" fill="#DBE5FE"/>
<rect x="88.5332" y="447.183" width="17.22" height="17.22" fill="#DBE5FE"/>
<rect x="111.719" y="447.183" width="17.22" height="17.22" fill="#DBE5FE"/>
<rect x="134.905" y="447.183" width="17.22" height="17.22" fill="#DBE5FE"/>
<rect x="158.091" y="447.183" width="17.22" height="17.22" fill="#DBE5FE"/>
<rect x="181.277" y="447.183" width="17.22" height="17.22" fill="#DBE5FE"/>
<rect x="204.463" y="447.183" width="17.22" height="17.22" fill="#DBE5FE"/>
<path d="M1.04883 29.3384L42.1492 0.98584V12.6344L1.04883 39.8881V29.3384Z" fill="#A49FBD"/>
<path d="M42.4952 42.7121V25.4849L34.3848 31.0828V47.6731L42.4952 42.7121Z" fill="#ACA7C5"/>
<path d="M42.4952 65.9113V48.6841L34.3848 54.282V70.8723L42.4952 65.9113Z" fill="#ACA7C5"/>
<path d="M42.4952 89.549V72.3218L34.3848 77.9197V94.51L42.4952 89.549Z" fill="#ACA7C5"/>
<path d="M42.4952 112.769V95.542L34.3848 101.14V117.73L42.4952 112.769Z" fill="#ACA7C5"/>
<path d="M42.4952 136.406V119.179L34.3848 124.777V141.367L42.4952 136.406Z" fill="#ACA7C5"/>
<path d="M42.4952 159.627V142.399L34.3848 147.997V164.588L42.4952 159.627Z" fill="#ACA7C5"/>
<path d="M42.4952 183.264V166.037L34.3848 171.635V188.225L42.4952 183.264Z" fill="#ACA7C5"/>
<path d="M42.4952 206.485V189.258L34.3848 194.856V211.446L42.4952 206.485Z" fill="#ACA7C5"/>
<path d="M42.1627 230.122V212.895L34.0522 218.492V235.083L42.1627 230.122Z" fill="#ACA7C5"/>
<path d="M42.1627 253.342V236.115L34.0522 241.713V258.303L42.1627 253.342Z" fill="#ACA7C5"/>
<path d="M42.1627 276.98V259.752L34.0522 265.35V281.941L42.1627 276.98Z" fill="#ACA7C5"/>
<path d="M42.1627 300.2V282.973L34.0522 288.571V305.161L42.1627 300.2Z" fill="#ACA7C5"/>
<path d="M42.1627 323.837V306.61L34.0522 312.208V328.798L42.1627 323.837Z" fill="#ACA7C5"/>
<path d="M42.1627 347.057V329.83L34.0522 335.428V352.018L42.1627 347.057Z" fill="#ACA7C5"/>
<path d="M42.1627 370.695V353.468L34.0522 359.066V375.656L42.1627 370.695Z" fill="#ACA7C5"/>
<path d="M42.1627 393.915V376.688L34.0522 382.286V398.876L42.1627 393.915Z" fill="#ACA7C5"/>
<path d="M42.1627 417.552V400.325L34.0522 405.923V422.513L42.1627 417.552Z" fill="#ACA7C5"/>
<path d="M42.1627 440.773V423.545L34.0522 429.143V445.734L42.1627 440.773Z" fill="#ACA7C5"/>
<path d="M42.1627 464.41V447.183L34.0522 452.781V465.403H39.9706L42.1627 464.41Z" fill="#ACA7C5"/>
<path d="M31.3824 50.4074V33.1802L23.272 38.7781V55.3684L31.3824 50.4074Z" fill="#ACA7C5"/>
<path d="M31.3824 73.6066V56.3794L23.272 61.9773V78.5677L31.3824 73.6066Z" fill="#ACA7C5"/>
<path d="M31.3824 97.2443V80.0171L23.272 85.615V102.205L31.3824 97.2443Z" fill="#ACA7C5"/>
<path d="M31.3824 120.465V103.237L23.272 108.835V125.426L31.3824 120.465Z" fill="#ACA7C5"/>
<path d="M31.3824 144.102V126.875L23.272 132.472V149.063L31.3824 144.102Z" fill="#ACA7C5"/>
<path d="M31.3824 167.322V150.095L23.272 155.693V172.283L31.3824 167.322Z" fill="#ACA7C5"/>
<path d="M31.3824 190.96V173.732L23.272 179.33V195.921L31.3824 190.96Z" fill="#ACA7C5"/>
<path d="M31.3824 214.18V196.953L23.272 202.551V219.141L31.3824 214.18Z" fill="#ACA7C5"/>
<path d="M31.0499 237.817V220.59L22.9395 226.188V242.778L31.0499 237.817Z" fill="#ACA7C5"/>
<path d="M31.0499 261.037V243.81L22.9395 249.408V265.998L31.0499 261.037Z" fill="#ACA7C5"/>
<path d="M31.0499 284.675V267.448L22.9395 273.046V289.636L31.0499 284.675Z" fill="#ACA7C5"/>
<path d="M31.0499 307.895V290.668L22.9395 296.266V312.856L31.0499 307.895Z" fill="#ACA7C5"/>
<path d="M31.0499 331.532V314.305L22.9395 319.903V336.493L31.0499 331.532Z" fill="#ACA7C5"/>
<path d="M31.0499 354.753V337.525L22.9395 343.123V359.714L31.0499 354.753Z" fill="#ACA7C5"/>
<path d="M31.0499 378.39V361.163L22.9395 366.761V383.351L31.0499 378.39Z" fill="#ACA7C5"/>
<path d="M31.0499 401.611V384.383L22.9395 389.981V406.572L31.0499 401.611Z" fill="#ACA7C5"/>
<path d="M31.0499 425.248V408.021L22.9395 413.618V430.209L31.0499 425.248Z" fill="#ACA7C5"/>
<path d="M31.0499 448.468V431.241L22.9395 436.839V453.429L31.0499 448.468Z" fill="#ACA7C5"/>
<path d="M31.0499 465.466V454.878L22.9395 460.476L22.9395 465.466H31.0499Z" fill="#ACA7C5"/>
<path d="M20.2696 58.1574V40.9302L12.1592 46.5281V63.1184L20.2696 58.1574Z" fill="#ACA7C5"/>
<path d="M20.2696 81.3566V64.1294L12.1592 69.7273V86.3177L20.2696 81.3566Z" fill="#ACA7C5"/>
<path d="M20.2696 104.994V87.7671L12.1592 93.365V109.955L20.2696 104.994Z" fill="#ACA7C5"/>
<path d="M20.2696 128.215V110.987L12.1592 116.585V133.176L20.2696 128.215Z" fill="#ACA7C5"/>
<path d="M20.2696 151.852V134.625L12.1592 140.223V156.813L20.2696 151.852Z" fill="#ACA7C5"/>
<path d="M20.2696 175.072V157.845L12.1592 163.443V180.033L20.2696 175.072Z" fill="#ACA7C5"/>
<path d="M20.2696 198.71V181.483L12.1592 187.081V203.671L20.2696 198.71Z" fill="#ACA7C5"/>
<path d="M20.2696 221.931V204.704L12.1592 210.302V226.892L20.2696 221.931Z" fill="#ACA7C5"/>
<path d="M19.9371 245.568V228.34L11.8267 233.938V250.529L19.9371 245.568Z" fill="#ACA7C5"/>
<path d="M19.9371 268.788V251.561L11.8267 257.158V273.749L19.9371 268.788Z" fill="#ACA7C5"/>
<path d="M19.9371 292.425V275.198L11.8267 280.796V297.387L19.9371 292.425Z" fill="#ACA7C5"/>
<path d="M19.9371 315.646V298.418L11.8267 304.016V320.607L19.9371 315.646Z" fill="#ACA7C5"/>
<path d="M19.9371 339.283V322.056L11.8267 327.654V344.244L19.9371 339.283Z" fill="#ACA7C5"/>
<path d="M19.9371 362.503V345.276L11.8267 350.874V367.464L19.9371 362.503Z" fill="#ACA7C5"/>
<path d="M19.9371 386.141V368.914L11.8267 374.512V391.102L19.9371 386.141Z" fill="#ACA7C5"/>
<path d="M19.9371 409.361V392.134L11.8267 397.732V414.322L19.9371 409.361Z" fill="#ACA7C5"/>
<path d="M19.9371 432.998V415.771L11.8267 421.369V437.959L19.9371 432.998Z" fill="#ACA7C5"/>
<path d="M19.9371 456.218V438.991L11.8267 444.589V461.179L19.9371 456.218Z" fill="#ACA7C5"/>
<path d="M19.9375 465.466V462.628L15.7715 465.466H19.9375Z" fill="#ACA7C5"/>
<path d="M9.15925 65.3215V48.0942L1.04883 53.6922V70.2825L9.15925 65.3215Z" fill="#ACA7C5"/>
<path d="M9.15925 88.5207V71.2935L1.04883 76.8914V93.4817L9.15925 88.5207Z" fill="#ACA7C5"/>
<path d="M9.15925 112.158V94.9312L1.04883 100.529V117.119L9.15925 112.158Z" fill="#ACA7C5"/>
<path d="M9.15925 135.379V118.151L1.04883 123.749V140.34L9.15925 135.379Z" fill="#ACA7C5"/>
<path d="M9.15925 159.016V141.789L1.04883 147.387V163.977L9.15925 159.016Z" fill="#ACA7C5"/>
<path d="M9.15925 182.237V165.009L1.04883 170.607V187.198L9.15925 182.237Z" fill="#ACA7C5"/>
<path d="M9.15925 205.874V188.647L1.04883 194.245V210.835L9.15925 205.874Z" fill="#ACA7C5"/>
<path d="M9.15925 229.095V211.868L1.04883 217.466V234.056L9.15925 229.095Z" fill="#ACA7C5"/>
<path d="M8.82673 252.732V235.504L0.716309 241.102V257.693L8.82673 252.732Z" fill="#ACA7C5"/>
<path d="M8.82673 275.952V258.725L0.716309 264.323V280.913L8.82673 275.952Z" fill="#ACA7C5"/>
<path d="M8.82673 299.59V282.362L0.716309 287.96V304.551L8.82673 299.59Z" fill="#ACA7C5"/>
<path d="M8.82673 322.81V305.583L0.716309 311.18V327.771L8.82673 322.81Z" fill="#ACA7C5"/>
<path d="M8.82673 346.447V329.22L0.716309 334.818V351.408L8.82673 346.447Z" fill="#ACA7C5"/>
<path d="M8.82673 369.667V352.44L0.716309 358.038V374.628L8.82673 369.667Z" fill="#ACA7C5"/>
<path d="M8.82673 393.305V376.078L0.716309 381.676V398.266L8.82673 393.305Z" fill="#ACA7C5"/>
<path d="M8.82673 416.525V399.298L0.716309 404.896V421.486L8.82673 416.525Z" fill="#ACA7C5"/>
<path d="M8.82673 440.162V422.935L0.716309 428.533V445.123L8.82673 440.162Z" fill="#ACA7C5"/>
<path d="M8.82673 463.383V446.155L0.716309 451.753V465.458H5.66661L8.82673 463.383Z" fill="#ACA7C5"/>
</svg>
