<svg width="236" height="328" viewBox="0 0 236 328" fill="none" xmlns="http://www.w3.org/2000/svg">
<path d="M72.8923 117.989H235.448V327.475H228.902H65.2412V202.157H72.8923V117.989Z" fill="#A3B5E7"/>
<rect x="228.715" y="117.989" width="7.202" height="209.486" fill="#E8F2FE"/>
<path d="M235.917 101.171V117.985V118.105H195.242V124.372H194.035H164.509V118.105H74.8833V203.983H65.3448V118.105L47.3315 123.358L52.3455 86.8287H62.3735L65.7159 55.6316H69.8015V8.89209H73.8753V55.6316H77.9526L80.1381 86.8287H83.1275L86.1168 101.171H126.473V89.4664H190.246V101.171H235.917Z" fill="#52518B"/>
<circle cx="71.6129" cy="5.90636" r="4.94542" fill="#FD3057"/>
<path d="M144.245 264.914L228.715 262.17V327.475H65.2412V280.554L144.245 264.914Z" fill="#8184B1"/>
<path d="M65.2412 327.475V117.989L0.750977 137.139V327.475H65.2412Z" fill="#69699F"/>
<rect x="192.964" y="134.731" width="25.5036" height="192.461" fill="#D0D7EA"/>
<rect x="157.21" y="134.731" width="25.5036" height="192.727" fill="#D0D7EA"/>
<rect x="121.457" y="134.731" width="25.5036" height="192.727" fill="#D0D7EA"/>
<rect x="85.7026" y="134.731" width="25.5036" height="192.727" fill="#D0D7EA"/>
<rect x="157.21" y="134.731" width="25.5033" height="58.0159" fill="#FFFFFE"/>
<path d="M121.457 327.459V269.43L147.124 264.793V327.459H121.457Z" fill="#A1A1BB"/>
<path d="M0.736816 212.258L65.2414 280.22V327.475H0.736816V212.258Z" fill="#433E67"/>
<path d="M157.21 327.458V264.555L182.877 263.64V327.458H157.21Z" fill="#A1A1BB"/>
<path d="M192.884 327.457V263.357L218.461 262.514L218.551 327.457H192.884Z" fill="#A1A1BB"/>
<rect x="121.457" y="134.731" width="25.5036" height="12.0867" fill="#FFFFFE"/>
<rect x="85.7026" y="134.731" width="25.5036" height="23.7702" fill="#FFFFFE"/>
<rect x="192.884" y="134.731" width="25.5835" height="33.0366" fill="#FFFFFE"/>
<rect x="121.457" y="286.025" width="25.4963" height="19.5398" fill="#D1D3D8"/>
<rect x="121.564" y="234.735" width="25.4768" height="19.6072" fill="#9CAFD0"/>
<rect x="192.884" y="209.525" width="25.5838" height="16.8062" fill="#9CAFD0"/>
<rect x="192.884" y="311.149" width="25.5836" height="16.3091" fill="#9CAFD0"/>
<path d="M57.7417 327.475V137.689L38.2837 144.043V327.475H57.7417Z" fill="#7777B7"/>
<path d="M27.7085 327.475V146.162L8.25049 152.232V327.475H27.7085Z" fill="#7777B7"/>
<path d="M85.5391 327.458V276.565L111.206 271.498V327.458H85.5391Z" fill="#A1A1BB"/>
<path d="M38.2837 327.46L38.2837 251.905L57.7417 272.244V327.46H38.2837Z" fill="#514D7F"/>
<path d="M8.25049 327.46L8.25052 220.207L27.7085 240.663V327.46H8.25049Z" fill="#514D7F"/>
</svg>
