<svg width="202" height="662" viewBox="0 0 202 662" fill="none" xmlns="http://www.w3.org/2000/svg">
<path d="M166.585 0.9375L201.679 661.381H0.885742L16.4663 0.9375H166.585Z" fill="#8B8CC4"/>
<path d="M16.3838 0.858398H166.444L137.084 472.377L16.3838 0.858398Z" fill="#859EF7"/>
<path d="M141.68 661.431L135.667 472.208L16.3761 1.0332L0.676758 661.431H141.68Z" fill="#626393"/>
<mask id="mask0_124_283" style="mask-type:alpha" maskUnits="userSpaceOnUse" x="16" y="0" width="151" height="473">
<path d="M16.3838 0.858398H166.444L137.084 472.377L16.3838 0.858398Z" fill="#85DCF7"/>
</mask>
<g mask="url(#mask0_124_283)">
<rect x="16.3838" y="76.5146" width="153.255" height="14.0581" fill="#6E90E9"/>
<rect x="16.3838" y="114.255" width="153.255" height="14.0581" fill="#6E90E9"/>
<rect x="16.3838" y="151.996" width="153.255" height="14.0581" fill="#6E90E9"/>
<rect x="16.3838" y="189.737" width="153.255" height="14.0581" fill="#6E90E9"/>
<rect x="16.3838" y="227.478" width="153.255" height="14.0581" fill="#6E90E9"/>
<rect x="16.3838" y="265.218" width="153.255" height="14.0581" fill="#6E90E9"/>
<rect x="16.3838" y="302.959" width="153.255" height="14.0581" fill="#6E90E9"/>
<rect x="16.3838" y="340.7" width="153.255" height="14.0581" fill="#6E90E9"/>
<rect x="16.3838" y="378.44" width="153.255" height="14.0581" fill="#6E90E9"/>
<rect x="16.3838" y="416.181" width="153.255" height="14.0581" fill="#6E90E9"/>
</g>
<path d="M138.706 566.809L197.156 569.384L201.709 661.465L141.677 661.465L138.706 566.809Z" fill="#6E699F"/>
<path d="M4.34493 516.797L138.649 566.913L141.696 661.119L0.52832 661.475L4.34493 516.797Z" fill="#514F77"/>
</svg>
