<svg width="178" height="321" viewBox="0 0 178 321" fill="none" xmlns="http://www.w3.org/2000/svg">
<path d="M29.3784 10.9273V1.22858V0.854492H140.518V10.9273H29.3784Z" fill="#8E8AC0"/>
<rect x="43.0942" y="4.41357" width="134.889" height="315.439" fill="#A6BBE6"/>
<rect x="50.8052" y="52.9214" width="119.467" height="266.932" fill="#545284"/>
<rect x="54.7129" y="57.501" width="111.652" height="262.352" fill="#E6F0F4"/>
<rect x="54.7129" y="57.501" width="16.773" height="32.1769" fill="#B9C8F0"/>
<rect x="54.7129" y="96.4424" width="16.773" height="32.1769" fill="#B9C8F0"/>
<path d="M54.7129 209.169L166.365 225.825V319.853H54.7129V209.169Z" fill="#C2C5CA"/>
<rect x="54.7129" y="135.384" width="16.773" height="32.1769" fill="#B9C8F0"/>
<rect x="54.7129" y="174.326" width="16.773" height="32.1769" fill="#B9C8F0"/>
<rect x="54.7129" y="213.268" width="16.773" height="32.1769" fill="#769CCD"/>
<rect x="54.7129" y="252.21" width="16.773" height="32.1769" fill="#769CCD"/>
<rect x="54.7129" y="291.152" width="16.773" height="28.7013" fill="#769CCD"/>
<rect x="78.4326" y="57.501" width="16.773" height="32.1769" fill="#B9C8F0"/>
<rect x="78.4326" y="96.4424" width="16.773" height="32.1769" fill="#B9C8F0"/>
<rect x="78.4326" y="135.384" width="16.773" height="32.1769" fill="#B9C8F0"/>
<rect x="78.4326" y="174.326" width="16.773" height="32.1769" fill="#B9C8F0"/>
<rect x="78.4326" y="213.268" width="16.773" height="32.1769" fill="#769CCD"/>
<rect x="78.4326" y="252.21" width="16.773" height="32.1769" fill="#769CCD"/>
<rect x="78.4326" y="291.152" width="16.773" height="28.7013" fill="#769CCD"/>
<rect x="102.152" y="57.501" width="16.773" height="32.1769" fill="#B9C8F0"/>
<rect x="102.152" y="96.4424" width="16.773" height="32.1769" fill="#B9C8F0"/>
<rect x="102.152" y="135.384" width="16.773" height="32.1769" fill="#B9C8F0"/>
<rect x="102.152" y="174.326" width="16.773" height="32.1769" fill="#B9C8F0"/>
<rect x="102.152" y="213.268" width="16.773" height="32.1769" fill="#769CCD"/>
<rect x="102.152" y="252.21" width="16.773" height="32.1769" fill="#769CCD"/>
<rect x="102.152" y="291.152" width="16.773" height="28.7013" fill="#769CCD"/>
<rect x="125.872" y="57.501" width="16.773" height="32.1769" fill="#B9C8F0"/>
<rect x="125.872" y="96.4424" width="16.773" height="32.1769" fill="#B9C8F0"/>
<rect x="125.872" y="135.384" width="16.773" height="32.1769" fill="#B9C8F0"/>
<rect x="125.872" y="174.326" width="16.773" height="32.1769" fill="#B9C8F0"/>
<rect x="125.872" y="213.268" width="16.773" height="32.1769" fill="#769CCD"/>
<rect x="125.872" y="252.21" width="16.773" height="32.1769" fill="#769CCD"/>
<rect x="125.872" y="291.152" width="16.773" height="28.7013" fill="#769CCD"/>
<rect x="149.592" y="57.501" width="16.773" height="32.1769" fill="#B9C8F0"/>
<rect x="149.592" y="96.4424" width="16.773" height="32.1769" fill="#B9C8F0"/>
<rect x="149.592" y="135.384" width="16.773" height="32.1769" fill="#B9C8F0"/>
<rect x="149.592" y="174.326" width="16.773" height="32.1769" fill="#B9C8F0"/>
<rect x="149.592" y="213.268" width="16.773" height="32.1769" fill="#769CCD"/>
<rect x="149.592" y="252.21" width="16.773" height="32.1769" fill="#769CCD"/>
<rect x="149.592" y="291.152" width="16.773" height="28.7013" fill="#769CCD"/>
<rect x="50.8052" y="23.1973" width="118.116" height="12.5411" fill="#526EB5"/>
<rect x="50.8052" y="25.811" width="115.292" height="9.92694" fill="#8B9DFD"/>
<rect x="50.8052" y="25.811" width="115.292" height="9.92694" fill="#8B9DFD"/>
<rect x="50.8052" y="25.811" width="115.292" height="9.92694" fill="#8B9DFD"/>
<path d="M29.6265 10.8625L43.0944 4.60731V319.853H0.945801V25.6236L9.42526 20.8699V10.8625L29.6265 0.854492V10.8625Z" fill="#656797"/>
<path d="M29.6265 10.8625L43.0944 4.60731V37.1576L0.945801 57.4578V25.6236L9.42526 20.8699V10.8625L29.6265 0.854492V10.8625Z" fill="#52518A"/>
<path d="M170.271 225.925L166.5 225.427H166.378V319.903H170.271V225.925Z" fill="#454577"/>
<path d="M177.983 226.913L170.529 225.998H170.289V320.475H177.983V226.913Z" fill="#8576B1"/>
<path d="M118.925 218.742L102.146 216.258V213.268H118.925V218.742Z" fill="#B9C8F0"/>
<path d="M95.2053 215.179L87.5146 214.024L82.1875 213.268H95.2053V215.179Z" fill="#B9C8F0"/>
<path d="M142.652 222.274L125.872 219.781V213.268H142.652V222.274Z" fill="#B9C8F0"/>
<path d="M166.378 225.427L149.599 223.35V213.268H166.378V225.427Z" fill="#B9C8F0"/>
</svg>
