<svg width="126" height="190" viewBox="0 0 126 190" fill="none" xmlns="http://www.w3.org/2000/svg">
<path d="M0.626953 24.6542V189.469H26.2782V16.7305L0.626953 24.6542Z" fill="#6D74A2"/>
<path d="M26.3252 189.475V21.041H111.955V189.475H26.3252Z" fill="#A6B9E2"/>
<path d="M113.914 189.456V103.792L26.2807 56.3787V189.456H113.914Z" fill="#848CBA"/>
<rect x="36.4355" y="26.4946" width="13.8082" height="19.7406" fill="#C0D2F6"/>
<rect x="36.4355" y="49.8354" width="13.8082" height="19.7406" fill="#C0D2F6"/>
<rect x="36.4355" y="73.1772" width="13.8082" height="19.7406" fill="#A1B1D3"/>
<rect x="36.4355" y="96.519" width="13.8082" height="19.7406" fill="#A1B1D3"/>
<rect x="36.4355" y="119.861" width="13.8082" height="19.7406" fill="#A1B1D3"/>
<rect x="36.4355" y="143.203" width="13.8082" height="19.7406" fill="#D6D0DC"/>
<rect x="36.4355" y="166.544" width="13.8082" height="19.7406" fill="#A1B1D3"/>
<rect x="55.4185" y="26.4946" width="13.8082" height="19.7406" fill="#C0D2F6"/>
<rect x="55.4185" y="49.8354" width="13.8082" height="19.7406" fill="#C0D2F6"/>
<rect x="55.4185" y="73.1772" width="13.8082" height="19.7406" fill="#A1B1D3"/>
<rect x="55.4185" y="96.519" width="13.8082" height="19.7406" fill="#D6D0DC"/>
<rect x="55.4185" y="119.861" width="13.8082" height="19.7406" fill="#A1B1D3"/>
<rect x="55.4185" y="143.203" width="13.8082" height="19.7406" fill="#A1B1D3"/>
<rect x="55.4185" y="166.544" width="13.8082" height="19.7406" fill="#A1B1D3"/>
<rect x="74.4014" y="26.4946" width="13.8082" height="19.7406" fill="#C0D2F6"/>
<rect x="74.4014" y="49.8354" width="13.8082" height="19.7406" fill="#C0D2F6"/>
<rect x="74.4014" y="73.1772" width="13.8082" height="19.7406" fill="#FEFFFD"/>
<rect x="74.4014" y="96.519" width="13.8082" height="19.7406" fill="#A1B1D3"/>
<rect x="74.4014" y="119.861" width="13.8082" height="19.7406" fill="#A1B1D3"/>
<rect x="74.4014" y="143.203" width="13.8082" height="19.7406" fill="#A1B1D3"/>
<rect x="74.4014" y="166.544" width="13.8082" height="19.7406" fill="#A1B1D3"/>
<rect x="93.3838" y="26.4946" width="13.8082" height="19.7406" fill="#FEFFFD"/>
<rect x="93.3838" y="49.8354" width="13.8082" height="19.7406" fill="#C0D2F6"/>
<rect x="93.3838" y="73.1772" width="13.8082" height="19.7406" fill="#C0D2F6"/>
<rect x="93.3838" y="96.519" width="13.8082" height="19.7406" fill="#A1B1D3"/>
<rect x="93.3838" y="119.861" width="13.8082" height="19.7406" fill="#A1B1D3"/>
<rect x="93.3838" y="143.203" width="13.8082" height="19.7406" fill="#A1B1D3"/>
<rect x="93.3838" y="166.544" width="13.8082" height="19.7406" fill="#A1B1D3"/>
<path d="M111.794 187.468V189.456H125.163V10.7515H124.213H26.2783V21.0274H111.794V187.468Z" fill="#233F75"/>
<path d="M26.2781 17.7204V10.7515L0.628906 19.2767V25.4534L26.2781 17.7204Z" fill="#233075"/>
<path d="M26.2783 3.09814H104.284V10.7514H26.2783V3.09814Z" fill="#87A1FF"/>
<path d="M107.192 3.09814V0.00683594H26.3296V3.09814H107.192Z" fill="#1B2E70"/>
<path d="M26.3296 7.68835V0.00683594L5.41064 7.74498L5.41075 14.6593L26.3296 7.68835Z" fill="#033051"/>
<path d="M26.3296 10.7469V3.09766L5.41064 10.8036L5.41075 17.7179L26.3296 10.7469Z" fill="#5180DA"/>
<path d="M26.2782 56.2012L0.604004 92.3047V189.456H26.2782V56.2012Z" fill="#545C81"/>
<path d="M36.4619 69.5532V61.957V61.8789L50.2397 69.3438V69.582H36.4619V69.5532Z" fill="#A1B1D3"/>
<path d="M107.192 96.5335L107.192 100.112L107.192 100.148L100.702 96.6322L100.495 96.5199L107.192 96.5199L107.192 96.5335Z" fill="#C0D2F6"/>
<path d="M69.2191 73.2029L69.2192 78.2058L69.2192 79.6221L57.7271 73.3885L57.3414 73.1774L69.2191 73.1774L69.2191 73.2029Z" fill="#C0D2F6"/>
<path d="M74.4015 92.8926L74.4014 87.8897V82.4653L88.2184 89.8766V92.9182H74.4015L74.4015 92.8926Z" fill="#D6D0DC"/>
<rect x="26.2563" y="17.7168" width="88.812" height="3.31787" fill="#193A67"/>
<rect x="111.75" y="189.456" width="168.421" height="3.31787" transform="rotate(-90 111.75 189.456)" fill="#193A67"/>
</svg>
