<svg width="160" height="456" viewBox="0 0 160 456" fill="none" xmlns="http://www.w3.org/2000/svg">
<path d="M0.838867 27.1714L24.4414 0.417969L58.9625 27.1714L85.1458 448.535H25.3355H0.838867V27.1714Z" fill="#68759F"/>
<path d="M159.073 67.5176C128.451 18.8003 56.8062 2.36815 24.8115 0.241699V15.909H34.4549V77.488H25.6173V448.442H159.073V67.5176Z" fill="#A7B3E3"/>
<rect x="42.9922" y="58.7773" width="32.2727" height="18.9837" fill="#4C4974"/>
<path d="M159.073 362.794L25.6157 341.04V455.474H159.073V362.794Z" fill="#827BB1"/>
<rect x="37.0796" y="91.9126" width="17.162" height="20.0221" fill="#C1D6F5"/>
<rect x="145.004" y="91.9126" width="14.0693" height="20.0221" fill="#C1D6F5"/>
<rect x="59.4243" y="91.9126" width="79.0605" height="20.0221" fill="#C1D6F5"/>
<rect x="37.0796" y="262.025" width="17.162" height="20.0221" fill="#C1D6F5"/>
<rect x="145.004" y="262.025" width="14.0693" height="20.0221" fill="#C1D6F5"/>
<rect x="59.4243" y="262.025" width="79.0605" height="20.0221" fill="#C1D6F5"/>
<rect x="37.0796" y="375.433" width="17.162" height="20.0221" fill="#9BB0CF"/>
<rect x="145.004" y="375.433" width="14.0693" height="20.0221" fill="#9BB0CF"/>
<rect x="59.4243" y="375.433" width="79.0605" height="20.0221" fill="#9BB0CF"/>
<rect x="37.0796" y="120.265" width="17.162" height="20.0221" fill="#C1D6F5"/>
<rect x="145.004" y="120.265" width="14.0693" height="20.0221" fill="#C1D6F5"/>
<rect x="59.4243" y="120.265" width="79.0605" height="20.0221" fill="#C1D6F5"/>
<rect x="37.0796" y="290.377" width="17.162" height="20.0221" fill="#C1D6F5"/>
<rect x="145.004" y="290.377" width="14.0693" height="20.0221" fill="#C1D6F5"/>
<rect x="59.4243" y="290.377" width="79.0605" height="20.0221" fill="#C1D6F5"/>
<rect x="37.0796" y="403.785" width="17.162" height="20.0221" fill="#9BB0CF"/>
<rect x="145.004" y="403.785" width="14.0693" height="20.0221" fill="#9BB0CF"/>
<rect x="59.4243" y="403.785" width="79.0605" height="20.0221" fill="#9BB0CF"/>
<rect x="37.0796" y="148.617" width="17.162" height="20.0221" fill="#C1D6F5"/>
<rect x="145.004" y="148.617" width="14.0693" height="20.0221" fill="#C1D6F5"/>
<rect x="59.4243" y="148.617" width="79.0605" height="20.0221" fill="#C1D6F5"/>
<rect x="37.0796" y="318.729" width="17.162" height="20.0221" fill="#C1D6F5"/>
<rect x="145.004" y="318.729" width="14.0693" height="20.0221" fill="#C1D6F5"/>
<rect x="59.4243" y="318.729" width="79.0605" height="20.0221" fill="#C1D6F5"/>
<rect x="37.0796" y="432.137" width="17.162" height="16.3979" fill="#9BB0CF"/>
<rect x="145.004" y="432.137" width="14.0693" height="16.3979" fill="#9BB0CF"/>
<rect x="59.4243" y="432.137" width="79.0605" height="16.3979" fill="#9BB0CF"/>
<rect x="37.0796" y="205.321" width="17.162" height="20.0221" fill="#C1D6F5"/>
<rect x="145.004" y="205.321" width="14.0693" height="20.0221" fill="#C1D6F5"/>
<rect x="59.4243" y="205.321" width="79.0605" height="20.0221" fill="#C1D6F5"/>
<rect x="37.0796" y="176.969" width="17.162" height="20.0221" fill="#FBFFFF"/>
<rect x="145.004" y="176.969" width="14.0693" height="20.0221" fill="#FBFFFF"/>
<rect x="59.4243" y="176.969" width="79.0605" height="20.0221" fill="#FBFFFF"/>
<rect x="37.0796" y="233.673" width="17.162" height="20.0221" fill="#FBFFFF"/>
<rect x="145.004" y="233.673" width="14.0693" height="20.0221" fill="#FBFFFF"/>
<rect x="59.4243" y="233.673" width="79.0605" height="20.0221" fill="#FBFFFF"/>
<rect x="37.0796" y="347.081" width="17.162" height="20.0221" fill="#D2D0DE"/>
<rect x="145.004" y="347.081" width="14.0693" height="20.0221" fill="#FBFFFF"/>
<rect x="59.4243" y="347.081" width="79.0605" height="20.0221" fill="#FBFFFF"/>
<path d="M0.838867 373.065V455.475H25.6159V341.04L0.838867 373.065Z" fill="#53507B"/>
<path d="M59.3413 367.091L59.4269 347.081H62.6182L138.487 359.353V367.091H59.3413Z" fill="#D2D0DE"/>
<path d="M145.004 367.102V360.426L159.073 362.564V367.102H145.004Z" fill="#D2D0DE"/>
</svg>
